M48
; DRILL file {KiCad 7.0.7} date Wed Jun 19 04:08:00 2024
; FORMAT={-:-/ absolute / metric / decimal}
; #@! TF.CreationDate,2024-06-19T04:08:00+09:00
; #@! TF.GenerationSoftware,Kicad,Pcbnew,7.0.7
; #@! TF.FileFunction,MixedPlating,1,2
FMAT,2
METRIC
; #@! TA.AperFunction,Plated,PTH,ViaDrill
T1C0.300
; #@! TA.AperFunction,Plated,PTH,ComponentDrill
T2C0.762
; #@! TA.AperFunction,Plated,PTH,ComponentDrill
T3C0.800
; #@! TA.AperFunction,Plated,PTH,ComponentDrill
T4C0.900
; #@! TA.AperFunction,Plated,PTH,ComponentDrill
T5C0.950
; #@! TA.AperFunction,Plated,PTH,ComponentDrill
T6C1.000
; #@! TA.AperFunction,NonPlated,NPTH,ComponentDrill
T7C2.000
%
G90
G05
T1
X115.824Y-68.326
X115.824Y-76.2
X122.555Y-91.44
X122.555Y-109.22
X130.81Y-120.015
X130.81Y-123.825
X152.4Y-120.015
X152.4Y-123.825
X177.165Y-93.98
X183.515Y-106.68
X183.515Y-121.92
T2
X128.27Y-121.92
X130.81Y-121.92
X133.35Y-121.92
X135.89Y-121.92
X138.43Y-121.92
X140.97Y-121.92
X143.51Y-121.92
X146.05Y-121.92
X149.86Y-121.92
X152.4Y-121.92
X154.94Y-121.92
X157.48Y-121.92
X160.02Y-121.92
X162.56Y-121.92
X165.1Y-121.92
X167.64Y-121.92
T3
X124.46Y-68.58
X124.46Y-76.2
X134.62Y-68.58
X134.62Y-76.2
X135.89Y-115.57
X146.05Y-115.57
X157.48Y-115.57
X167.64Y-115.57
T4
X118.11Y-68.58
X118.11Y-76.2
X120.65Y-68.58
X120.65Y-76.2
T5
X129.62Y-140.82
X132.12Y-140.82
X138.49Y-140.82
X140.99Y-140.82
X147.36Y-140.82
X149.86Y-140.82
X158.79Y-140.82
X161.29Y-140.82
X167.7Y-140.82
X170.2Y-140.82
X176.57Y-140.82
X179.07Y-140.82
T6
X118.11Y-83.82
X118.11Y-86.36
X118.11Y-88.9
X118.11Y-91.44
X118.11Y-93.98
X118.11Y-96.52
X118.11Y-99.06
X118.11Y-101.6
X118.11Y-104.14
X118.11Y-106.68
X118.11Y-109.22
X118.11Y-111.76
X118.11Y-114.3
X118.11Y-116.84
X118.11Y-119.38
X118.11Y-121.92
X118.11Y-124.46
X118.11Y-127.0
X118.11Y-129.54
X120.65Y-83.82
X120.65Y-86.36
X120.65Y-88.9
X120.65Y-91.44
X120.65Y-93.98
X120.65Y-96.52
X120.65Y-99.06
X120.65Y-101.6
X120.65Y-104.14
X120.65Y-106.68
X120.65Y-109.22
X120.65Y-111.76
X120.65Y-114.3
X120.65Y-116.84
X120.65Y-119.38
X120.65Y-121.92
X120.65Y-124.46
X120.65Y-127.0
X120.65Y-129.54
X179.07Y-83.82
X179.07Y-86.36
X179.07Y-88.9
X179.07Y-91.44
X179.07Y-93.98
X179.07Y-96.52
X179.07Y-99.06
X179.07Y-101.6
X179.07Y-104.14
X179.07Y-106.68
X179.07Y-109.22
X179.07Y-111.76
X179.07Y-114.3
X179.07Y-116.84
X179.07Y-119.38
X179.07Y-121.92
X179.07Y-124.46
X179.07Y-127.0
X179.07Y-129.54
X181.61Y-83.82
X181.61Y-86.36
X181.61Y-88.9
X181.61Y-91.44
X181.61Y-93.98
X181.61Y-96.52
X181.61Y-99.06
X181.61Y-101.6
X181.61Y-104.14
X181.61Y-106.68
X181.61Y-109.22
X181.61Y-111.76
X181.61Y-114.3
X181.61Y-116.84
X181.61Y-119.38
X181.61Y-121.92
X181.61Y-124.46
X181.61Y-127.0
X181.61Y-129.54
T7
G00X130.47Y-147.32
M15
G01X131.27Y-147.32
M16
G05
G00X139.34Y-147.32
M15
G01X140.14Y-147.32
M16
G05
G00X148.21Y-147.32
M15
G01X149.01Y-147.32
M16
G05
G00X159.64Y-147.32
M15
G01X160.44Y-147.32
M16
G05
G00X168.55Y-147.32
M15
G01X169.35Y-147.32
M16
G05
G00X177.42Y-147.32
M15
G01X178.22Y-147.32
M16
G05
T0
M30
