%TF.GenerationSoftware,KiCad,Pcbnew,7.0.7*%
%TF.CreationDate,2024-06-19T04:07:58+09:00*%
%TF.ProjectId,ALTAIR_CAN_SHIELD _V1,414c5441-4952-45f4-9341-4e5f53484945,rev?*%
%TF.SameCoordinates,Original*%
%TF.FileFunction,Copper,L2,Bot*%
%TF.FilePolarity,Positive*%
%FSLAX46Y46*%
G04 Gerber Fmt 4.6, Leading zero omitted, Abs format (unit mm)*
G04 Created by KiCad (PCBNEW 7.0.7) date 2024-06-19 04:07:58*
%MOMM*%
%LPD*%
G01*
G04 APERTURE LIST*
G04 Aperture macros list*
%AMRoundRect*
0 Rectangle with rounded corners*
0 $1 Rounding radius*
0 $2 $3 $4 $5 $6 $7 $8 $9 X,Y pos of 4 corners*
0 Add a 4 corners polygon primitive as box body*
4,1,4,$2,$3,$4,$5,$6,$7,$8,$9,$2,$3,0*
0 Add four circle primitives for the rounded corners*
1,1,$1+$1,$2,$3*
1,1,$1+$1,$4,$5*
1,1,$1+$1,$6,$7*
1,1,$1+$1,$8,$9*
0 Add four rect primitives between the rounded corners*
20,1,$1+$1,$2,$3,$4,$5,0*
20,1,$1+$1,$4,$5,$6,$7,0*
20,1,$1+$1,$6,$7,$8,$9,0*
20,1,$1+$1,$8,$9,$2,$3,0*%
G04 Aperture macros list end*
%TA.AperFunction,ComponentPad*%
%ADD10RoundRect,0.250000X-0.600000X-0.725000X0.600000X-0.725000X0.600000X0.725000X-0.600000X0.725000X0*%
%TD*%
%TA.AperFunction,ComponentPad*%
%ADD11O,1.700000X1.950000*%
%TD*%
%TA.AperFunction,ComponentPad*%
%ADD12C,1.524000*%
%TD*%
%TA.AperFunction,ComponentPad*%
%ADD13C,1.600000*%
%TD*%
%TA.AperFunction,ComponentPad*%
%ADD14O,1.600000X1.600000*%
%TD*%
%TA.AperFunction,ComponentPad*%
%ADD15R,1.800000X1.800000*%
%TD*%
%TA.AperFunction,ComponentPad*%
%ADD16C,1.800000*%
%TD*%
%TA.AperFunction,ComponentPad*%
%ADD17C,1.700000*%
%TD*%
%TA.AperFunction,ViaPad*%
%ADD18C,0.600000*%
%TD*%
%TA.AperFunction,Conductor*%
%ADD19C,0.500000*%
%TD*%
%TA.AperFunction,Conductor*%
%ADD20C,1.500000*%
%TD*%
G04 APERTURE END LIST*
D10*
%TO.P,J3,1,Pin_1*%
%TO.N,CANH1*%
X176570000Y-140820000D03*
D11*
%TO.P,J3,2,Pin_2*%
%TO.N,CANL1*%
X179070000Y-140820000D03*
%TD*%
D12*
%TO.P,U2,1,VCC*%
%TO.N,+3.3V*%
X149860000Y-121920000D03*
%TO.P,U2,2,GND*%
%TO.N,GND*%
X152400000Y-121920000D03*
%TO.P,U2,3,CTX*%
%TO.N,B13(CTX)*%
X154940000Y-121920000D03*
%TO.P,U2,4,CRX*%
%TO.N,B12(CRX)*%
X157480000Y-121920000D03*
%TO.P,U2,5,CANH*%
%TO.N,CANH1*%
X160020000Y-121920000D03*
%TO.P,U2,6,CANL*%
%TO.N,CANL1*%
X162560000Y-121920000D03*
%TO.P,U2,7,S*%
%TO.N,unconnected-(U2-S-Pad7)*%
X165100000Y-121920000D03*
%TO.P,U2,8,NC*%
%TO.N,unconnected-(U2-NC-Pad8)*%
X167640000Y-121920000D03*
%TD*%
D10*
%TO.P,J2,1,Pin_1*%
%TO.N,CANH1*%
X167700000Y-140820000D03*
D11*
%TO.P,J2,2,Pin_2*%
%TO.N,CANL1*%
X170200000Y-140820000D03*
%TD*%
D13*
%TO.P,R3,1*%
%TO.N,CANH1*%
X157480000Y-115570000D03*
D14*
%TO.P,R3,2*%
%TO.N,CANL1*%
X167640000Y-115570000D03*
%TD*%
D12*
%TO.P,U3,1,VCC*%
%TO.N,+3.3V*%
X128270000Y-121920000D03*
%TO.P,U3,2,GND*%
%TO.N,GND*%
X130810000Y-121920000D03*
%TO.P,U3,3,CTX*%
%TO.N,A12(CTX)*%
X133350000Y-121920000D03*
%TO.P,U3,4,CRX*%
%TO.N,A11(CRX)*%
X135890000Y-121920000D03*
%TO.P,U3,5,CANH*%
%TO.N,CANH2*%
X138430000Y-121920000D03*
%TO.P,U3,6,CANL*%
%TO.N,CANL2*%
X140970000Y-121920000D03*
%TO.P,U3,7,S*%
%TO.N,unconnected-(U3-S-Pad7)*%
X143510000Y-121920000D03*
%TO.P,U3,8,NC*%
%TO.N,unconnected-(U3-NC-Pad8)*%
X146050000Y-121920000D03*
%TD*%
D10*
%TO.P,J4,1,Pin_1*%
%TO.N,CANH2*%
X147360000Y-140820000D03*
D11*
%TO.P,J4,2,Pin_2*%
%TO.N,CANL2*%
X149860000Y-140820000D03*
%TD*%
D13*
%TO.P,R4,1*%
%TO.N,CANH2*%
X135890000Y-115570000D03*
D14*
%TO.P,R4,2*%
%TO.N,CANL2*%
X146050000Y-115570000D03*
%TD*%
D15*
%TO.P,LED2,1,K*%
%TO.N,GND*%
X118110000Y-68580000D03*
D16*
%TO.P,LED2,2,A*%
%TO.N,Net-(LED2-A)*%
X120650000Y-68580000D03*
%TD*%
D10*
%TO.P,J5,1,Pin_1*%
%TO.N,CANH2*%
X138490000Y-140820000D03*
D11*
%TO.P,J5,2,Pin_2*%
%TO.N,CANL2*%
X140990000Y-140820000D03*
%TD*%
D10*
%TO.P,J1,1,Pin_1*%
%TO.N,CANH1*%
X158790000Y-140820000D03*
D11*
%TO.P,J1,2,Pin_2*%
%TO.N,CANL1*%
X161290000Y-140820000D03*
%TD*%
D15*
%TO.P,LED1,1,K*%
%TO.N,GND*%
X118110000Y-76200000D03*
D16*
%TO.P,LED1,2,A*%
%TO.N,Net-(LED1-A)*%
X120650000Y-76200000D03*
%TD*%
D17*
%TO.P,U1,1,RESET*%
%TO.N,unconnected-(U1-RESET-Pad1)*%
X120650000Y-99060000D03*
%TO.P,U1,2,BOOT0*%
%TO.N,unconnected-(U1-BOOT0-Pad2)*%
X118110000Y-91440000D03*
%TO.P,U1,3,IOREF*%
%TO.N,unconnected-(U1-IOREF-Pad3)*%
X120650000Y-96520000D03*
%TO.P,U1,4,AVDD*%
%TO.N,unconnected-(U1-AVDD-Pad4)*%
X179070000Y-91440000D03*
%TO.P,U1,5,VDD*%
%TO.N,unconnected-(U1-VDD-Pad5)*%
X118110000Y-88900000D03*
%TO.P,U1,6,VBAT*%
%TO.N,unconnected-(U1-VBAT-Pad6)*%
X118110000Y-124460000D03*
%TO.P,U1,7,VIN*%
%TO.N,unconnected-(U1-VIN-Pad7)*%
X120650000Y-111760000D03*
%TO.P,U1,8,U5V*%
%TO.N,+5V*%
X181610000Y-91440000D03*
%TO.P,U1,9,E5V*%
X120650000Y-88900000D03*
%TO.P,U1,10,+5V*%
X120650000Y-104140000D03*
%TO.P,U1,11,+3V3*%
%TO.N,+3.3V*%
X120650000Y-101600000D03*
%TO.P,U1,12,PA0(TIM2_CH1/TIM5_CH1/UART4_TX)*%
%TO.N,unconnected-(U1-PA0(TIM2_CH1{slash}TIM5_CH1{slash}UART4_TX)-Pad12)*%
X120650000Y-116840000D03*
%TO.P,U1,13,PA1(TIM2_CH2/TIM5CH2/UART4_RX)*%
%TO.N,unconnected-(U1-PA1(TIM2_CH2{slash}TIM5CH2{slash}UART4_RX)-Pad13)*%
X120650000Y-119380000D03*
%TO.P,U1,14,PA2(TIM2_CH3/TIM5_CH3/TIM9_CH1/USART2_TX)*%
%TO.N,unconnected-(U1-PA2(TIM2_CH3{slash}TIM5_CH3{slash}TIM9_CH1{slash}USART2_TX)-Pad14)*%
X179070000Y-127000000D03*
%TO.P,U1,15,PA3(TIM2_CH4/TIM5_CH4/TIM9_CH2/USART2_RX)*%
%TO.N,unconnected-(U1-PA3(TIM2_CH4{slash}TIM5_CH4{slash}TIM9_CH2{slash}USART2_RX)-Pad15)*%
X179070000Y-129540000D03*
%TO.P,U1,16,PA4*%
%TO.N,unconnected-(U1-PA4-Pad16)*%
X120650000Y-121920000D03*
%TO.P,U1,17,PA5(TIM2_CH1)*%
%TO.N,unconnected-(U1-PA5(TIM2_CH1)-Pad17)*%
X179070000Y-96520000D03*
%TO.P,U1,18,PA6(TIM3_CH1/TIM13_CH1)*%
%TO.N,unconnected-(U1-PA6(TIM3_CH1{slash}TIM13_CH1)-Pad18)*%
X179070000Y-99060000D03*
%TO.P,U1,19,PA7(TIM3_CH2/TIM14_CH1)*%
%TO.N,unconnected-(U1-PA7(TIM3_CH2{slash}TIM14_CH1)-Pad19)*%
X179070000Y-101600000D03*
%TO.P,U1,20,PA8(TIM1_CH1/12C3_SCL)*%
%TO.N,unconnected-(U1-PA8(TIM1_CH1{slash}12C3_SCL)-Pad20)*%
X179070000Y-111760000D03*
%TO.P,U1,21,PA9(TIM1_CH2/USART1_TX)*%
%TO.N,unconnected-(U1-PA9(TIM1_CH2{slash}USART1_TX)-Pad21)*%
X179070000Y-109220000D03*
%TO.P,U1,22,PA10(TIM1_CH3/USART1_RX)*%
%TO.N,unconnected-(U1-PA10(TIM1_CH3{slash}USART1_RX)-Pad22)*%
X179070000Y-124460000D03*
%TO.P,U1,23,PA11(TIM1_CH4/CAN1_RX)*%
%TO.N,A11(CRX)*%
X181610000Y-99060000D03*
%TO.P,U1,24,PA12(CAN1_TX)*%
%TO.N,A12(CTX)*%
X181610000Y-96520000D03*
%TO.P,U1,25,PA13(JTCK-SWDIO)*%
%TO.N,unconnected-(U1-PA13(JTCK-SWDIO)-Pad25)*%
X118110000Y-99060000D03*
%TO.P,U1,26,PA14(JTCK-SWCLK)*%
%TO.N,unconnected-(U1-PA14(JTCK-SWCLK)-Pad26)*%
X118110000Y-101600000D03*
%TO.P,U1,27,PA15(TIM2_CH1)*%
%TO.N,unconnected-(U1-PA15(TIM2_CH1)-Pad27)*%
X118110000Y-104140000D03*
%TO.P,U1,28,PD2(UART5_RX)*%
%TO.N,unconnected-(U1-PD2(UART5_RX)-Pad28)*%
X120650000Y-86360000D03*
%TO.P,U1,29,PH0*%
%TO.N,unconnected-(U1-PH0-Pad29)*%
X118110000Y-119380000D03*
%TO.P,U1,30,PH1*%
%TO.N,unconnected-(U1-PH1-Pad30)*%
X118110000Y-121920000D03*
%TO.P,U1,31,(TIM3_CH3)PB0*%
%TO.N,unconnected-(U1-(TIM3_CH3)PB0-Pad31)*%
X120650000Y-124460000D03*
%TO.P,U1,32,(TIM3_CH4)PB1*%
%TO.N,unconnected-(U1-(TIM3_CH4)PB1-Pad32)*%
X181610000Y-111760000D03*
%TO.P,U1,33,(TIM2_CH4)PB2*%
%TO.N,unconnected-(U1-(TIM2_CH4)PB2-Pad33)*%
X181610000Y-109220000D03*
%TO.P,U1,34,(TIM3_CH1/12C2_SDA)PB3*%
%TO.N,unconnected-(U1-(TIM3_CH1{slash}12C2_SDA)PB3-Pad34)*%
X179070000Y-121920000D03*
%TO.P,U1,35,(TIM3_CH1/12C3_SDA)PB4*%
%TO.N,unconnected-(U1-(TIM3_CH1{slash}12C3_SDA)PB4-Pad35)*%
X179070000Y-116840000D03*
%TO.P,U1,36,(TIM3_CH2/CAN2_RX)PB5*%
%TO.N,unconnected-(U1-(TIM3_CH2{slash}CAN2_RX)PB5-Pad36)*%
X179070000Y-119380000D03*
%TO.P,U1,37,(TIM4_CH1/12C1_SCL/USART1_TX/CAN2_TX)PB6*%
%TO.N,unconnected-(U1-(TIM4_CH1{slash}12C1_SCL{slash}USART1_TX{slash}CAN2_TX)PB6-Pad37)*%
X179070000Y-104140000D03*
%TO.P,U1,38,(TIM4_CH2/12C1_SDA/USART1_RX)PB7*%
%TO.N,unconnected-(U1-(TIM4_CH2{slash}12C1_SDA{slash}USART1_RX)PB7-Pad38)*%
X118110000Y-109220000D03*
%TO.P,U1,39,(TIM2_CH1/TIM4_CH3/TIM10_CH1/12C1_SCL/CAN1_RX)PB8*%
%TO.N,unconnected-(U1-(TIM2_CH1{slash}TIM4_CH3{slash}TIM10_CH1{slash}12C1_SCL{slash}CAN1_RX)PB8-Pad39)*%
X179070000Y-86360000D03*
%TO.P,U1,40,(TIM2_CH2/TIM4_CH4/TIM11_CH1/12C1_SDA/CAN1_TX)PB9*%
%TO.N,unconnected-(U1-(TIM2_CH2{slash}TIM4_CH4{slash}TIM11_CH1{slash}12C1_SDA{slash}CAN1_TX)PB9-Pad40)*%
X179070000Y-88900000D03*
%TO.P,U1,41,(TIM_2CH3/12C2_SCL/USART3_RX)PB10*%
%TO.N,unconnected-(U1-(TIM_2CH3{slash}12C2_SCL{slash}USART3_RX)PB10-Pad41)*%
X179070000Y-114300000D03*
%TO.P,U1,42,(CAN2_RX)PB12*%
%TO.N,B12(CRX)*%
X181610000Y-101600000D03*
%TO.P,U1,43,(CAN2_TX)PB13*%
%TO.N,B13(CTX)*%
X181610000Y-119380000D03*
%TO.P,U1,44,(TIM12_CH1)PB14*%
%TO.N,unconnected-(U1-(TIM12_CH1)PB14-Pad44)*%
X181610000Y-116840000D03*
%TO.P,U1,45,(TIM12_CH2)PB15*%
%TO.N,unconnected-(U1-(TIM12_CH2)PB15-Pad45)*%
X181610000Y-114300000D03*
%TO.P,U1,46,PC0(PB9)*%
%TO.N,Net-(U1-PC0(PB9))*%
X120650000Y-129540000D03*
%TO.P,U1,47,PC1(PB9)*%
%TO.N,Net-(U1-PC1(PB9))*%
X120650000Y-127000000D03*
%TO.P,U1,48,PC2*%
%TO.N,Net-(U1-PC2)*%
X118110000Y-127000000D03*
%TO.P,U1,49,PC3*%
%TO.N,Net-(U1-PC3)*%
X118110000Y-129540000D03*
%TO.P,U1,50,PC4*%
%TO.N,unconnected-(U1-PC4-Pad50)*%
X181610000Y-124460000D03*
%TO.P,U1,51,(USART3_RX)PC5*%
%TO.N,unconnected-(U1-(USART3_RX)PC5-Pad51)*%
X181610000Y-88900000D03*
%TO.P,U1,52,(TIM3_CH1/TIM8_CH1/USART6_TX)PC6*%
%TO.N,unconnected-(U1-(TIM3_CH1{slash}TIM8_CH1{slash}USART6_TX)PC6-Pad52)*%
X181610000Y-86360000D03*
%TO.P,U1,53,(TIM3_CH2/TIM8_CH2/USART6_RX)PC7*%
%TO.N,unconnected-(U1-(TIM3_CH2{slash}TIM8_CH2{slash}USART6_RX)PC7-Pad53)*%
X179070000Y-106680000D03*
%TO.P,U1,54,(TIM3_CH3/TIM8_CH3)PC8*%
%TO.N,unconnected-(U1-(TIM3_CH3{slash}TIM8_CH3)PC8-Pad54)*%
X181610000Y-83820000D03*
%TO.P,U1,55,(TIM3_CH4/TIM8_CH4/12C3_SDA)PC9*%
%TO.N,unconnected-(U1-(TIM3_CH4{slash}TIM8_CH4{slash}12C3_SDA)PC9-Pad55)*%
X179070000Y-83820000D03*
%TO.P,U1,56,(USART3_TX/UART4_TX)PC10*%
%TO.N,unconnected-(U1-(USART3_TX{slash}UART4_TX)PC10-Pad56)*%
X118110000Y-83820000D03*
%TO.P,U1,57,(USART3_RX/UART4_RX)PC11*%
%TO.N,unconnected-(U1-(USART3_RX{slash}UART4_RX)PC11-Pad57)*%
X120650000Y-83820000D03*
%TO.P,U1,58,(12C2_SDA/UART5_TX)PC12*%
%TO.N,unconnected-(U1-(12C2_SDA{slash}UART5_TX)PC12-Pad58)*%
X118110000Y-86360000D03*
%TO.P,U1,59,PC13*%
%TO.N,unconnected-(U1-PC13-Pad59)*%
X118110000Y-111760000D03*
%TO.P,U1,60,PC14*%
%TO.N,unconnected-(U1-PC14-Pad60)*%
X118110000Y-114300000D03*
%TO.P,U1,61,PC15*%
%TO.N,unconnected-(U1-PC15-Pad61)*%
X118110000Y-116840000D03*
%TO.P,U1,62,GND*%
%TO.N,GND*%
X118110000Y-106680000D03*
X120650000Y-91440000D03*
X120650000Y-106680000D03*
X120650000Y-109220000D03*
X179070000Y-93980000D03*
X181610000Y-106680000D03*
X181610000Y-121920000D03*
%TO.P,U1,63*%
%TO.N,N/C*%
X118110000Y-96520000D03*
%TO.P,U1,64*%
X120650000Y-93980000D03*
%TO.P,U1,65*%
X118110000Y-93980000D03*
%TO.P,U1,66*%
X120650000Y-114300000D03*
%TO.P,U1,67*%
X181610000Y-93980000D03*
%TO.P,U1,68*%
X181610000Y-104140000D03*
%TO.P,U1,69*%
X181610000Y-127000000D03*
%TO.P,U1,70*%
X181610000Y-129540000D03*
%TD*%
D13*
%TO.P,R2,1*%
%TO.N,Net-(LED2-A)*%
X124460000Y-68580000D03*
D14*
%TO.P,R2,2*%
%TO.N,+3.3V*%
X134620000Y-68580000D03*
%TD*%
D13*
%TO.P,R1,1*%
%TO.N,Net-(LED1-A)*%
X124460000Y-76200000D03*
D14*
%TO.P,R1,2*%
%TO.N,+5V*%
X134620000Y-76200000D03*
%TD*%
D10*
%TO.P,J6,1,Pin_1*%
%TO.N,CANH2*%
X129620000Y-140820000D03*
D11*
%TO.P,J6,2,Pin_2*%
%TO.N,CANL2*%
X132120000Y-140820000D03*
%TD*%
D18*
%TO.N,GND*%
X122555000Y-109220000D03*
X130810000Y-120015000D03*
X152400000Y-123825000D03*
X130810000Y-123825000D03*
X115824000Y-76200000D03*
X152400000Y-120015000D03*
X115824000Y-68326000D03*
X177165000Y-93980000D03*
X183515000Y-121920000D03*
X183515000Y-106680000D03*
X122555000Y-91440000D03*
%TD*%
D19*
%TO.N,+3.3V*%
X135890000Y-101600000D02*
X137160000Y-100330000D01*
X137160000Y-100330000D02*
X137160000Y-71120000D01*
X120650000Y-101600000D02*
X128270000Y-101600000D01*
X128270000Y-101600000D02*
X135890000Y-101600000D01*
X136266711Y-101600000D02*
X149860000Y-115193289D01*
X128270000Y-121920000D02*
X128270000Y-101600000D01*
X149860000Y-115193289D02*
X149860000Y-121920000D01*
X135890000Y-101600000D02*
X136266711Y-101600000D01*
X137160000Y-71120000D02*
X134620000Y-68580000D01*
D20*
%TO.N,CANH1*%
X167640000Y-144780000D02*
X175260000Y-144780000D01*
X158790000Y-143550000D02*
X160020000Y-144780000D01*
X160020000Y-116840000D02*
X160020000Y-121920000D01*
X158790000Y-126960000D02*
X160020000Y-125730000D01*
X167700000Y-140820000D02*
X167700000Y-144720000D01*
X175260000Y-144780000D02*
X176570000Y-143470000D01*
X158750000Y-115570000D02*
X160020000Y-116840000D01*
X167700000Y-144720000D02*
X167640000Y-144780000D01*
X158790000Y-140820000D02*
X158790000Y-143550000D01*
X157480000Y-115570000D02*
X158750000Y-115570000D01*
X158790000Y-140820000D02*
X158790000Y-126960000D01*
X160020000Y-144780000D02*
X167640000Y-144780000D01*
X176570000Y-143470000D02*
X176570000Y-140820000D01*
X160020000Y-125730000D02*
X160020000Y-121920000D01*
%TO.N,CANL1*%
X161290000Y-140820000D02*
X161290000Y-138430000D01*
X170200000Y-140820000D02*
X170200000Y-137180000D01*
X162560000Y-121920000D02*
X162560000Y-116840000D01*
X162560000Y-137160000D02*
X170180000Y-137160000D01*
X162560000Y-121920000D02*
X162560000Y-137160000D01*
X161290000Y-138430000D02*
X162560000Y-137160000D01*
X162560000Y-116840000D02*
X163830000Y-115570000D01*
X179070000Y-138345000D02*
X179070000Y-140820000D01*
X170180000Y-137160000D02*
X177885000Y-137160000D01*
X177885000Y-137160000D02*
X179070000Y-138345000D01*
X163830000Y-115570000D02*
X167640000Y-115570000D01*
X170200000Y-137180000D02*
X170180000Y-137160000D01*
%TO.N,CANH2*%
X138430000Y-116840000D02*
X137160000Y-115570000D01*
X138490000Y-140820000D02*
X138490000Y-144720000D01*
X138430000Y-144780000D02*
X146050000Y-144780000D01*
X138430000Y-127000000D02*
X138430000Y-121920000D01*
X129641573Y-140841573D02*
X129641573Y-143611573D01*
X138490000Y-144720000D02*
X138430000Y-144780000D01*
X146050000Y-144780000D02*
X147360000Y-143470000D01*
X137160000Y-115570000D02*
X135890000Y-115570000D01*
X138430000Y-121920000D02*
X138430000Y-116840000D01*
X129641573Y-143611573D02*
X130810000Y-144780000D01*
X147360000Y-143470000D02*
X147360000Y-140820000D01*
X129620000Y-135810000D02*
X138430000Y-127000000D01*
X129620000Y-140820000D02*
X129620000Y-135810000D01*
X129620000Y-140820000D02*
X129641573Y-140841573D01*
X130810000Y-144780000D02*
X138430000Y-144780000D01*
%TO.N,CANL2*%
X147320000Y-137160000D02*
X149860000Y-139700000D01*
X132120000Y-138390000D02*
X133350000Y-137160000D01*
X140990000Y-140820000D02*
X140990000Y-137180000D01*
X140970000Y-116840000D02*
X142240000Y-115570000D01*
X132120000Y-140820000D02*
X132120000Y-138390000D01*
X140970000Y-137160000D02*
X147320000Y-137160000D01*
X140970000Y-121920000D02*
X140970000Y-116840000D01*
X142240000Y-115570000D02*
X146050000Y-115570000D01*
X149860000Y-139700000D02*
X149860000Y-140820000D01*
X133350000Y-137160000D02*
X140970000Y-137160000D01*
X140970000Y-137160000D02*
X140990000Y-137180000D01*
X140970000Y-121920000D02*
X140970000Y-137160000D01*
%TO.N,Net-(LED2-A)*%
X120650000Y-68580000D02*
X124460000Y-68580000D01*
%TO.N,Net-(LED1-A)*%
X120650000Y-76200000D02*
X124460000Y-76200000D01*
D19*
%TO.N,+5V*%
X134620000Y-87630000D02*
X134620000Y-76200000D01*
X133350000Y-88900000D02*
X134620000Y-87630000D01*
X120650000Y-88900000D02*
X133350000Y-88900000D01*
%TD*%
%TA.AperFunction,Conductor*%
%TO.N,GND*%
G36*
X138347539Y-64815185D02*
G01*
X138393294Y-64867989D01*
X138404500Y-64919500D01*
X138404500Y-88870264D01*
X138402398Y-88880832D01*
X138402399Y-88900000D01*
X138404500Y-88905073D01*
X138410482Y-88919516D01*
X138410483Y-88919517D01*
X138430000Y-88927601D01*
X138449177Y-88927601D01*
X138459739Y-88925500D01*
X165094928Y-88925500D01*
X172690261Y-88925500D01*
X172700823Y-88927601D01*
X172720000Y-88927601D01*
X172739517Y-88919517D01*
X172745500Y-88905072D01*
X172747601Y-88900000D01*
X178062247Y-88900000D01*
X178081610Y-89096599D01*
X178081610Y-89096601D01*
X178081611Y-89096603D01*
X178138958Y-89285650D01*
X178156572Y-89318603D01*
X178232086Y-89459881D01*
X178357410Y-89612589D01*
X178510118Y-89737913D01*
X178510122Y-89737916D01*
X178684350Y-89831042D01*
X178873397Y-89888389D01*
X179070000Y-89907753D01*
X179266603Y-89888389D01*
X179455650Y-89831042D01*
X179629878Y-89737916D01*
X179782589Y-89612589D01*
X179907916Y-89459878D01*
X180001042Y-89285650D01*
X180058389Y-89096603D01*
X180077753Y-88900000D01*
X180602247Y-88900000D01*
X180621610Y-89096599D01*
X180621610Y-89096601D01*
X180621611Y-89096603D01*
X180678958Y-89285650D01*
X180696572Y-89318603D01*
X180772086Y-89459881D01*
X180897410Y-89612589D01*
X181050118Y-89737913D01*
X181050122Y-89737916D01*
X181224350Y-89831042D01*
X181413397Y-89888389D01*
X181610000Y-89907753D01*
X181806603Y-89888389D01*
X181995650Y-89831042D01*
X182169878Y-89737916D01*
X182322589Y-89612589D01*
X182447916Y-89459878D01*
X182541042Y-89285650D01*
X182598389Y-89096603D01*
X182617753Y-88900000D01*
X182598389Y-88703397D01*
X182541042Y-88514350D01*
X182447916Y-88340122D01*
X182447913Y-88340118D01*
X182322589Y-88187410D01*
X182169881Y-88062086D01*
X182169879Y-88062085D01*
X182169878Y-88062084D01*
X181995650Y-87968958D01*
X181806603Y-87911611D01*
X181806601Y-87911610D01*
X181806599Y-87911610D01*
X181610000Y-87892247D01*
X181413400Y-87911610D01*
X181224350Y-87968958D01*
X181050118Y-88062086D01*
X180897410Y-88187410D01*
X180772086Y-88340118D01*
X180678958Y-88514350D01*
X180621610Y-88703400D01*
X180602247Y-88900000D01*
X180077753Y-88900000D01*
X180058389Y-88703397D01*
X180001042Y-88514350D01*
X179907916Y-88340122D01*
X179907913Y-88340118D01*
X179782589Y-88187410D01*
X179629881Y-88062086D01*
X179629879Y-88062085D01*
X179629878Y-88062084D01*
X179455650Y-87968958D01*
X179266603Y-87911611D01*
X179266601Y-87911610D01*
X179266599Y-87911610D01*
X179070000Y-87892247D01*
X178873400Y-87911610D01*
X178684350Y-87968958D01*
X178510118Y-88062086D01*
X178357410Y-88187410D01*
X178232086Y-88340118D01*
X178138958Y-88514350D01*
X178081610Y-88703400D01*
X178062247Y-88900000D01*
X172747601Y-88900000D01*
X172747600Y-88899997D01*
X172747601Y-88880832D01*
X172745500Y-88870264D01*
X172745500Y-86360000D01*
X178062247Y-86360000D01*
X178081610Y-86556599D01*
X178081610Y-86556601D01*
X178081611Y-86556603D01*
X178138958Y-86745650D01*
X178232084Y-86919878D01*
X178232086Y-86919881D01*
X178357410Y-87072589D01*
X178510118Y-87197913D01*
X178510122Y-87197916D01*
X178684350Y-87291042D01*
X178873397Y-87348389D01*
X179070000Y-87367753D01*
X179266603Y-87348389D01*
X179455650Y-87291042D01*
X179629878Y-87197916D01*
X179782589Y-87072589D01*
X179907916Y-86919878D01*
X180001042Y-86745650D01*
X180058389Y-86556603D01*
X180077753Y-86360000D01*
X180602247Y-86360000D01*
X180621610Y-86556599D01*
X180621610Y-86556601D01*
X180621611Y-86556603D01*
X180678958Y-86745650D01*
X180772084Y-86919878D01*
X180772086Y-86919881D01*
X180897410Y-87072589D01*
X181050118Y-87197913D01*
X181050122Y-87197916D01*
X181224350Y-87291042D01*
X181413397Y-87348389D01*
X181610000Y-87367753D01*
X181806603Y-87348389D01*
X181995650Y-87291042D01*
X182169878Y-87197916D01*
X182322589Y-87072589D01*
X182447916Y-86919878D01*
X182541042Y-86745650D01*
X182598389Y-86556603D01*
X182617753Y-86360000D01*
X182598389Y-86163397D01*
X182541042Y-85974350D01*
X182447916Y-85800122D01*
X182447913Y-85800118D01*
X182322589Y-85647410D01*
X182169881Y-85522086D01*
X182169879Y-85522085D01*
X182169878Y-85522084D01*
X181995650Y-85428958D01*
X181806603Y-85371611D01*
X181806601Y-85371610D01*
X181806599Y-85371610D01*
X181610000Y-85352247D01*
X181413400Y-85371610D01*
X181224350Y-85428958D01*
X181050118Y-85522086D01*
X180897410Y-85647410D01*
X180772086Y-85800118D01*
X180678958Y-85974350D01*
X180621610Y-86163400D01*
X180602247Y-86360000D01*
X180077753Y-86360000D01*
X180058389Y-86163397D01*
X180001042Y-85974350D01*
X179907916Y-85800122D01*
X179907913Y-85800118D01*
X179782589Y-85647410D01*
X179629881Y-85522086D01*
X179629879Y-85522085D01*
X179629878Y-85522084D01*
X179455650Y-85428958D01*
X179266603Y-85371611D01*
X179266601Y-85371610D01*
X179266599Y-85371610D01*
X179070000Y-85352247D01*
X178873400Y-85371610D01*
X178684350Y-85428958D01*
X178510118Y-85522086D01*
X178357410Y-85647410D01*
X178232086Y-85800118D01*
X178138958Y-85974350D01*
X178081610Y-86163400D01*
X178062247Y-86360000D01*
X172745500Y-86360000D01*
X172745500Y-83820000D01*
X178062247Y-83820000D01*
X178081610Y-84016599D01*
X178081610Y-84016601D01*
X178081611Y-84016603D01*
X178138958Y-84205650D01*
X178232084Y-84379878D01*
X178232086Y-84379881D01*
X178357410Y-84532589D01*
X178510118Y-84657913D01*
X178510122Y-84657916D01*
X178684350Y-84751042D01*
X178873397Y-84808389D01*
X179070000Y-84827753D01*
X179266603Y-84808389D01*
X179455650Y-84751042D01*
X179629878Y-84657916D01*
X179782589Y-84532589D01*
X179907916Y-84379878D01*
X180001042Y-84205650D01*
X180058389Y-84016603D01*
X180077753Y-83820000D01*
X180602247Y-83820000D01*
X180621610Y-84016599D01*
X180621610Y-84016601D01*
X180621611Y-84016603D01*
X180678958Y-84205650D01*
X180772084Y-84379878D01*
X180772086Y-84379881D01*
X180897410Y-84532589D01*
X181050118Y-84657913D01*
X181050122Y-84657916D01*
X181224350Y-84751042D01*
X181413397Y-84808389D01*
X181610000Y-84827753D01*
X181806603Y-84808389D01*
X181995650Y-84751042D01*
X182169878Y-84657916D01*
X182322589Y-84532589D01*
X182447916Y-84379878D01*
X182541042Y-84205650D01*
X182598389Y-84016603D01*
X182617753Y-83820000D01*
X182598389Y-83623397D01*
X182541042Y-83434350D01*
X182447916Y-83260122D01*
X182447913Y-83260118D01*
X182322589Y-83107410D01*
X182169881Y-82982086D01*
X182169879Y-82982085D01*
X182169878Y-82982084D01*
X181995650Y-82888958D01*
X181806603Y-82831611D01*
X181806601Y-82831610D01*
X181806599Y-82831610D01*
X181610000Y-82812247D01*
X181413400Y-82831610D01*
X181224350Y-82888958D01*
X181050118Y-82982086D01*
X180897410Y-83107410D01*
X180772086Y-83260118D01*
X180678958Y-83434350D01*
X180621610Y-83623400D01*
X180602247Y-83820000D01*
X180077753Y-83820000D01*
X180058389Y-83623397D01*
X180001042Y-83434350D01*
X179907916Y-83260122D01*
X179907913Y-83260118D01*
X179782589Y-83107410D01*
X179629881Y-82982086D01*
X179629879Y-82982085D01*
X179629878Y-82982084D01*
X179455650Y-82888958D01*
X179266603Y-82831611D01*
X179266601Y-82831610D01*
X179266599Y-82831610D01*
X179070000Y-82812247D01*
X178873400Y-82831610D01*
X178684350Y-82888958D01*
X178510118Y-82982086D01*
X178357410Y-83107410D01*
X178232086Y-83260118D01*
X178138958Y-83434350D01*
X178081610Y-83623400D01*
X178062247Y-83820000D01*
X172745500Y-83820000D01*
X172745500Y-78889500D01*
X172765185Y-78822461D01*
X172817989Y-78776706D01*
X172869500Y-78765500D01*
X185270500Y-78765500D01*
X185337539Y-78785185D01*
X185383294Y-78837989D01*
X185394500Y-78889500D01*
X185394500Y-152250500D01*
X185374815Y-152317539D01*
X185322011Y-152363294D01*
X185270500Y-152374500D01*
X114449500Y-152374500D01*
X114382461Y-152354815D01*
X114336706Y-152302011D01*
X114325500Y-152250500D01*
X114325500Y-147376330D01*
X129215710Y-147376330D01*
X129245925Y-147599387D01*
X129245926Y-147599390D01*
X129315483Y-147813465D01*
X129422146Y-148011678D01*
X129422148Y-148011681D01*
X129562489Y-148187663D01*
X129562491Y-148187664D01*
X129562492Y-148187666D01*
X129732004Y-148335765D01*
X129925236Y-148451215D01*
X130135976Y-148530306D01*
X130135976Y-148530307D01*
X130357450Y-148570500D01*
X130357453Y-148570500D01*
X131326148Y-148570500D01*
X131326155Y-148570500D01*
X131494188Y-148555377D01*
X131494192Y-148555376D01*
X131711160Y-148495496D01*
X131711162Y-148495495D01*
X131711170Y-148495493D01*
X131913973Y-148397829D01*
X132096078Y-148265522D01*
X132251632Y-148102825D01*
X132375635Y-147914968D01*
X132464103Y-147707988D01*
X132514191Y-147488537D01*
X132519230Y-147376330D01*
X138085710Y-147376330D01*
X138115925Y-147599387D01*
X138115926Y-147599390D01*
X138185483Y-147813465D01*
X138292146Y-148011678D01*
X138292148Y-148011681D01*
X138432489Y-148187663D01*
X138432491Y-148187664D01*
X138432492Y-148187666D01*
X138602004Y-148335765D01*
X138795236Y-148451215D01*
X139005976Y-148530307D01*
X139227450Y-148570500D01*
X139227453Y-148570500D01*
X140196148Y-148570500D01*
X140196155Y-148570500D01*
X140364188Y-148555377D01*
X140364192Y-148555376D01*
X140581160Y-148495496D01*
X140581162Y-148495495D01*
X140581170Y-148495493D01*
X140783973Y-148397829D01*
X140966078Y-148265522D01*
X141121632Y-148102825D01*
X141245635Y-147914968D01*
X141334103Y-147707988D01*
X141384191Y-147488537D01*
X141389230Y-147376330D01*
X146955710Y-147376330D01*
X146985925Y-147599387D01*
X146985926Y-147599390D01*
X147055483Y-147813465D01*
X147162146Y-148011678D01*
X147162148Y-148011681D01*
X147302489Y-148187663D01*
X147302491Y-148187664D01*
X147302492Y-148187666D01*
X147472004Y-148335765D01*
X147665236Y-148451215D01*
X147875976Y-148530306D01*
X147875976Y-148530307D01*
X148097450Y-148570500D01*
X148097453Y-148570500D01*
X149066148Y-148570500D01*
X149066155Y-148570500D01*
X149234188Y-148555377D01*
X149234192Y-148555376D01*
X149451160Y-148495496D01*
X149451162Y-148495495D01*
X149451170Y-148495493D01*
X149653973Y-148397829D01*
X149836078Y-148265522D01*
X149991632Y-148102825D01*
X150115635Y-147914968D01*
X150204103Y-147707988D01*
X150254191Y-147488537D01*
X150259230Y-147376330D01*
X158385710Y-147376330D01*
X158415925Y-147599387D01*
X158415926Y-147599390D01*
X158485483Y-147813465D01*
X158592146Y-148011678D01*
X158592148Y-148011681D01*
X158732489Y-148187663D01*
X158732491Y-148187664D01*
X158732492Y-148187666D01*
X158902004Y-148335765D01*
X159095236Y-148451215D01*
X159305976Y-148530307D01*
X159527450Y-148570500D01*
X159527453Y-148570500D01*
X160496148Y-148570500D01*
X160496155Y-148570500D01*
X160664188Y-148555377D01*
X160664192Y-148555376D01*
X160881160Y-148495496D01*
X160881162Y-148495495D01*
X160881170Y-148495493D01*
X161083973Y-148397829D01*
X161266078Y-148265522D01*
X161421632Y-148102825D01*
X161545635Y-147914968D01*
X161634103Y-147707988D01*
X161684191Y-147488537D01*
X161689230Y-147376330D01*
X167295710Y-147376330D01*
X167325925Y-147599387D01*
X167325926Y-147599390D01*
X167395483Y-147813465D01*
X167502146Y-148011678D01*
X167502148Y-148011681D01*
X167642489Y-148187663D01*
X167642491Y-148187664D01*
X167642492Y-148187666D01*
X167812004Y-148335765D01*
X168005236Y-148451215D01*
X168215976Y-148530306D01*
X168215976Y-148530307D01*
X168437450Y-148570500D01*
X168437453Y-148570500D01*
X169406148Y-148570500D01*
X169406155Y-148570500D01*
X169574188Y-148555377D01*
X169574192Y-148555376D01*
X169791160Y-148495496D01*
X169791162Y-148495495D01*
X169791170Y-148495493D01*
X169993973Y-148397829D01*
X170176078Y-148265522D01*
X170331632Y-148102825D01*
X170455635Y-147914968D01*
X170544103Y-147707988D01*
X170594191Y-147488537D01*
X170599230Y-147376330D01*
X176165710Y-147376330D01*
X176195925Y-147599387D01*
X176195926Y-147599390D01*
X176265483Y-147813465D01*
X176372146Y-148011678D01*
X176372148Y-148011681D01*
X176512489Y-148187663D01*
X176512491Y-148187664D01*
X176512492Y-148187666D01*
X176682004Y-148335765D01*
X176875236Y-148451215D01*
X177085976Y-148530307D01*
X177307450Y-148570500D01*
X177307453Y-148570500D01*
X178276148Y-148570500D01*
X178276155Y-148570500D01*
X178444188Y-148555377D01*
X178444192Y-148555376D01*
X178661160Y-148495496D01*
X178661162Y-148495495D01*
X178661170Y-148495493D01*
X178863973Y-148397829D01*
X179046078Y-148265522D01*
X179201632Y-148102825D01*
X179325635Y-147914968D01*
X179414103Y-147707988D01*
X179464191Y-147488537D01*
X179474290Y-147263670D01*
X179444075Y-147040613D01*
X179374517Y-146826536D01*
X179267852Y-146628319D01*
X179127508Y-146452334D01*
X178957996Y-146304235D01*
X178764764Y-146188785D01*
X178646775Y-146144503D01*
X178554023Y-146109692D01*
X178332550Y-146069500D01*
X178332547Y-146069500D01*
X177363845Y-146069500D01*
X177325399Y-146072960D01*
X177195813Y-146084622D01*
X177195807Y-146084623D01*
X176978839Y-146144503D01*
X176978826Y-146144508D01*
X176776033Y-146242167D01*
X176776025Y-146242171D01*
X176593927Y-146374473D01*
X176593925Y-146374474D01*
X176438366Y-146537176D01*
X176314363Y-146725033D01*
X176225899Y-146932004D01*
X176225895Y-146932017D01*
X176175810Y-147151457D01*
X176175808Y-147151468D01*
X176170769Y-147263674D01*
X176165710Y-147376330D01*
X170599230Y-147376330D01*
X170604290Y-147263670D01*
X170574075Y-147040613D01*
X170504517Y-146826536D01*
X170397852Y-146628319D01*
X170257508Y-146452334D01*
X170087996Y-146304235D01*
X169894764Y-146188785D01*
X169776775Y-146144503D01*
X169684023Y-146109692D01*
X169462550Y-146069500D01*
X169462547Y-146069500D01*
X168493845Y-146069500D01*
X168455399Y-146072960D01*
X168325813Y-146084622D01*
X168325807Y-146084623D01*
X168108839Y-146144503D01*
X168108826Y-146144508D01*
X167906033Y-146242167D01*
X167906025Y-146242171D01*
X167723927Y-146374473D01*
X167723925Y-146374474D01*
X167568366Y-146537176D01*
X167444363Y-146725033D01*
X167355899Y-146932004D01*
X167355895Y-146932017D01*
X167305810Y-147151457D01*
X167305808Y-147151468D01*
X167300769Y-147263674D01*
X167295710Y-147376330D01*
X161689230Y-147376330D01*
X161694290Y-147263670D01*
X161664075Y-147040613D01*
X161594517Y-146826536D01*
X161487852Y-146628319D01*
X161347508Y-146452334D01*
X161177996Y-146304235D01*
X160984764Y-146188785D01*
X160866775Y-146144503D01*
X160774023Y-146109692D01*
X160552550Y-146069500D01*
X160552547Y-146069500D01*
X159583845Y-146069500D01*
X159545399Y-146072960D01*
X159415813Y-146084622D01*
X159415807Y-146084623D01*
X159198839Y-146144503D01*
X159198826Y-146144508D01*
X158996033Y-146242167D01*
X158996025Y-146242171D01*
X158813927Y-146374473D01*
X158813925Y-146374474D01*
X158658366Y-146537176D01*
X158534363Y-146725033D01*
X158445899Y-146932004D01*
X158445895Y-146932017D01*
X158395810Y-147151457D01*
X158395808Y-147151468D01*
X158390769Y-147263674D01*
X158385710Y-147376330D01*
X150259230Y-147376330D01*
X150264290Y-147263670D01*
X150234075Y-147040613D01*
X150164517Y-146826536D01*
X150057852Y-146628319D01*
X149917508Y-146452334D01*
X149747996Y-146304235D01*
X149554764Y-146188785D01*
X149436775Y-146144503D01*
X149344023Y-146109692D01*
X149122550Y-146069500D01*
X149122547Y-146069500D01*
X148153845Y-146069500D01*
X148115399Y-146072960D01*
X147985813Y-146084622D01*
X147985807Y-146084623D01*
X147768839Y-146144503D01*
X147768826Y-146144508D01*
X147566033Y-146242167D01*
X147566025Y-146242171D01*
X147383927Y-146374473D01*
X147383925Y-146374474D01*
X147228366Y-146537176D01*
X147104363Y-146725033D01*
X147015899Y-146932004D01*
X147015895Y-146932017D01*
X146965810Y-147151457D01*
X146965808Y-147151468D01*
X146960769Y-147263674D01*
X146955710Y-147376330D01*
X141389230Y-147376330D01*
X141394290Y-147263670D01*
X141364075Y-147040613D01*
X141294517Y-146826536D01*
X141187852Y-146628319D01*
X141047508Y-146452334D01*
X140877996Y-146304235D01*
X140684764Y-146188785D01*
X140566775Y-146144503D01*
X140474023Y-146109692D01*
X140252550Y-146069500D01*
X140252547Y-146069500D01*
X139283845Y-146069500D01*
X139245399Y-146072960D01*
X139115813Y-146084622D01*
X139115807Y-146084623D01*
X138898839Y-146144503D01*
X138898826Y-146144508D01*
X138696033Y-146242167D01*
X138696025Y-146242171D01*
X138513927Y-146374473D01*
X138513925Y-146374474D01*
X138358366Y-146537176D01*
X138234363Y-146725033D01*
X138145899Y-146932004D01*
X138145895Y-146932017D01*
X138095810Y-147151457D01*
X138095808Y-147151468D01*
X138090769Y-147263674D01*
X138085710Y-147376330D01*
X132519230Y-147376330D01*
X132524290Y-147263670D01*
X132494075Y-147040613D01*
X132424517Y-146826536D01*
X132317852Y-146628319D01*
X132177508Y-146452334D01*
X132007996Y-146304235D01*
X131814764Y-146188785D01*
X131696775Y-146144503D01*
X131604023Y-146109692D01*
X131382550Y-146069500D01*
X131382547Y-146069500D01*
X130413845Y-146069500D01*
X130375399Y-146072960D01*
X130245813Y-146084622D01*
X130245807Y-146084623D01*
X130028839Y-146144503D01*
X130028826Y-146144508D01*
X129826033Y-146242167D01*
X129826025Y-146242171D01*
X129643927Y-146374473D01*
X129643925Y-146374474D01*
X129488366Y-146537176D01*
X129364363Y-146725033D01*
X129275899Y-146932004D01*
X129275895Y-146932017D01*
X129225810Y-147151457D01*
X129225808Y-147151468D01*
X129220769Y-147263674D01*
X129215710Y-147376330D01*
X114325500Y-147376330D01*
X114325500Y-141576713D01*
X128617100Y-141576713D01*
X128632041Y-141671050D01*
X128632042Y-141671053D01*
X128632043Y-141671055D01*
X128689984Y-141784771D01*
X128702353Y-141797140D01*
X128735839Y-141858461D01*
X128738673Y-141884822D01*
X128738673Y-143530757D01*
X128737146Y-143550156D01*
X128734944Y-143564058D01*
X128738588Y-143633592D01*
X128738673Y-143636837D01*
X128738673Y-143658888D01*
X128739653Y-143668219D01*
X128740977Y-143680820D01*
X128741231Y-143684052D01*
X128744876Y-143753595D01*
X128748521Y-143767196D01*
X128752066Y-143786323D01*
X128753538Y-143800329D01*
X128753538Y-143800330D01*
X128775054Y-143866547D01*
X128775975Y-143869658D01*
X128793999Y-143936922D01*
X128794000Y-143936924D01*
X128800393Y-143949472D01*
X128807836Y-143967440D01*
X128812190Y-143980838D01*
X128812190Y-143980839D01*
X128847004Y-144041138D01*
X128848553Y-144043991D01*
X128880165Y-144106036D01*
X128889029Y-144116982D01*
X128900043Y-144133007D01*
X128907084Y-144145201D01*
X128907086Y-144145204D01*
X128907088Y-144145207D01*
X128930968Y-144171728D01*
X128953680Y-144196952D01*
X128955789Y-144199421D01*
X128969668Y-144216561D01*
X128985256Y-144232149D01*
X128987491Y-144234504D01*
X129034084Y-144286252D01*
X129034087Y-144286254D01*
X129045480Y-144294531D01*
X129060275Y-144307168D01*
X130114403Y-145361296D01*
X130127038Y-145376089D01*
X130135317Y-145387484D01*
X130135319Y-145387486D01*
X130187067Y-145434080D01*
X130189414Y-145436307D01*
X130205010Y-145451903D01*
X130221020Y-145464867D01*
X130222131Y-145465767D01*
X130224600Y-145467875D01*
X130276362Y-145514482D01*
X130276363Y-145514482D01*
X130276366Y-145514485D01*
X130288562Y-145521526D01*
X130304594Y-145532545D01*
X130315535Y-145541405D01*
X130315537Y-145541407D01*
X130377571Y-145573014D01*
X130380424Y-145574563D01*
X130403951Y-145588146D01*
X130440735Y-145609383D01*
X130454127Y-145613734D01*
X130472094Y-145621175D01*
X130484647Y-145627572D01*
X130551895Y-145645590D01*
X130554993Y-145646507D01*
X130621243Y-145668034D01*
X130635254Y-145669506D01*
X130654380Y-145673052D01*
X130664066Y-145675647D01*
X130667977Y-145676695D01*
X130737523Y-145680339D01*
X130740730Y-145680592D01*
X130762685Y-145682900D01*
X130784743Y-145682900D01*
X130787986Y-145682984D01*
X130857514Y-145686629D01*
X130871416Y-145684427D01*
X130890816Y-145682900D01*
X138349184Y-145682900D01*
X138368583Y-145684427D01*
X138382486Y-145686629D01*
X138452019Y-145682984D01*
X138455264Y-145682900D01*
X145969184Y-145682900D01*
X145988583Y-145684427D01*
X146002486Y-145686629D01*
X146072019Y-145682984D01*
X146075264Y-145682900D01*
X146097314Y-145682900D01*
X146097315Y-145682900D01*
X146119264Y-145680592D01*
X146122461Y-145680340D01*
X146192023Y-145676696D01*
X146205626Y-145673050D01*
X146224752Y-145669505D01*
X146238757Y-145668034D01*
X146305021Y-145646502D01*
X146308050Y-145645604D01*
X146375353Y-145627572D01*
X146387903Y-145621176D01*
X146405879Y-145613732D01*
X146405885Y-145613730D01*
X146419265Y-145609383D01*
X146479576Y-145574561D01*
X146482380Y-145573037D01*
X146544464Y-145541406D01*
X146555407Y-145532543D01*
X146571448Y-145521520D01*
X146583634Y-145514485D01*
X146635431Y-145467844D01*
X146637820Y-145465805D01*
X146654990Y-145451903D01*
X146670603Y-145436288D01*
X146672932Y-145434080D01*
X146724681Y-145387486D01*
X146732961Y-145376088D01*
X146745592Y-145361300D01*
X147941306Y-144165586D01*
X147956096Y-144152955D01*
X147967486Y-144144681D01*
X147967489Y-144144676D01*
X147967492Y-144144675D01*
X148002281Y-144106036D01*
X148014078Y-144092933D01*
X148016280Y-144090612D01*
X148031904Y-144074990D01*
X148045803Y-144057823D01*
X148047882Y-144055390D01*
X148060715Y-144041138D01*
X148094485Y-144003634D01*
X148101527Y-143991435D01*
X148112544Y-143975405D01*
X148121406Y-143964463D01*
X148153026Y-143902403D01*
X148154559Y-143899581D01*
X148161304Y-143887899D01*
X148189383Y-143839265D01*
X148193733Y-143825875D01*
X148201181Y-143807892D01*
X148207572Y-143795352D01*
X148225601Y-143728061D01*
X148226507Y-143725006D01*
X148248034Y-143658757D01*
X148249505Y-143644752D01*
X148253050Y-143625626D01*
X148256696Y-143612023D01*
X148260340Y-143542461D01*
X148260592Y-143539264D01*
X148262900Y-143517315D01*
X148262900Y-143495264D01*
X148262985Y-143492019D01*
X148263670Y-143478942D01*
X148266629Y-143422486D01*
X148264427Y-143408583D01*
X148262900Y-143389184D01*
X148262900Y-141862383D01*
X148282585Y-141795344D01*
X148286580Y-141789500D01*
X148290011Y-141784775D01*
X148290016Y-141784771D01*
X148347957Y-141671055D01*
X148347958Y-141671050D01*
X148362900Y-141576713D01*
X148362900Y-140063286D01*
X148347958Y-139968949D01*
X148347957Y-139968947D01*
X148347957Y-139968945D01*
X148290016Y-139855229D01*
X148290014Y-139855227D01*
X148290011Y-139855223D01*
X148199776Y-139764988D01*
X148199772Y-139764985D01*
X148199771Y-139764984D01*
X148086055Y-139707043D01*
X148086053Y-139707042D01*
X148086050Y-139707041D01*
X147991713Y-139692100D01*
X147991708Y-139692100D01*
X146728292Y-139692100D01*
X146728287Y-139692100D01*
X146633949Y-139707041D01*
X146520227Y-139764985D01*
X146520223Y-139764988D01*
X146429988Y-139855223D01*
X146429985Y-139855227D01*
X146372041Y-139968949D01*
X146357100Y-140063286D01*
X146357100Y-141576713D01*
X146372041Y-141671050D01*
X146372042Y-141671053D01*
X146372043Y-141671055D01*
X146422011Y-141769123D01*
X146429985Y-141784772D01*
X146433420Y-141789500D01*
X146456898Y-141855307D01*
X146457100Y-141862383D01*
X146457100Y-143044644D01*
X146437415Y-143111683D01*
X146420781Y-143132325D01*
X145712326Y-143840781D01*
X145651003Y-143874266D01*
X145624645Y-143877100D01*
X139516900Y-143877100D01*
X139449861Y-143857415D01*
X139404106Y-143804611D01*
X139392900Y-143753100D01*
X139392900Y-141862383D01*
X139412585Y-141795344D01*
X139416580Y-141789500D01*
X139420011Y-141784775D01*
X139420016Y-141784771D01*
X139477957Y-141671055D01*
X139477958Y-141671050D01*
X139492900Y-141576713D01*
X139492900Y-140063286D01*
X139477958Y-139968949D01*
X139477957Y-139968947D01*
X139477957Y-139968945D01*
X139420016Y-139855229D01*
X139420014Y-139855227D01*
X139420011Y-139855223D01*
X139329776Y-139764988D01*
X139329772Y-139764985D01*
X139329771Y-139764984D01*
X139216055Y-139707043D01*
X139216053Y-139707042D01*
X139216050Y-139707041D01*
X139121713Y-139692100D01*
X139121708Y-139692100D01*
X137858292Y-139692100D01*
X137858287Y-139692100D01*
X137763949Y-139707041D01*
X137650227Y-139764985D01*
X137650223Y-139764988D01*
X137559988Y-139855223D01*
X137559985Y-139855227D01*
X137502041Y-139968949D01*
X137487100Y-140063286D01*
X137487100Y-141576713D01*
X137502041Y-141671050D01*
X137502042Y-141671053D01*
X137502043Y-141671055D01*
X137552011Y-141769123D01*
X137559985Y-141784772D01*
X137563420Y-141789500D01*
X137586898Y-141855307D01*
X137587100Y-141862383D01*
X137587100Y-143753100D01*
X137567415Y-143820139D01*
X137514611Y-143865894D01*
X137463100Y-143877100D01*
X131235355Y-143877100D01*
X131168316Y-143857415D01*
X131147674Y-143840781D01*
X130870951Y-143564058D01*
X130580789Y-143273896D01*
X130547306Y-143212576D01*
X130544473Y-143186227D01*
X130544473Y-141825418D01*
X130557987Y-141769126D01*
X130607957Y-141671055D01*
X130607958Y-141671050D01*
X130622900Y-141576713D01*
X130622900Y-140995862D01*
X131117100Y-140995862D01*
X131132562Y-141147924D01*
X131193620Y-141342530D01*
X131193623Y-141342536D01*
X131193624Y-141342539D01*
X131244511Y-141434218D01*
X131292612Y-141520880D01*
X131292612Y-141520881D01*
X131421533Y-141671055D01*
X131425472Y-141675643D01*
X131586766Y-141800495D01*
X131769891Y-141890322D01*
X131967350Y-141941447D01*
X132171058Y-141951778D01*
X132372676Y-141920891D01*
X132563949Y-141850052D01*
X132737047Y-141742159D01*
X132884883Y-141601630D01*
X133001404Y-141434219D01*
X133081841Y-141246780D01*
X133122900Y-141046985D01*
X133122900Y-140644139D01*
X133107437Y-140492077D01*
X133107437Y-140492075D01*
X133046379Y-140297469D01*
X133046377Y-140297465D01*
X133046376Y-140297461D01*
X133038481Y-140283236D01*
X133022900Y-140223062D01*
X133022900Y-138815354D01*
X133042585Y-138748315D01*
X133059219Y-138727674D01*
X133687675Y-138099219D01*
X133748998Y-138065734D01*
X133775356Y-138062900D01*
X139963100Y-138062900D01*
X140030139Y-138082585D01*
X140075894Y-138135389D01*
X140087100Y-138186900D01*
X140087100Y-140230388D01*
X140077051Y-140279288D01*
X140028159Y-140393219D01*
X139987100Y-140593014D01*
X139987100Y-140995862D01*
X140002562Y-141147924D01*
X140063620Y-141342530D01*
X140063623Y-141342536D01*
X140063624Y-141342539D01*
X140114511Y-141434218D01*
X140162612Y-141520880D01*
X140162612Y-141520881D01*
X140291533Y-141671055D01*
X140295472Y-141675643D01*
X140456766Y-141800495D01*
X140639891Y-141890322D01*
X140837350Y-141941447D01*
X141041058Y-141951778D01*
X141242676Y-141920891D01*
X141433949Y-141850052D01*
X141607047Y-141742159D01*
X141754883Y-141601630D01*
X141871404Y-141434219D01*
X141951841Y-141246780D01*
X141992900Y-141046985D01*
X141992900Y-140644139D01*
X141977437Y-140492077D01*
X141977437Y-140492075D01*
X141916379Y-140297469D01*
X141916377Y-140297465D01*
X141916376Y-140297461D01*
X141908481Y-140283236D01*
X141892900Y-140223059D01*
X141892900Y-138186900D01*
X141912585Y-138119861D01*
X141965389Y-138074106D01*
X142016900Y-138062900D01*
X146894645Y-138062900D01*
X146961684Y-138082585D01*
X146982326Y-138099219D01*
X148920781Y-140037674D01*
X148954266Y-140098997D01*
X148957100Y-140125355D01*
X148957100Y-140230388D01*
X148947051Y-140279288D01*
X148898159Y-140393219D01*
X148857100Y-140593014D01*
X148857100Y-140995862D01*
X148872562Y-141147924D01*
X148933620Y-141342530D01*
X148933623Y-141342536D01*
X148933624Y-141342539D01*
X148984511Y-141434218D01*
X149032612Y-141520880D01*
X149032612Y-141520881D01*
X149161533Y-141671055D01*
X149165472Y-141675643D01*
X149326766Y-141800495D01*
X149509891Y-141890322D01*
X149707350Y-141941447D01*
X149911058Y-141951778D01*
X150112676Y-141920891D01*
X150303949Y-141850052D01*
X150477047Y-141742159D01*
X150624883Y-141601630D01*
X150741404Y-141434219D01*
X150821841Y-141246780D01*
X150862900Y-141046985D01*
X150862900Y-140644139D01*
X150847437Y-140492077D01*
X150847437Y-140492075D01*
X150786379Y-140297469D01*
X150786377Y-140297465D01*
X150786376Y-140297461D01*
X150778481Y-140283236D01*
X150762900Y-140223059D01*
X150762900Y-139780815D01*
X150764427Y-139761414D01*
X150766629Y-139747514D01*
X150762984Y-139677987D01*
X150762900Y-139674742D01*
X150762900Y-139652686D01*
X150762899Y-139652678D01*
X150760593Y-139630739D01*
X150760339Y-139627523D01*
X150756695Y-139557977D01*
X150753052Y-139544380D01*
X150749506Y-139525254D01*
X150748034Y-139511243D01*
X150726507Y-139444993D01*
X150725587Y-139441884D01*
X150707573Y-139374651D01*
X150707572Y-139374647D01*
X150701175Y-139362094D01*
X150693734Y-139344127D01*
X150689383Y-139330735D01*
X150668146Y-139293951D01*
X150654563Y-139270424D01*
X150653014Y-139267571D01*
X150621407Y-139205537D01*
X150621405Y-139205535D01*
X150612545Y-139194594D01*
X150601526Y-139178562D01*
X150594485Y-139166366D01*
X150594482Y-139166363D01*
X150594482Y-139166362D01*
X150547875Y-139114600D01*
X150545767Y-139112131D01*
X150544867Y-139111020D01*
X150531903Y-139095010D01*
X150516316Y-139079423D01*
X150514080Y-139077067D01*
X150467486Y-139025319D01*
X150467484Y-139025317D01*
X150456089Y-139017038D01*
X150441296Y-139004403D01*
X148015595Y-136578702D01*
X148002958Y-136563906D01*
X147994681Y-136552514D01*
X147994680Y-136552513D01*
X147994679Y-136552511D01*
X147942931Y-136505918D01*
X147940576Y-136503683D01*
X147924988Y-136488095D01*
X147907848Y-136474216D01*
X147905379Y-136472107D01*
X147853634Y-136425515D01*
X147853631Y-136425513D01*
X147853628Y-136425511D01*
X147841434Y-136418470D01*
X147825409Y-136407456D01*
X147814463Y-136398592D01*
X147752418Y-136366980D01*
X147749565Y-136365431D01*
X147689265Y-136330617D01*
X147675867Y-136326263D01*
X147657899Y-136318820D01*
X147645351Y-136312427D01*
X147645349Y-136312426D01*
X147578085Y-136294402D01*
X147574974Y-136293481D01*
X147508757Y-136271965D01*
X147494750Y-136270493D01*
X147475623Y-136266948D01*
X147462022Y-136263303D01*
X147392479Y-136259658D01*
X147389247Y-136259404D01*
X147376646Y-136258080D01*
X147367315Y-136257100D01*
X147367310Y-136257100D01*
X147345264Y-136257100D01*
X147342019Y-136257015D01*
X147272486Y-136253371D01*
X147272485Y-136253371D01*
X147258583Y-136255573D01*
X147239184Y-136257100D01*
X141996900Y-136257100D01*
X141929861Y-136237415D01*
X141884106Y-136184611D01*
X141872900Y-136133100D01*
X141872900Y-122085377D01*
X141873240Y-122078892D01*
X141877714Y-122036315D01*
X141889940Y-121920000D01*
X142590060Y-121920000D01*
X142610163Y-122111268D01*
X142610164Y-122111270D01*
X142669590Y-122294167D01*
X142669593Y-122294173D01*
X142765752Y-122460726D01*
X142818695Y-122519526D01*
X142894440Y-122603649D01*
X142934273Y-122632589D01*
X143050025Y-122716688D01*
X143050030Y-122716691D01*
X143225717Y-122794913D01*
X143225723Y-122794915D01*
X143413840Y-122834900D01*
X143413841Y-122834900D01*
X143606159Y-122834900D01*
X143606160Y-122834900D01*
X143794277Y-122794915D01*
X143794279Y-122794913D01*
X143794282Y-122794913D01*
X143853461Y-122768564D01*
X143969970Y-122716691D01*
X144125560Y-122603649D01*
X144254247Y-122460727D01*
X144350407Y-122294173D01*
X144409837Y-122111266D01*
X144429940Y-121920000D01*
X145130060Y-121920000D01*
X145150163Y-122111268D01*
X145150164Y-122111270D01*
X145209590Y-122294167D01*
X145209593Y-122294173D01*
X145305752Y-122460726D01*
X145358695Y-122519526D01*
X145434440Y-122603649D01*
X145474273Y-122632589D01*
X145590025Y-122716688D01*
X145590030Y-122716691D01*
X145765717Y-122794913D01*
X145765723Y-122794915D01*
X145953840Y-122834900D01*
X145953841Y-122834900D01*
X146146159Y-122834900D01*
X146146160Y-122834900D01*
X146334277Y-122794915D01*
X146334279Y-122794913D01*
X146334282Y-122794913D01*
X146393461Y-122768564D01*
X146509970Y-122716691D01*
X146665560Y-122603649D01*
X146794247Y-122460727D01*
X146890407Y-122294173D01*
X146949837Y-122111266D01*
X146969940Y-121920000D01*
X146949837Y-121728734D01*
X146890407Y-121545827D01*
X146794247Y-121379273D01*
X146777000Y-121360118D01*
X146665564Y-121236355D01*
X146665562Y-121236353D01*
X146665560Y-121236351D01*
X146587754Y-121179822D01*
X146509974Y-121123311D01*
X146509969Y-121123308D01*
X146334282Y-121045086D01*
X146334276Y-121045084D01*
X146186143Y-121013598D01*
X146146160Y-121005100D01*
X145953840Y-121005100D01*
X145920864Y-121012108D01*
X145765723Y-121045084D01*
X145765717Y-121045086D01*
X145590030Y-121123308D01*
X145590025Y-121123311D01*
X145434441Y-121236350D01*
X145434435Y-121236355D01*
X145305752Y-121379273D01*
X145209593Y-121545826D01*
X145209590Y-121545832D01*
X145150164Y-121728729D01*
X145150163Y-121728731D01*
X145130060Y-121920000D01*
X144429940Y-121920000D01*
X144409837Y-121728734D01*
X144350407Y-121545827D01*
X144254247Y-121379273D01*
X144237000Y-121360118D01*
X144125564Y-121236355D01*
X144125562Y-121236353D01*
X144125560Y-121236351D01*
X144047754Y-121179822D01*
X143969974Y-121123311D01*
X143969969Y-121123308D01*
X143794282Y-121045086D01*
X143794276Y-121045084D01*
X143646143Y-121013598D01*
X143606160Y-121005100D01*
X143413840Y-121005100D01*
X143380864Y-121012108D01*
X143225723Y-121045084D01*
X143225717Y-121045086D01*
X143050030Y-121123308D01*
X143050025Y-121123311D01*
X142894441Y-121236350D01*
X142894435Y-121236355D01*
X142765752Y-121379273D01*
X142669593Y-121545826D01*
X142669590Y-121545832D01*
X142610164Y-121728729D01*
X142610163Y-121728731D01*
X142590060Y-121920000D01*
X141889940Y-121920000D01*
X141879314Y-121818909D01*
X141873240Y-121761106D01*
X141872900Y-121754621D01*
X141872900Y-117265355D01*
X141892585Y-117198316D01*
X141909219Y-117177674D01*
X142577674Y-116509219D01*
X142638997Y-116475734D01*
X142665355Y-116472900D01*
X145725426Y-116472900D01*
X145761421Y-116478239D01*
X145863199Y-116509113D01*
X146050000Y-116527511D01*
X146236801Y-116509113D01*
X146416424Y-116454625D01*
X146416428Y-116454623D01*
X146581959Y-116366145D01*
X146581961Y-116366142D01*
X146581965Y-116366141D01*
X146727063Y-116247063D01*
X146846141Y-116101965D01*
X146846142Y-116101961D01*
X146846145Y-116101959D01*
X146934623Y-115936428D01*
X146934623Y-115936427D01*
X146934625Y-115936424D01*
X146989113Y-115756801D01*
X147007511Y-115570000D01*
X146989113Y-115383199D01*
X146934625Y-115203576D01*
X146934623Y-115203573D01*
X146934623Y-115203571D01*
X146846145Y-115038040D01*
X146846140Y-115038034D01*
X146727063Y-114892936D01*
X146581965Y-114773859D01*
X146581959Y-114773854D01*
X146416428Y-114685376D01*
X146236799Y-114630886D01*
X146050000Y-114612489D01*
X145863200Y-114630886D01*
X145761421Y-114661761D01*
X145725426Y-114667100D01*
X142320816Y-114667100D01*
X142301416Y-114665573D01*
X142287515Y-114663371D01*
X142287514Y-114663371D01*
X142217986Y-114667015D01*
X142214743Y-114667100D01*
X142192685Y-114667100D01*
X142175599Y-114668895D01*
X142170745Y-114669405D01*
X142167514Y-114669659D01*
X142097980Y-114673304D01*
X142097975Y-114673305D01*
X142084369Y-114676950D01*
X142065256Y-114680492D01*
X142051244Y-114681965D01*
X142051238Y-114681966D01*
X141985018Y-114703483D01*
X141981907Y-114704404D01*
X141914648Y-114722427D01*
X141902094Y-114728823D01*
X141884132Y-114736263D01*
X141870737Y-114740616D01*
X141810432Y-114775431D01*
X141807581Y-114776979D01*
X141745540Y-114808591D01*
X141745539Y-114808591D01*
X141734588Y-114817459D01*
X141718560Y-114828474D01*
X141706367Y-114835513D01*
X141654623Y-114882104D01*
X141652157Y-114884210D01*
X141635003Y-114898102D01*
X141619409Y-114913696D01*
X141617057Y-114915927D01*
X141565316Y-114962516D01*
X141557039Y-114973909D01*
X141544405Y-114988700D01*
X140388700Y-116144405D01*
X140373909Y-116157039D01*
X140362516Y-116165316D01*
X140315927Y-116217057D01*
X140313696Y-116219409D01*
X140298102Y-116235003D01*
X140284210Y-116252157D01*
X140282104Y-116254623D01*
X140235513Y-116306367D01*
X140228474Y-116318560D01*
X140217459Y-116334588D01*
X140208591Y-116345539D01*
X140208591Y-116345540D01*
X140176979Y-116407581D01*
X140175431Y-116410432D01*
X140140616Y-116470737D01*
X140136263Y-116484132D01*
X140128823Y-116502094D01*
X140122427Y-116514648D01*
X140104401Y-116581918D01*
X140103480Y-116585029D01*
X140081967Y-116651238D01*
X140081966Y-116651240D01*
X140081966Y-116651243D01*
X140080494Y-116665246D01*
X140076949Y-116684372D01*
X140073303Y-116697976D01*
X140069658Y-116767519D01*
X140069404Y-116770750D01*
X140067100Y-116792687D01*
X140067100Y-116814735D01*
X140067015Y-116817980D01*
X140063371Y-116887513D01*
X140065573Y-116901414D01*
X140067100Y-116920815D01*
X140067100Y-121754621D01*
X140066760Y-121761106D01*
X140050060Y-121919999D01*
X140066760Y-122078892D01*
X140067100Y-122085377D01*
X140067100Y-136133100D01*
X140047415Y-136200139D01*
X139994611Y-136245894D01*
X139943100Y-136257100D01*
X133430816Y-136257100D01*
X133411417Y-136255573D01*
X133397514Y-136253371D01*
X133355497Y-136255573D01*
X133327981Y-136257015D01*
X133324736Y-136257100D01*
X133302685Y-136257100D01*
X133298631Y-136257525D01*
X133280750Y-136259404D01*
X133277519Y-136259658D01*
X133207976Y-136263303D01*
X133194372Y-136266949D01*
X133175251Y-136270493D01*
X133161243Y-136271966D01*
X133161240Y-136271966D01*
X133161238Y-136271967D01*
X133095026Y-136293481D01*
X133091915Y-136294402D01*
X133024651Y-136312426D01*
X133024649Y-136312427D01*
X133012097Y-136318822D01*
X132994136Y-136326262D01*
X132980732Y-136330617D01*
X132980728Y-136330619D01*
X132920426Y-136365434D01*
X132917575Y-136366982D01*
X132855541Y-136398590D01*
X132855541Y-136398591D01*
X132844590Y-136407458D01*
X132828564Y-136418471D01*
X132816371Y-136425511D01*
X132816367Y-136425513D01*
X132764625Y-136472101D01*
X132762159Y-136474207D01*
X132745025Y-136488082D01*
X132745002Y-136488103D01*
X132729398Y-136503705D01*
X132727048Y-136505935D01*
X132675318Y-136552513D01*
X132667041Y-136563906D01*
X132654407Y-136578697D01*
X131538701Y-137694404D01*
X131523914Y-137707035D01*
X131512514Y-137715318D01*
X131512512Y-137715320D01*
X131465928Y-137767057D01*
X131463695Y-137769411D01*
X131448098Y-137785008D01*
X131434210Y-137802157D01*
X131432104Y-137804623D01*
X131385513Y-137856367D01*
X131378474Y-137868560D01*
X131367459Y-137884588D01*
X131358591Y-137895539D01*
X131358591Y-137895540D01*
X131326979Y-137957581D01*
X131325431Y-137960432D01*
X131290616Y-138020737D01*
X131286263Y-138034132D01*
X131278823Y-138052094D01*
X131272427Y-138064648D01*
X131254401Y-138131918D01*
X131253480Y-138135029D01*
X131231967Y-138201238D01*
X131231966Y-138201240D01*
X131231966Y-138201243D01*
X131230493Y-138215251D01*
X131226949Y-138234372D01*
X131223303Y-138247976D01*
X131219658Y-138317519D01*
X131219404Y-138320750D01*
X131217100Y-138342686D01*
X131217099Y-138342692D01*
X131217099Y-138364739D01*
X131217014Y-138367980D01*
X131213370Y-138437512D01*
X131215573Y-138451419D01*
X131217099Y-138470813D01*
X131217099Y-140230388D01*
X131207050Y-140279287D01*
X131158159Y-140393217D01*
X131117100Y-140593014D01*
X131117100Y-140995862D01*
X130622900Y-140995862D01*
X130622900Y-140063286D01*
X130607958Y-139968949D01*
X130607957Y-139968947D01*
X130607957Y-139968945D01*
X130550016Y-139855229D01*
X130550014Y-139855227D01*
X130550011Y-139855221D01*
X130546578Y-139850495D01*
X130523102Y-139784688D01*
X130522900Y-139777616D01*
X130522900Y-136235354D01*
X130542585Y-136168315D01*
X130559214Y-136147678D01*
X139011301Y-127695590D01*
X139026088Y-127682961D01*
X139037486Y-127674681D01*
X139084086Y-127622924D01*
X139086288Y-127620603D01*
X139101903Y-127604990D01*
X139115805Y-127587820D01*
X139117844Y-127585431D01*
X139164485Y-127533634D01*
X139171520Y-127521447D01*
X139182546Y-127505404D01*
X139191406Y-127494464D01*
X139223037Y-127432380D01*
X139224561Y-127429576D01*
X139259383Y-127369265D01*
X139263732Y-127355878D01*
X139271176Y-127337903D01*
X139277572Y-127325353D01*
X139295603Y-127258056D01*
X139296497Y-127255037D01*
X139318034Y-127188757D01*
X139319506Y-127174752D01*
X139323054Y-127155609D01*
X139326694Y-127142025D01*
X139326695Y-127142023D01*
X139330339Y-127072478D01*
X139330593Y-127069261D01*
X139332899Y-127047321D01*
X139332900Y-127047314D01*
X139332900Y-127025256D01*
X139332985Y-127022010D01*
X139333745Y-127007513D01*
X139336629Y-126952486D01*
X139334427Y-126938583D01*
X139332900Y-126919184D01*
X139332900Y-122085377D01*
X139333240Y-122078892D01*
X139337714Y-122036315D01*
X139349940Y-121920000D01*
X139339314Y-121818909D01*
X139333240Y-121761106D01*
X139332900Y-121754621D01*
X139332900Y-116920815D01*
X139334427Y-116901414D01*
X139336629Y-116887514D01*
X139332985Y-116817980D01*
X139332900Y-116814742D01*
X139332900Y-116792686D01*
X139332899Y-116792678D01*
X139330593Y-116770739D01*
X139330339Y-116767523D01*
X139326695Y-116697977D01*
X139323052Y-116684380D01*
X139319506Y-116665254D01*
X139318034Y-116651243D01*
X139296507Y-116584993D01*
X139295587Y-116581884D01*
X139277573Y-116514651D01*
X139277572Y-116514647D01*
X139271175Y-116502094D01*
X139263734Y-116484127D01*
X139259383Y-116470735D01*
X139238146Y-116433951D01*
X139224563Y-116410424D01*
X139223014Y-116407571D01*
X139191407Y-116345537D01*
X139191405Y-116345535D01*
X139182545Y-116334594D01*
X139171525Y-116318560D01*
X139164485Y-116306366D01*
X139164482Y-116306363D01*
X139164482Y-116306362D01*
X139117875Y-116254600D01*
X139115767Y-116252131D01*
X139111663Y-116247063D01*
X139101903Y-116235010D01*
X139086316Y-116219423D01*
X139084080Y-116217067D01*
X139037486Y-116165319D01*
X139037484Y-116165317D01*
X139026089Y-116157038D01*
X139011296Y-116144403D01*
X137855595Y-114988702D01*
X137842958Y-114973907D01*
X137836761Y-114965377D01*
X137834679Y-114962511D01*
X137782931Y-114915918D01*
X137780576Y-114913683D01*
X137764988Y-114898095D01*
X137747848Y-114884216D01*
X137745379Y-114882107D01*
X137724461Y-114863272D01*
X137693634Y-114835515D01*
X137693631Y-114835513D01*
X137693628Y-114835511D01*
X137681434Y-114828470D01*
X137665409Y-114817456D01*
X137654463Y-114808592D01*
X137592418Y-114776980D01*
X137589565Y-114775431D01*
X137529265Y-114740617D01*
X137515867Y-114736263D01*
X137497899Y-114728820D01*
X137485351Y-114722427D01*
X137485349Y-114722426D01*
X137418085Y-114704402D01*
X137414974Y-114703481D01*
X137348757Y-114681965D01*
X137334750Y-114680493D01*
X137315623Y-114676948D01*
X137302022Y-114673303D01*
X137232479Y-114669658D01*
X137229247Y-114669404D01*
X137216646Y-114668080D01*
X137207315Y-114667100D01*
X137207310Y-114667100D01*
X137185264Y-114667100D01*
X137182019Y-114667015D01*
X137112486Y-114663371D01*
X137112485Y-114663371D01*
X137098583Y-114665573D01*
X137079184Y-114667100D01*
X136214574Y-114667100D01*
X136178579Y-114661761D01*
X136076799Y-114630886D01*
X135890000Y-114612489D01*
X135703200Y-114630886D01*
X135523571Y-114685376D01*
X135358040Y-114773854D01*
X135358034Y-114773859D01*
X135212936Y-114892936D01*
X135093859Y-115038034D01*
X135093854Y-115038040D01*
X135005376Y-115203571D01*
X134950886Y-115383200D01*
X134932489Y-115570000D01*
X134950886Y-115756799D01*
X135005376Y-115936428D01*
X135093854Y-116101959D01*
X135093859Y-116101965D01*
X135212936Y-116247063D01*
X135358034Y-116366140D01*
X135358040Y-116366145D01*
X135523571Y-116454623D01*
X135523573Y-116454623D01*
X135523576Y-116454625D01*
X135703199Y-116509113D01*
X135890000Y-116527511D01*
X136076801Y-116509113D01*
X136178578Y-116478239D01*
X136214574Y-116472900D01*
X136734645Y-116472900D01*
X136801684Y-116492585D01*
X136822326Y-116509219D01*
X137490781Y-117177674D01*
X137524266Y-117238997D01*
X137527100Y-117265355D01*
X137527100Y-121754621D01*
X137526760Y-121761106D01*
X137510060Y-121919999D01*
X137526760Y-122078892D01*
X137527100Y-122085377D01*
X137527100Y-126574643D01*
X137507415Y-126641682D01*
X137490781Y-126662324D01*
X129038700Y-135114405D01*
X129023909Y-135127039D01*
X129012516Y-135135316D01*
X128965927Y-135187057D01*
X128963696Y-135189409D01*
X128948102Y-135205003D01*
X128934210Y-135222157D01*
X128932104Y-135224623D01*
X128885513Y-135276367D01*
X128878474Y-135288560D01*
X128867459Y-135304588D01*
X128858591Y-135315539D01*
X128858591Y-135315540D01*
X128826979Y-135377581D01*
X128825431Y-135380432D01*
X128790616Y-135440737D01*
X128786263Y-135454132D01*
X128778823Y-135472094D01*
X128772427Y-135484648D01*
X128754401Y-135551918D01*
X128753480Y-135555029D01*
X128731967Y-135621238D01*
X128731966Y-135621240D01*
X128731966Y-135621243D01*
X128730493Y-135635251D01*
X128726949Y-135654372D01*
X128723303Y-135667976D01*
X128719658Y-135737519D01*
X128719404Y-135740750D01*
X128717100Y-135762686D01*
X128717099Y-135762692D01*
X128717099Y-135784739D01*
X128717014Y-135787980D01*
X128713371Y-135857513D01*
X128715573Y-135871414D01*
X128717100Y-135890815D01*
X128717100Y-139777616D01*
X128697415Y-139844655D01*
X128693422Y-139850495D01*
X128689988Y-139855221D01*
X128632041Y-139968949D01*
X128617100Y-140063286D01*
X128617100Y-141576713D01*
X114325500Y-141576713D01*
X114325500Y-129540000D01*
X117102247Y-129540000D01*
X117121610Y-129736599D01*
X117121610Y-129736601D01*
X117121611Y-129736603D01*
X117178958Y-129925650D01*
X117272084Y-130099878D01*
X117272086Y-130099881D01*
X117397410Y-130252589D01*
X117550118Y-130377913D01*
X117550122Y-130377916D01*
X117724350Y-130471042D01*
X117913397Y-130528389D01*
X118110000Y-130547753D01*
X118306603Y-130528389D01*
X118495650Y-130471042D01*
X118669878Y-130377916D01*
X118822589Y-130252589D01*
X118947916Y-130099878D01*
X119041042Y-129925650D01*
X119098389Y-129736603D01*
X119117753Y-129540000D01*
X119642247Y-129540000D01*
X119661610Y-129736599D01*
X119661610Y-129736601D01*
X119661611Y-129736603D01*
X119718958Y-129925650D01*
X119812084Y-130099878D01*
X119812086Y-130099881D01*
X119937410Y-130252589D01*
X120090118Y-130377913D01*
X120090122Y-130377916D01*
X120264350Y-130471042D01*
X120453397Y-130528389D01*
X120650000Y-130547753D01*
X120846603Y-130528389D01*
X121035650Y-130471042D01*
X121209878Y-130377916D01*
X121362589Y-130252589D01*
X121487916Y-130099878D01*
X121581042Y-129925650D01*
X121638389Y-129736603D01*
X121657753Y-129540000D01*
X121638389Y-129343397D01*
X121581042Y-129154350D01*
X121487916Y-128980122D01*
X121487913Y-128980118D01*
X121362589Y-128827410D01*
X121209881Y-128702086D01*
X121209879Y-128702085D01*
X121209878Y-128702084D01*
X121035650Y-128608958D01*
X120846603Y-128551611D01*
X120846601Y-128551610D01*
X120846599Y-128551610D01*
X120650000Y-128532247D01*
X120453400Y-128551610D01*
X120264350Y-128608958D01*
X120090118Y-128702086D01*
X119937410Y-128827410D01*
X119812086Y-128980118D01*
X119718958Y-129154350D01*
X119661610Y-129343400D01*
X119642247Y-129540000D01*
X119117753Y-129540000D01*
X119098389Y-129343397D01*
X119041042Y-129154350D01*
X118947916Y-128980122D01*
X118947913Y-128980118D01*
X118822589Y-128827410D01*
X118669881Y-128702086D01*
X118669879Y-128702085D01*
X118669878Y-128702084D01*
X118495650Y-128608958D01*
X118306603Y-128551611D01*
X118306601Y-128551610D01*
X118306599Y-128551610D01*
X118137483Y-128534953D01*
X118110000Y-128532247D01*
X118109999Y-128532247D01*
X117913400Y-128551610D01*
X117724350Y-128608958D01*
X117550118Y-128702086D01*
X117397410Y-128827410D01*
X117272086Y-128980118D01*
X117178958Y-129154350D01*
X117121610Y-129343400D01*
X117102247Y-129540000D01*
X114325500Y-129540000D01*
X114325500Y-126999999D01*
X117102247Y-126999999D01*
X117121610Y-127196599D01*
X117121610Y-127196601D01*
X117121611Y-127196603D01*
X117178958Y-127385650D01*
X117272084Y-127559878D01*
X117272086Y-127559881D01*
X117397410Y-127712589D01*
X117550118Y-127837913D01*
X117550122Y-127837916D01*
X117724350Y-127931042D01*
X117913397Y-127988389D01*
X118110000Y-128007753D01*
X118306603Y-127988389D01*
X118495650Y-127931042D01*
X118669878Y-127837916D01*
X118822589Y-127712589D01*
X118947916Y-127559878D01*
X119041042Y-127385650D01*
X119098389Y-127196603D01*
X119117753Y-127000000D01*
X119642247Y-127000000D01*
X119661610Y-127196599D01*
X119661610Y-127196601D01*
X119661611Y-127196603D01*
X119718958Y-127385650D01*
X119812084Y-127559878D01*
X119812086Y-127559881D01*
X119937410Y-127712589D01*
X120090118Y-127837913D01*
X120090122Y-127837916D01*
X120264350Y-127931042D01*
X120453397Y-127988389D01*
X120650000Y-128007753D01*
X120846603Y-127988389D01*
X121035650Y-127931042D01*
X121209878Y-127837916D01*
X121362589Y-127712589D01*
X121487916Y-127559878D01*
X121581042Y-127385650D01*
X121638389Y-127196603D01*
X121657753Y-127000000D01*
X121638389Y-126803397D01*
X121581042Y-126614350D01*
X121487916Y-126440122D01*
X121475992Y-126425592D01*
X121362589Y-126287410D01*
X121209881Y-126162086D01*
X121209879Y-126162085D01*
X121209878Y-126162084D01*
X121035650Y-126068958D01*
X120846603Y-126011611D01*
X120846601Y-126011610D01*
X120846599Y-126011610D01*
X120650000Y-125992247D01*
X120453400Y-126011610D01*
X120264350Y-126068958D01*
X120090118Y-126162086D01*
X119937410Y-126287410D01*
X119812086Y-126440118D01*
X119718958Y-126614350D01*
X119661610Y-126803400D01*
X119642247Y-127000000D01*
X119117753Y-127000000D01*
X119098389Y-126803397D01*
X119041042Y-126614350D01*
X118947916Y-126440122D01*
X118935992Y-126425592D01*
X118822589Y-126287410D01*
X118669881Y-126162086D01*
X118669879Y-126162085D01*
X118669878Y-126162084D01*
X118495650Y-126068958D01*
X118306603Y-126011611D01*
X118306601Y-126011610D01*
X118306599Y-126011610D01*
X118137483Y-125994953D01*
X118110000Y-125992247D01*
X118109999Y-125992247D01*
X117913400Y-126011610D01*
X117724350Y-126068958D01*
X117550118Y-126162086D01*
X117397410Y-126287410D01*
X117272086Y-126440118D01*
X117178958Y-126614350D01*
X117121610Y-126803400D01*
X117102247Y-126999999D01*
X114325500Y-126999999D01*
X114325500Y-124460000D01*
X117102247Y-124460000D01*
X117121610Y-124656599D01*
X117121610Y-124656601D01*
X117121611Y-124656603D01*
X117178958Y-124845650D01*
X117272084Y-125019878D01*
X117272086Y-125019881D01*
X117397410Y-125172589D01*
X117550118Y-125297913D01*
X117550122Y-125297916D01*
X117724350Y-125391042D01*
X117913397Y-125448389D01*
X118110000Y-125467753D01*
X118306603Y-125448389D01*
X118495650Y-125391042D01*
X118669878Y-125297916D01*
X118822589Y-125172589D01*
X118947916Y-125019878D01*
X119041042Y-124845650D01*
X119098389Y-124656603D01*
X119117753Y-124460000D01*
X119642247Y-124460000D01*
X119661610Y-124656599D01*
X119661610Y-124656601D01*
X119661611Y-124656603D01*
X119718958Y-124845650D01*
X119812084Y-125019878D01*
X119812086Y-125019881D01*
X119937410Y-125172589D01*
X120090118Y-125297913D01*
X120090122Y-125297916D01*
X120264350Y-125391042D01*
X120453397Y-125448389D01*
X120650000Y-125467753D01*
X120846603Y-125448389D01*
X121035650Y-125391042D01*
X121209878Y-125297916D01*
X121362589Y-125172589D01*
X121487916Y-125019878D01*
X121581042Y-124845650D01*
X121638389Y-124656603D01*
X121657753Y-124460000D01*
X121638389Y-124263397D01*
X121581042Y-124074350D01*
X121487916Y-123900122D01*
X121487913Y-123900118D01*
X121362589Y-123747410D01*
X121209881Y-123622086D01*
X121209879Y-123622085D01*
X121209878Y-123622084D01*
X121035650Y-123528958D01*
X120846603Y-123471611D01*
X120846601Y-123471610D01*
X120846599Y-123471610D01*
X120650000Y-123452247D01*
X120453400Y-123471610D01*
X120264350Y-123528958D01*
X120090118Y-123622086D01*
X119937410Y-123747410D01*
X119812086Y-123900118D01*
X119718958Y-124074350D01*
X119661610Y-124263400D01*
X119642247Y-124460000D01*
X119117753Y-124460000D01*
X119098389Y-124263397D01*
X119041042Y-124074350D01*
X118947916Y-123900122D01*
X118947913Y-123900118D01*
X118822589Y-123747410D01*
X118669881Y-123622086D01*
X118669879Y-123622085D01*
X118669878Y-123622084D01*
X118495650Y-123528958D01*
X118306603Y-123471611D01*
X118306601Y-123471610D01*
X118306599Y-123471610D01*
X118137483Y-123454953D01*
X118110000Y-123452247D01*
X118109999Y-123452247D01*
X117913400Y-123471610D01*
X117724350Y-123528958D01*
X117550118Y-123622086D01*
X117397410Y-123747410D01*
X117272086Y-123900118D01*
X117178958Y-124074350D01*
X117121610Y-124263400D01*
X117102247Y-124460000D01*
X114325500Y-124460000D01*
X114325500Y-121919999D01*
X117102247Y-121919999D01*
X117121610Y-122116599D01*
X117121610Y-122116601D01*
X117121611Y-122116603D01*
X117178958Y-122305650D01*
X117261848Y-122460727D01*
X117272086Y-122479881D01*
X117397410Y-122632589D01*
X117550118Y-122757913D01*
X117550122Y-122757916D01*
X117724350Y-122851042D01*
X117913397Y-122908389D01*
X118110000Y-122927753D01*
X118306603Y-122908389D01*
X118495650Y-122851042D01*
X118669878Y-122757916D01*
X118822589Y-122632589D01*
X118947916Y-122479878D01*
X119041042Y-122305650D01*
X119098389Y-122116603D01*
X119117753Y-121920000D01*
X119642247Y-121920000D01*
X119661610Y-122116599D01*
X119661610Y-122116601D01*
X119661611Y-122116603D01*
X119718958Y-122305650D01*
X119801848Y-122460727D01*
X119812086Y-122479881D01*
X119937410Y-122632589D01*
X120090118Y-122757913D01*
X120090122Y-122757916D01*
X120264350Y-122851042D01*
X120453397Y-122908389D01*
X120650000Y-122927753D01*
X120846603Y-122908389D01*
X121035650Y-122851042D01*
X121209878Y-122757916D01*
X121362589Y-122632589D01*
X121487916Y-122479878D01*
X121581042Y-122305650D01*
X121638389Y-122116603D01*
X121657753Y-121920000D01*
X121638389Y-121723397D01*
X121581042Y-121534350D01*
X121487916Y-121360122D01*
X121426143Y-121284851D01*
X121362589Y-121207410D01*
X121209881Y-121082086D01*
X121209879Y-121082085D01*
X121209878Y-121082084D01*
X121035650Y-120988958D01*
X120846603Y-120931611D01*
X120846601Y-120931610D01*
X120846599Y-120931610D01*
X120650000Y-120912247D01*
X120453400Y-120931610D01*
X120264350Y-120988958D01*
X120090118Y-121082086D01*
X119937410Y-121207410D01*
X119812086Y-121360118D01*
X119718958Y-121534350D01*
X119661610Y-121723400D01*
X119642247Y-121920000D01*
X119117753Y-121920000D01*
X119098389Y-121723397D01*
X119041042Y-121534350D01*
X118947916Y-121360122D01*
X118886143Y-121284851D01*
X118822589Y-121207410D01*
X118669881Y-121082086D01*
X118669879Y-121082085D01*
X118669878Y-121082084D01*
X118495650Y-120988958D01*
X118306603Y-120931611D01*
X118306601Y-120931610D01*
X118306599Y-120931610D01*
X118137483Y-120914953D01*
X118110000Y-120912247D01*
X118109999Y-120912247D01*
X117913400Y-120931610D01*
X117724350Y-120988958D01*
X117550118Y-121082086D01*
X117397410Y-121207410D01*
X117272086Y-121360118D01*
X117178958Y-121534350D01*
X117121610Y-121723400D01*
X117102247Y-121919999D01*
X114325500Y-121919999D01*
X114325500Y-119380000D01*
X117102247Y-119380000D01*
X117121610Y-119576599D01*
X117121610Y-119576601D01*
X117121611Y-119576603D01*
X117178958Y-119765650D01*
X117272084Y-119939878D01*
X117272086Y-119939881D01*
X117397410Y-120092589D01*
X117550118Y-120217913D01*
X117550122Y-120217916D01*
X117724350Y-120311042D01*
X117913397Y-120368389D01*
X118110000Y-120387753D01*
X118306603Y-120368389D01*
X118495650Y-120311042D01*
X118669878Y-120217916D01*
X118822589Y-120092589D01*
X118947916Y-119939878D01*
X119041042Y-119765650D01*
X119098389Y-119576603D01*
X119117753Y-119380000D01*
X119642247Y-119380000D01*
X119661610Y-119576599D01*
X119661610Y-119576601D01*
X119661611Y-119576603D01*
X119718958Y-119765650D01*
X119812084Y-119939878D01*
X119812086Y-119939881D01*
X119937410Y-120092589D01*
X120090118Y-120217913D01*
X120090122Y-120217916D01*
X120264350Y-120311042D01*
X120453397Y-120368389D01*
X120650000Y-120387753D01*
X120846603Y-120368389D01*
X121035650Y-120311042D01*
X121209878Y-120217916D01*
X121362589Y-120092589D01*
X121487916Y-119939878D01*
X121581042Y-119765650D01*
X121638389Y-119576603D01*
X121657753Y-119380000D01*
X121638389Y-119183397D01*
X121581042Y-118994350D01*
X121487916Y-118820122D01*
X121487913Y-118820118D01*
X121362589Y-118667410D01*
X121209881Y-118542086D01*
X121209879Y-118542085D01*
X121209878Y-118542084D01*
X121035650Y-118448958D01*
X120846603Y-118391611D01*
X120846601Y-118391610D01*
X120846599Y-118391610D01*
X120650000Y-118372247D01*
X120453400Y-118391610D01*
X120264350Y-118448958D01*
X120090118Y-118542086D01*
X119937410Y-118667410D01*
X119812086Y-118820118D01*
X119718958Y-118994350D01*
X119661610Y-119183400D01*
X119642247Y-119380000D01*
X119117753Y-119380000D01*
X119098389Y-119183397D01*
X119041042Y-118994350D01*
X118947916Y-118820122D01*
X118947913Y-118820118D01*
X118822589Y-118667410D01*
X118669881Y-118542086D01*
X118669879Y-118542085D01*
X118669878Y-118542084D01*
X118495650Y-118448958D01*
X118306603Y-118391611D01*
X118306601Y-118391610D01*
X118306599Y-118391610D01*
X118137483Y-118374953D01*
X118110000Y-118372247D01*
X118109999Y-118372247D01*
X117913400Y-118391610D01*
X117724350Y-118448958D01*
X117550118Y-118542086D01*
X117397410Y-118667410D01*
X117272086Y-118820118D01*
X117178958Y-118994350D01*
X117121610Y-119183400D01*
X117102247Y-119380000D01*
X114325500Y-119380000D01*
X114325500Y-116839999D01*
X117102247Y-116839999D01*
X117121610Y-117036599D01*
X117121610Y-117036601D01*
X117121611Y-117036603D01*
X117178958Y-117225650D01*
X117200181Y-117265355D01*
X117272086Y-117399881D01*
X117397410Y-117552589D01*
X117550118Y-117677913D01*
X117550122Y-117677916D01*
X117724350Y-117771042D01*
X117913397Y-117828389D01*
X118110000Y-117847753D01*
X118306603Y-117828389D01*
X118495650Y-117771042D01*
X118669878Y-117677916D01*
X118822589Y-117552589D01*
X118947916Y-117399878D01*
X119041042Y-117225650D01*
X119098389Y-117036603D01*
X119117753Y-116840000D01*
X119642247Y-116840000D01*
X119661610Y-117036599D01*
X119661610Y-117036601D01*
X119661611Y-117036603D01*
X119718958Y-117225650D01*
X119740181Y-117265355D01*
X119812086Y-117399881D01*
X119937410Y-117552589D01*
X120090118Y-117677913D01*
X120090122Y-117677916D01*
X120264350Y-117771042D01*
X120453397Y-117828389D01*
X120650000Y-117847753D01*
X120846603Y-117828389D01*
X121035650Y-117771042D01*
X121209878Y-117677916D01*
X121362589Y-117552589D01*
X121487916Y-117399878D01*
X121581042Y-117225650D01*
X121638389Y-117036603D01*
X121657753Y-116840000D01*
X121638389Y-116643397D01*
X121581042Y-116454350D01*
X121487916Y-116280122D01*
X121487913Y-116280118D01*
X121362589Y-116127410D01*
X121209881Y-116002086D01*
X121209879Y-116002085D01*
X121209878Y-116002084D01*
X121035650Y-115908958D01*
X120846603Y-115851611D01*
X120846601Y-115851610D01*
X120846599Y-115851610D01*
X120650000Y-115832247D01*
X120453400Y-115851610D01*
X120264350Y-115908958D01*
X120090118Y-116002086D01*
X119937410Y-116127410D01*
X119812086Y-116280118D01*
X119718958Y-116454350D01*
X119661610Y-116643400D01*
X119642247Y-116840000D01*
X119117753Y-116840000D01*
X119098389Y-116643397D01*
X119041042Y-116454350D01*
X118947916Y-116280122D01*
X118947913Y-116280118D01*
X118822589Y-116127410D01*
X118669881Y-116002086D01*
X118669879Y-116002085D01*
X118669878Y-116002084D01*
X118495650Y-115908958D01*
X118306603Y-115851611D01*
X118306601Y-115851610D01*
X118306599Y-115851610D01*
X118110000Y-115832247D01*
X117913400Y-115851610D01*
X117724350Y-115908958D01*
X117550118Y-116002086D01*
X117397410Y-116127410D01*
X117272086Y-116280118D01*
X117178958Y-116454350D01*
X117121610Y-116643400D01*
X117102247Y-116839999D01*
X114325500Y-116839999D01*
X114325500Y-114300000D01*
X117102247Y-114300000D01*
X117121610Y-114496599D01*
X117121610Y-114496601D01*
X117121611Y-114496603D01*
X117178958Y-114685650D01*
X117259060Y-114835511D01*
X117272086Y-114859881D01*
X117397410Y-115012589D01*
X117539840Y-115129478D01*
X117550122Y-115137916D01*
X117724350Y-115231042D01*
X117913397Y-115288389D01*
X118110000Y-115307753D01*
X118306603Y-115288389D01*
X118495650Y-115231042D01*
X118669878Y-115137916D01*
X118822589Y-115012589D01*
X118947916Y-114859878D01*
X119041042Y-114685650D01*
X119098389Y-114496603D01*
X119117753Y-114300000D01*
X119642247Y-114300000D01*
X119661610Y-114496599D01*
X119661610Y-114496601D01*
X119661611Y-114496603D01*
X119718958Y-114685650D01*
X119799060Y-114835511D01*
X119812086Y-114859881D01*
X119937410Y-115012589D01*
X120079840Y-115129478D01*
X120090122Y-115137916D01*
X120264350Y-115231042D01*
X120453397Y-115288389D01*
X120650000Y-115307753D01*
X120846603Y-115288389D01*
X121035650Y-115231042D01*
X121209878Y-115137916D01*
X121362589Y-115012589D01*
X121487916Y-114859878D01*
X121581042Y-114685650D01*
X121638389Y-114496603D01*
X121657753Y-114300000D01*
X121638389Y-114103397D01*
X121581042Y-113914350D01*
X121487916Y-113740122D01*
X121487913Y-113740118D01*
X121362589Y-113587410D01*
X121209881Y-113462086D01*
X121209879Y-113462085D01*
X121209878Y-113462084D01*
X121035650Y-113368958D01*
X120846603Y-113311611D01*
X120846601Y-113311610D01*
X120846599Y-113311610D01*
X120650000Y-113292247D01*
X120453400Y-113311610D01*
X120264350Y-113368958D01*
X120090118Y-113462086D01*
X119937410Y-113587410D01*
X119812086Y-113740118D01*
X119718958Y-113914350D01*
X119661610Y-114103400D01*
X119642247Y-114300000D01*
X119117753Y-114300000D01*
X119098389Y-114103397D01*
X119041042Y-113914350D01*
X118947916Y-113740122D01*
X118947913Y-113740118D01*
X118822589Y-113587410D01*
X118669881Y-113462086D01*
X118669879Y-113462085D01*
X118669878Y-113462084D01*
X118495650Y-113368958D01*
X118306603Y-113311611D01*
X118306601Y-113311610D01*
X118306599Y-113311610D01*
X118110000Y-113292247D01*
X117913400Y-113311610D01*
X117724350Y-113368958D01*
X117550118Y-113462086D01*
X117397410Y-113587410D01*
X117272086Y-113740118D01*
X117178958Y-113914350D01*
X117121610Y-114103400D01*
X117102247Y-114300000D01*
X114325500Y-114300000D01*
X114325500Y-111760000D01*
X117102247Y-111760000D01*
X117121610Y-111956599D01*
X117121610Y-111956601D01*
X117121611Y-111956603D01*
X117178958Y-112145650D01*
X117272084Y-112319878D01*
X117272086Y-112319881D01*
X117397410Y-112472589D01*
X117550118Y-112597913D01*
X117550122Y-112597916D01*
X117724350Y-112691042D01*
X117913397Y-112748389D01*
X118110000Y-112767753D01*
X118306603Y-112748389D01*
X118495650Y-112691042D01*
X118669878Y-112597916D01*
X118822589Y-112472589D01*
X118947916Y-112319878D01*
X119041042Y-112145650D01*
X119098389Y-111956603D01*
X119117753Y-111760000D01*
X119642247Y-111760000D01*
X119661610Y-111956599D01*
X119661610Y-111956601D01*
X119661611Y-111956603D01*
X119718958Y-112145650D01*
X119812084Y-112319878D01*
X119812086Y-112319881D01*
X119937410Y-112472589D01*
X120090118Y-112597913D01*
X120090122Y-112597916D01*
X120264350Y-112691042D01*
X120453397Y-112748389D01*
X120650000Y-112767753D01*
X120846603Y-112748389D01*
X121035650Y-112691042D01*
X121209878Y-112597916D01*
X121362589Y-112472589D01*
X121487916Y-112319878D01*
X121581042Y-112145650D01*
X121638389Y-111956603D01*
X121657753Y-111760000D01*
X121638389Y-111563397D01*
X121581042Y-111374350D01*
X121487916Y-111200122D01*
X121487913Y-111200118D01*
X121362589Y-111047410D01*
X121209881Y-110922086D01*
X121209879Y-110922085D01*
X121209878Y-110922084D01*
X121035650Y-110828958D01*
X120846603Y-110771611D01*
X120846601Y-110771610D01*
X120846599Y-110771610D01*
X120650000Y-110752247D01*
X120453400Y-110771610D01*
X120264350Y-110828958D01*
X120090118Y-110922086D01*
X119937410Y-111047410D01*
X119812086Y-111200118D01*
X119718958Y-111374350D01*
X119661610Y-111563400D01*
X119642247Y-111760000D01*
X119117753Y-111760000D01*
X119098389Y-111563397D01*
X119041042Y-111374350D01*
X118947916Y-111200122D01*
X118947913Y-111200118D01*
X118822589Y-111047410D01*
X118669881Y-110922086D01*
X118669879Y-110922085D01*
X118669878Y-110922084D01*
X118495650Y-110828958D01*
X118306603Y-110771611D01*
X118306601Y-110771610D01*
X118306599Y-110771610D01*
X118110000Y-110752247D01*
X117913400Y-110771610D01*
X117724350Y-110828958D01*
X117550118Y-110922086D01*
X117397410Y-111047410D01*
X117272086Y-111200118D01*
X117178958Y-111374350D01*
X117121610Y-111563400D01*
X117102247Y-111760000D01*
X114325500Y-111760000D01*
X114325500Y-109220000D01*
X117102247Y-109220000D01*
X117121610Y-109416599D01*
X117121610Y-109416601D01*
X117121611Y-109416603D01*
X117178958Y-109605650D01*
X117241345Y-109722368D01*
X117272086Y-109779881D01*
X117397410Y-109932589D01*
X117550118Y-110057913D01*
X117550122Y-110057916D01*
X117724350Y-110151042D01*
X117913397Y-110208389D01*
X118110000Y-110227753D01*
X118306603Y-110208389D01*
X118495650Y-110151042D01*
X118669878Y-110057916D01*
X118822589Y-109932589D01*
X118947916Y-109779878D01*
X119041042Y-109605650D01*
X119098389Y-109416603D01*
X119117753Y-109220000D01*
X119117753Y-109219999D01*
X119795317Y-109219999D01*
X119813994Y-109397700D01*
X119813995Y-109397702D01*
X119869205Y-109567625D01*
X119869208Y-109567631D01*
X119958546Y-109722368D01*
X120078103Y-109855151D01*
X120222658Y-109960177D01*
X120385883Y-110032850D01*
X120385888Y-110032852D01*
X120560662Y-110070001D01*
X120739337Y-110070001D01*
X120914111Y-110032852D01*
X120914116Y-110032850D01*
X121077341Y-109960177D01*
X121221896Y-109855151D01*
X121341453Y-109722368D01*
X121430791Y-109567631D01*
X121430794Y-109567625D01*
X121486004Y-109397702D01*
X121486005Y-109397700D01*
X121504682Y-109220000D01*
X121486005Y-109042299D01*
X121486004Y-109042297D01*
X121430794Y-108872374D01*
X121430791Y-108872368D01*
X121341453Y-108717631D01*
X121221896Y-108584848D01*
X121077341Y-108479822D01*
X120914116Y-108407149D01*
X120914111Y-108407147D01*
X120739338Y-108369999D01*
X120560662Y-108369999D01*
X120385888Y-108407147D01*
X120385883Y-108407149D01*
X120222659Y-108479822D01*
X120222654Y-108479825D01*
X120078106Y-108584846D01*
X120078099Y-108584851D01*
X119958546Y-108717631D01*
X119869208Y-108872368D01*
X119869205Y-108872374D01*
X119813995Y-109042297D01*
X119813994Y-109042299D01*
X119795317Y-109219999D01*
X119117753Y-109219999D01*
X119098389Y-109023397D01*
X119041042Y-108834350D01*
X118947916Y-108660122D01*
X118886143Y-108584851D01*
X118822589Y-108507410D01*
X118669881Y-108382086D01*
X118669879Y-108382085D01*
X118669878Y-108382084D01*
X118495650Y-108288958D01*
X118306603Y-108231611D01*
X118306601Y-108231610D01*
X118306599Y-108231610D01*
X118110000Y-108212247D01*
X117913400Y-108231610D01*
X117724350Y-108288958D01*
X117550118Y-108382086D01*
X117397410Y-108507410D01*
X117272086Y-108660118D01*
X117178958Y-108834350D01*
X117121610Y-109023400D01*
X117102247Y-109220000D01*
X114325500Y-109220000D01*
X114325500Y-106679999D01*
X117255317Y-106679999D01*
X117273994Y-106857700D01*
X117273995Y-106857702D01*
X117329205Y-107027625D01*
X117329208Y-107027631D01*
X117418546Y-107182368D01*
X117538103Y-107315151D01*
X117682658Y-107420177D01*
X117845883Y-107492850D01*
X117845888Y-107492852D01*
X118020662Y-107530001D01*
X118199337Y-107530001D01*
X118374111Y-107492852D01*
X118374116Y-107492850D01*
X118537341Y-107420177D01*
X118681896Y-107315151D01*
X118801453Y-107182368D01*
X118890791Y-107027631D01*
X118890794Y-107027625D01*
X118946004Y-106857702D01*
X118946005Y-106857700D01*
X118964682Y-106680000D01*
X118964682Y-106679999D01*
X119795317Y-106679999D01*
X119813994Y-106857700D01*
X119813995Y-106857702D01*
X119869205Y-107027625D01*
X119869208Y-107027631D01*
X119958546Y-107182368D01*
X120078103Y-107315151D01*
X120222658Y-107420177D01*
X120385883Y-107492850D01*
X120385888Y-107492852D01*
X120560662Y-107530001D01*
X120739337Y-107530001D01*
X120914111Y-107492852D01*
X120914116Y-107492850D01*
X121077341Y-107420177D01*
X121221896Y-107315151D01*
X121341453Y-107182368D01*
X121430791Y-107027631D01*
X121430794Y-107027625D01*
X121486004Y-106857702D01*
X121486005Y-106857700D01*
X121504682Y-106680000D01*
X121486005Y-106502299D01*
X121486004Y-106502297D01*
X121430794Y-106332374D01*
X121430791Y-106332368D01*
X121341453Y-106177631D01*
X121221896Y-106044848D01*
X121077341Y-105939822D01*
X120914116Y-105867149D01*
X120914111Y-105867147D01*
X120739338Y-105829999D01*
X120560662Y-105829999D01*
X120385888Y-105867147D01*
X120385883Y-105867149D01*
X120222659Y-105939822D01*
X120222654Y-105939825D01*
X120078106Y-106044846D01*
X120078099Y-106044851D01*
X119958546Y-106177631D01*
X119869208Y-106332368D01*
X119869205Y-106332374D01*
X119813995Y-106502297D01*
X119813994Y-106502299D01*
X119795317Y-106679999D01*
X118964682Y-106679999D01*
X118946005Y-106502299D01*
X118946004Y-106502297D01*
X118890794Y-106332374D01*
X118890791Y-106332368D01*
X118801453Y-106177631D01*
X118681896Y-106044848D01*
X118537341Y-105939822D01*
X118374116Y-105867149D01*
X118374111Y-105867147D01*
X118199338Y-105829999D01*
X118020662Y-105829999D01*
X117845888Y-105867147D01*
X117845883Y-105867149D01*
X117682659Y-105939822D01*
X117682654Y-105939825D01*
X117538106Y-106044846D01*
X117538099Y-106044851D01*
X117418546Y-106177631D01*
X117329208Y-106332368D01*
X117329205Y-106332374D01*
X117273995Y-106502297D01*
X117273994Y-106502299D01*
X117255317Y-106679999D01*
X114325500Y-106679999D01*
X114325500Y-104140000D01*
X117102247Y-104140000D01*
X117121610Y-104336599D01*
X117121610Y-104336601D01*
X117121611Y-104336603D01*
X117178958Y-104525650D01*
X117272084Y-104699878D01*
X117272086Y-104699881D01*
X117397410Y-104852589D01*
X117550118Y-104977913D01*
X117550122Y-104977916D01*
X117724350Y-105071042D01*
X117913397Y-105128389D01*
X118110000Y-105147753D01*
X118306603Y-105128389D01*
X118495650Y-105071042D01*
X118669878Y-104977916D01*
X118822589Y-104852589D01*
X118947916Y-104699878D01*
X119041042Y-104525650D01*
X119098389Y-104336603D01*
X119117753Y-104140000D01*
X119642247Y-104140000D01*
X119661610Y-104336599D01*
X119661610Y-104336601D01*
X119661611Y-104336603D01*
X119718958Y-104525650D01*
X119812084Y-104699878D01*
X119812086Y-104699881D01*
X119937410Y-104852589D01*
X120090118Y-104977913D01*
X120090122Y-104977916D01*
X120264350Y-105071042D01*
X120453397Y-105128389D01*
X120650000Y-105147753D01*
X120846603Y-105128389D01*
X121035650Y-105071042D01*
X121209878Y-104977916D01*
X121362589Y-104852589D01*
X121487916Y-104699878D01*
X121581042Y-104525650D01*
X121638389Y-104336603D01*
X121657753Y-104140000D01*
X121638389Y-103943397D01*
X121581042Y-103754350D01*
X121487916Y-103580122D01*
X121487913Y-103580118D01*
X121362589Y-103427410D01*
X121209881Y-103302086D01*
X121209879Y-103302085D01*
X121209878Y-103302084D01*
X121035650Y-103208958D01*
X120846603Y-103151611D01*
X120846601Y-103151610D01*
X120846599Y-103151610D01*
X120650000Y-103132247D01*
X120453400Y-103151610D01*
X120264350Y-103208958D01*
X120090118Y-103302086D01*
X119937410Y-103427410D01*
X119812086Y-103580118D01*
X119718958Y-103754350D01*
X119661610Y-103943400D01*
X119642247Y-104140000D01*
X119117753Y-104140000D01*
X119098389Y-103943397D01*
X119041042Y-103754350D01*
X118947916Y-103580122D01*
X118947913Y-103580118D01*
X118822589Y-103427410D01*
X118669881Y-103302086D01*
X118669879Y-103302085D01*
X118669878Y-103302084D01*
X118495650Y-103208958D01*
X118306603Y-103151611D01*
X118306601Y-103151610D01*
X118306599Y-103151610D01*
X118110000Y-103132247D01*
X117913400Y-103151610D01*
X117724350Y-103208958D01*
X117550118Y-103302086D01*
X117397410Y-103427410D01*
X117272086Y-103580118D01*
X117178958Y-103754350D01*
X117121610Y-103943400D01*
X117102247Y-104140000D01*
X114325500Y-104140000D01*
X114325500Y-101600000D01*
X117102247Y-101600000D01*
X117121610Y-101796599D01*
X117121610Y-101796601D01*
X117121611Y-101796603D01*
X117178958Y-101985650D01*
X117254457Y-102126900D01*
X117272086Y-102159881D01*
X117397410Y-102312589D01*
X117550118Y-102437913D01*
X117550122Y-102437916D01*
X117724350Y-102531042D01*
X117913397Y-102588389D01*
X118110000Y-102607753D01*
X118306603Y-102588389D01*
X118495650Y-102531042D01*
X118669878Y-102437916D01*
X118822589Y-102312589D01*
X118947916Y-102159878D01*
X119041042Y-101985650D01*
X119098389Y-101796603D01*
X119117753Y-101600000D01*
X119642247Y-101600000D01*
X119661610Y-101796599D01*
X119661610Y-101796601D01*
X119661611Y-101796603D01*
X119718958Y-101985650D01*
X119794457Y-102126900D01*
X119812086Y-102159881D01*
X119937410Y-102312589D01*
X120090118Y-102437913D01*
X120090122Y-102437916D01*
X120264350Y-102531042D01*
X120453397Y-102588389D01*
X120650000Y-102607753D01*
X120846603Y-102588389D01*
X121035650Y-102531042D01*
X121209878Y-102437916D01*
X121362589Y-102312589D01*
X121487916Y-102159878D01*
X121536786Y-102068447D01*
X121585749Y-102018603D01*
X121646145Y-102002900D01*
X127743100Y-102002900D01*
X127810139Y-102022585D01*
X127855894Y-102075389D01*
X127867100Y-102126900D01*
X127867100Y-121018768D01*
X127847415Y-121085807D01*
X127813979Y-121117689D01*
X127815287Y-121119489D01*
X127654441Y-121236350D01*
X127654435Y-121236355D01*
X127525752Y-121379273D01*
X127429593Y-121545826D01*
X127429590Y-121545832D01*
X127370164Y-121728729D01*
X127370163Y-121728731D01*
X127350060Y-121920000D01*
X127370163Y-122111268D01*
X127370164Y-122111270D01*
X127429590Y-122294167D01*
X127429593Y-122294173D01*
X127525752Y-122460726D01*
X127578695Y-122519526D01*
X127654440Y-122603649D01*
X127694273Y-122632589D01*
X127810025Y-122716688D01*
X127810030Y-122716691D01*
X127985717Y-122794913D01*
X127985723Y-122794915D01*
X128173840Y-122834900D01*
X128173841Y-122834900D01*
X128366159Y-122834900D01*
X128366160Y-122834900D01*
X128554277Y-122794915D01*
X128554279Y-122794913D01*
X128554282Y-122794913D01*
X128613461Y-122768564D01*
X128729970Y-122716691D01*
X128885560Y-122603649D01*
X129014247Y-122460727D01*
X129110407Y-122294173D01*
X129169837Y-122111266D01*
X129189940Y-121920002D01*
X130043177Y-121920002D01*
X130062402Y-122090631D01*
X130119116Y-122252713D01*
X130210473Y-122398105D01*
X130331894Y-122519526D01*
X130477286Y-122610883D01*
X130639368Y-122667597D01*
X130809997Y-122686823D01*
X130810003Y-122686823D01*
X130980631Y-122667597D01*
X131142713Y-122610883D01*
X131288105Y-122519526D01*
X131409526Y-122398105D01*
X131500883Y-122252713D01*
X131557597Y-122090631D01*
X131576823Y-121920002D01*
X131576823Y-121920000D01*
X132430060Y-121920000D01*
X132450163Y-122111268D01*
X132450164Y-122111270D01*
X132509590Y-122294167D01*
X132509593Y-122294173D01*
X132605752Y-122460726D01*
X132658695Y-122519526D01*
X132734440Y-122603649D01*
X132774273Y-122632589D01*
X132890025Y-122716688D01*
X132890030Y-122716691D01*
X133065717Y-122794913D01*
X133065723Y-122794915D01*
X133253840Y-122834900D01*
X133253841Y-122834900D01*
X133446159Y-122834900D01*
X133446160Y-122834900D01*
X133634277Y-122794915D01*
X133634279Y-122794913D01*
X133634282Y-122794913D01*
X133693461Y-122768564D01*
X133809970Y-122716691D01*
X133965560Y-122603649D01*
X134094247Y-122460727D01*
X134190407Y-122294173D01*
X134249837Y-122111266D01*
X134269940Y-121920000D01*
X134970060Y-121920000D01*
X134990163Y-122111268D01*
X134990164Y-122111270D01*
X135049590Y-122294167D01*
X135049593Y-122294173D01*
X135145752Y-122460726D01*
X135198695Y-122519526D01*
X135274440Y-122603649D01*
X135314273Y-122632589D01*
X135430025Y-122716688D01*
X135430030Y-122716691D01*
X135605717Y-122794913D01*
X135605723Y-122794915D01*
X135793840Y-122834900D01*
X135793841Y-122834900D01*
X135986159Y-122834900D01*
X135986160Y-122834900D01*
X136174277Y-122794915D01*
X136174279Y-122794913D01*
X136174282Y-122794913D01*
X136233461Y-122768564D01*
X136349970Y-122716691D01*
X136505560Y-122603649D01*
X136634247Y-122460727D01*
X136730407Y-122294173D01*
X136789837Y-122111266D01*
X136809940Y-121920000D01*
X136789837Y-121728734D01*
X136730407Y-121545827D01*
X136634247Y-121379273D01*
X136617000Y-121360118D01*
X136505564Y-121236355D01*
X136505562Y-121236353D01*
X136505560Y-121236351D01*
X136427754Y-121179822D01*
X136349974Y-121123311D01*
X136349969Y-121123308D01*
X136174282Y-121045086D01*
X136174276Y-121045084D01*
X136026143Y-121013598D01*
X135986160Y-121005100D01*
X135793840Y-121005100D01*
X135760864Y-121012108D01*
X135605723Y-121045084D01*
X135605717Y-121045086D01*
X135430030Y-121123308D01*
X135430025Y-121123311D01*
X135274441Y-121236350D01*
X135274435Y-121236355D01*
X135145752Y-121379273D01*
X135049593Y-121545826D01*
X135049590Y-121545832D01*
X134990164Y-121728729D01*
X134990163Y-121728731D01*
X134970060Y-121920000D01*
X134269940Y-121920000D01*
X134249837Y-121728734D01*
X134190407Y-121545827D01*
X134094247Y-121379273D01*
X134077000Y-121360118D01*
X133965564Y-121236355D01*
X133965562Y-121236353D01*
X133965560Y-121236351D01*
X133887754Y-121179822D01*
X133809974Y-121123311D01*
X133809969Y-121123308D01*
X133634282Y-121045086D01*
X133634276Y-121045084D01*
X133486143Y-121013598D01*
X133446160Y-121005100D01*
X133253840Y-121005100D01*
X133220864Y-121012108D01*
X133065723Y-121045084D01*
X133065717Y-121045086D01*
X132890030Y-121123308D01*
X132890025Y-121123311D01*
X132734441Y-121236350D01*
X132734435Y-121236355D01*
X132605752Y-121379273D01*
X132509593Y-121545826D01*
X132509590Y-121545832D01*
X132450164Y-121728729D01*
X132450163Y-121728731D01*
X132430060Y-121920000D01*
X131576823Y-121920000D01*
X131576823Y-121919997D01*
X131557597Y-121749368D01*
X131500883Y-121587286D01*
X131409526Y-121441894D01*
X131288105Y-121320473D01*
X131142713Y-121229116D01*
X130980631Y-121172402D01*
X130810003Y-121153177D01*
X130809997Y-121153177D01*
X130639368Y-121172402D01*
X130477286Y-121229116D01*
X130331894Y-121320473D01*
X130210473Y-121441894D01*
X130119116Y-121587286D01*
X130062402Y-121749368D01*
X130043177Y-121919997D01*
X130043177Y-121920002D01*
X129189940Y-121920002D01*
X129189940Y-121920000D01*
X129169837Y-121728734D01*
X129110407Y-121545827D01*
X129014247Y-121379273D01*
X128997000Y-121360118D01*
X128885564Y-121236355D01*
X128885562Y-121236353D01*
X128885560Y-121236351D01*
X128771080Y-121153177D01*
X128724713Y-121119489D01*
X128726369Y-121117209D01*
X128686684Y-121075587D01*
X128672900Y-121018768D01*
X128672900Y-102126900D01*
X128692585Y-102059861D01*
X128745389Y-102014106D01*
X128796900Y-102002900D01*
X135826187Y-102002900D01*
X135858292Y-102002900D01*
X136048463Y-102002900D01*
X136115502Y-102022585D01*
X136136144Y-102039219D01*
X149420781Y-115323856D01*
X149454266Y-115385179D01*
X149457100Y-115411537D01*
X149457100Y-121018768D01*
X149437415Y-121085807D01*
X149403979Y-121117689D01*
X149405287Y-121119489D01*
X149244441Y-121236350D01*
X149244435Y-121236355D01*
X149115752Y-121379273D01*
X149019593Y-121545826D01*
X149019590Y-121545832D01*
X148960164Y-121728729D01*
X148960163Y-121728731D01*
X148940060Y-121920000D01*
X148960163Y-122111268D01*
X148960164Y-122111270D01*
X149019590Y-122294167D01*
X149019593Y-122294173D01*
X149115752Y-122460726D01*
X149168695Y-122519526D01*
X149244440Y-122603649D01*
X149284273Y-122632589D01*
X149400025Y-122716688D01*
X149400030Y-122716691D01*
X149575717Y-122794913D01*
X149575723Y-122794915D01*
X149763840Y-122834900D01*
X149763841Y-122834900D01*
X149956159Y-122834900D01*
X149956160Y-122834900D01*
X150144277Y-122794915D01*
X150144279Y-122794913D01*
X150144282Y-122794913D01*
X150203461Y-122768564D01*
X150319970Y-122716691D01*
X150475560Y-122603649D01*
X150604247Y-122460727D01*
X150700407Y-122294173D01*
X150759837Y-122111266D01*
X150779940Y-121920002D01*
X151633177Y-121920002D01*
X151652402Y-122090631D01*
X151709116Y-122252713D01*
X151800473Y-122398105D01*
X151921894Y-122519526D01*
X152067286Y-122610883D01*
X152229368Y-122667597D01*
X152399997Y-122686823D01*
X152400003Y-122686823D01*
X152570631Y-122667597D01*
X152732713Y-122610883D01*
X152878105Y-122519526D01*
X152999526Y-122398105D01*
X153090883Y-122252713D01*
X153147597Y-122090631D01*
X153166823Y-121920002D01*
X153166823Y-121920000D01*
X154020060Y-121920000D01*
X154040163Y-122111268D01*
X154040164Y-122111270D01*
X154099590Y-122294167D01*
X154099593Y-122294173D01*
X154195752Y-122460726D01*
X154248695Y-122519526D01*
X154324440Y-122603649D01*
X154364273Y-122632589D01*
X154480025Y-122716688D01*
X154480030Y-122716691D01*
X154655717Y-122794913D01*
X154655723Y-122794915D01*
X154843840Y-122834900D01*
X154843841Y-122834900D01*
X155036159Y-122834900D01*
X155036160Y-122834900D01*
X155224277Y-122794915D01*
X155224279Y-122794913D01*
X155224282Y-122794913D01*
X155283461Y-122768564D01*
X155399970Y-122716691D01*
X155555560Y-122603649D01*
X155684247Y-122460727D01*
X155780407Y-122294173D01*
X155839837Y-122111266D01*
X155859940Y-121920000D01*
X156560060Y-121920000D01*
X156580163Y-122111268D01*
X156580164Y-122111270D01*
X156639590Y-122294167D01*
X156639593Y-122294173D01*
X156735752Y-122460726D01*
X156788695Y-122519526D01*
X156864440Y-122603649D01*
X156904273Y-122632589D01*
X157020025Y-122716688D01*
X157020030Y-122716691D01*
X157195717Y-122794913D01*
X157195723Y-122794915D01*
X157383840Y-122834900D01*
X157383841Y-122834900D01*
X157576159Y-122834900D01*
X157576160Y-122834900D01*
X157764277Y-122794915D01*
X157764279Y-122794913D01*
X157764282Y-122794913D01*
X157823461Y-122768564D01*
X157939970Y-122716691D01*
X158095560Y-122603649D01*
X158224247Y-122460727D01*
X158320407Y-122294173D01*
X158379837Y-122111266D01*
X158399940Y-121920000D01*
X158379837Y-121728734D01*
X158320407Y-121545827D01*
X158224247Y-121379273D01*
X158207000Y-121360118D01*
X158095564Y-121236355D01*
X158095562Y-121236353D01*
X158095560Y-121236351D01*
X158017754Y-121179822D01*
X157939974Y-121123311D01*
X157939969Y-121123308D01*
X157764282Y-121045086D01*
X157764276Y-121045084D01*
X157616144Y-121013598D01*
X157576160Y-121005100D01*
X157383840Y-121005100D01*
X157350864Y-121012108D01*
X157195723Y-121045084D01*
X157195717Y-121045086D01*
X157020030Y-121123308D01*
X157020025Y-121123311D01*
X156864441Y-121236350D01*
X156864435Y-121236355D01*
X156735752Y-121379273D01*
X156639593Y-121545826D01*
X156639590Y-121545832D01*
X156580164Y-121728729D01*
X156580163Y-121728731D01*
X156560060Y-121920000D01*
X155859940Y-121920000D01*
X155839837Y-121728734D01*
X155780407Y-121545827D01*
X155684247Y-121379273D01*
X155667000Y-121360118D01*
X155555564Y-121236355D01*
X155555562Y-121236353D01*
X155555560Y-121236351D01*
X155477754Y-121179822D01*
X155399974Y-121123311D01*
X155399969Y-121123308D01*
X155224282Y-121045086D01*
X155224276Y-121045084D01*
X155076144Y-121013598D01*
X155036160Y-121005100D01*
X154843840Y-121005100D01*
X154810864Y-121012108D01*
X154655723Y-121045084D01*
X154655717Y-121045086D01*
X154480030Y-121123308D01*
X154480025Y-121123311D01*
X154324441Y-121236350D01*
X154324435Y-121236355D01*
X154195752Y-121379273D01*
X154099593Y-121545826D01*
X154099590Y-121545832D01*
X154040164Y-121728729D01*
X154040163Y-121728731D01*
X154020060Y-121920000D01*
X153166823Y-121920000D01*
X153166823Y-121919997D01*
X153147597Y-121749368D01*
X153090883Y-121587286D01*
X152999526Y-121441894D01*
X152878105Y-121320473D01*
X152732713Y-121229116D01*
X152570631Y-121172402D01*
X152400003Y-121153177D01*
X152399997Y-121153177D01*
X152229368Y-121172402D01*
X152067286Y-121229116D01*
X151921894Y-121320473D01*
X151800473Y-121441894D01*
X151709116Y-121587286D01*
X151652402Y-121749368D01*
X151633177Y-121919997D01*
X151633177Y-121920002D01*
X150779940Y-121920002D01*
X150779940Y-121920000D01*
X150759837Y-121728734D01*
X150700407Y-121545827D01*
X150604247Y-121379273D01*
X150587000Y-121360118D01*
X150475564Y-121236355D01*
X150475562Y-121236353D01*
X150475560Y-121236351D01*
X150361080Y-121153177D01*
X150314713Y-121119489D01*
X150316369Y-121117209D01*
X150276684Y-121075587D01*
X150262900Y-121018768D01*
X150262900Y-115569999D01*
X156522489Y-115569999D01*
X156540886Y-115756799D01*
X156595376Y-115936428D01*
X156683854Y-116101959D01*
X156683859Y-116101965D01*
X156802936Y-116247063D01*
X156948034Y-116366140D01*
X156948040Y-116366145D01*
X157113571Y-116454623D01*
X157113573Y-116454623D01*
X157113576Y-116454625D01*
X157293199Y-116509113D01*
X157480000Y-116527511D01*
X157666801Y-116509113D01*
X157768578Y-116478239D01*
X157804574Y-116472900D01*
X158324645Y-116472900D01*
X158391684Y-116492585D01*
X158412326Y-116509219D01*
X159080781Y-117177674D01*
X159114266Y-117238997D01*
X159117100Y-117265355D01*
X159117100Y-121754621D01*
X159116760Y-121761106D01*
X159100060Y-121919999D01*
X159116760Y-122078892D01*
X159117100Y-122085377D01*
X159117100Y-125304643D01*
X159097415Y-125371682D01*
X159080781Y-125392324D01*
X158208701Y-126264404D01*
X158193914Y-126277035D01*
X158182514Y-126285318D01*
X158182512Y-126285320D01*
X158135928Y-126337057D01*
X158133695Y-126339411D01*
X158118098Y-126355008D01*
X158104210Y-126372157D01*
X158102104Y-126374623D01*
X158055513Y-126426367D01*
X158048474Y-126438560D01*
X158037459Y-126454588D01*
X158028591Y-126465539D01*
X158028591Y-126465540D01*
X157996979Y-126527581D01*
X157995431Y-126530432D01*
X157960616Y-126590737D01*
X157956263Y-126604132D01*
X157948823Y-126622094D01*
X157942427Y-126634648D01*
X157924401Y-126701918D01*
X157923480Y-126705029D01*
X157901967Y-126771238D01*
X157901966Y-126771240D01*
X157901966Y-126771243D01*
X157900493Y-126785251D01*
X157896949Y-126804372D01*
X157893303Y-126817976D01*
X157889658Y-126887519D01*
X157889404Y-126890750D01*
X157887100Y-126912687D01*
X157887100Y-126934735D01*
X157887015Y-126937980D01*
X157883371Y-127007513D01*
X157885573Y-127021414D01*
X157887100Y-127040815D01*
X157887100Y-139777616D01*
X157867415Y-139844655D01*
X157863422Y-139850495D01*
X157859988Y-139855221D01*
X157802041Y-139968949D01*
X157787100Y-140063286D01*
X157787100Y-141576713D01*
X157802041Y-141671050D01*
X157802042Y-141671053D01*
X157802043Y-141671055D01*
X157852011Y-141769123D01*
X157859985Y-141784772D01*
X157863420Y-141789500D01*
X157886898Y-141855307D01*
X157887100Y-141862383D01*
X157887100Y-143469184D01*
X157885573Y-143488583D01*
X157883371Y-143502485D01*
X157887015Y-143572019D01*
X157887100Y-143575264D01*
X157887100Y-143597315D01*
X157888080Y-143606646D01*
X157889404Y-143619247D01*
X157889658Y-143622479D01*
X157893303Y-143692022D01*
X157896948Y-143705623D01*
X157900493Y-143724750D01*
X157901965Y-143738756D01*
X157901965Y-143738757D01*
X157923481Y-143804974D01*
X157924402Y-143808085D01*
X157942426Y-143875349D01*
X157942427Y-143875351D01*
X157948820Y-143887899D01*
X157956263Y-143905867D01*
X157960617Y-143919265D01*
X157960617Y-143919266D01*
X157995431Y-143979565D01*
X157996980Y-143982418D01*
X158028592Y-144044463D01*
X158037456Y-144055409D01*
X158048470Y-144071434D01*
X158055511Y-144083628D01*
X158055513Y-144083631D01*
X158055515Y-144083634D01*
X158075687Y-144106037D01*
X158102107Y-144135379D01*
X158104216Y-144137848D01*
X158118095Y-144154988D01*
X158133683Y-144170576D01*
X158135918Y-144172931D01*
X158182511Y-144224679D01*
X158182514Y-144224681D01*
X158193907Y-144232958D01*
X158208702Y-144245595D01*
X159324406Y-145361300D01*
X159337042Y-145376094D01*
X159345319Y-145387486D01*
X159397057Y-145434071D01*
X159399413Y-145436307D01*
X159415011Y-145451905D01*
X159432152Y-145465785D01*
X159434622Y-145467894D01*
X159486366Y-145514485D01*
X159498561Y-145521525D01*
X159514595Y-145532545D01*
X159525539Y-145541408D01*
X159587579Y-145573018D01*
X159590410Y-145574554D01*
X159650735Y-145609383D01*
X159664134Y-145613736D01*
X159682097Y-145621176D01*
X159694648Y-145627572D01*
X159761906Y-145645593D01*
X159765012Y-145646514D01*
X159789950Y-145654616D01*
X159831243Y-145668034D01*
X159845246Y-145669505D01*
X159864376Y-145673051D01*
X159877977Y-145676696D01*
X159947534Y-145680340D01*
X159950740Y-145680593D01*
X159972685Y-145682900D01*
X159994736Y-145682900D01*
X159997980Y-145682984D01*
X160067514Y-145686629D01*
X160081416Y-145684427D01*
X160100816Y-145682900D01*
X167559184Y-145682900D01*
X167578583Y-145684427D01*
X167592486Y-145686629D01*
X167662019Y-145682984D01*
X167665264Y-145682900D01*
X175179184Y-145682900D01*
X175198583Y-145684427D01*
X175212486Y-145686629D01*
X175282019Y-145682984D01*
X175285264Y-145682900D01*
X175307314Y-145682900D01*
X175307315Y-145682900D01*
X175329264Y-145680592D01*
X175332461Y-145680340D01*
X175402023Y-145676696D01*
X175415626Y-145673050D01*
X175434752Y-145669505D01*
X175448757Y-145668034D01*
X175515021Y-145646502D01*
X175518050Y-145645604D01*
X175585353Y-145627572D01*
X175597903Y-145621176D01*
X175615879Y-145613732D01*
X175615885Y-145613730D01*
X175629265Y-145609383D01*
X175689576Y-145574561D01*
X175692380Y-145573037D01*
X175754464Y-145541406D01*
X175765407Y-145532543D01*
X175781448Y-145521520D01*
X175793634Y-145514485D01*
X175845431Y-145467844D01*
X175847820Y-145465805D01*
X175864990Y-145451903D01*
X175880603Y-145436288D01*
X175882932Y-145434080D01*
X175934681Y-145387486D01*
X175942961Y-145376088D01*
X175955592Y-145361300D01*
X177151306Y-144165586D01*
X177166096Y-144152955D01*
X177177486Y-144144681D01*
X177177489Y-144144676D01*
X177177492Y-144144675D01*
X177212281Y-144106036D01*
X177224078Y-144092933D01*
X177226280Y-144090612D01*
X177241904Y-144074990D01*
X177255803Y-144057823D01*
X177257882Y-144055390D01*
X177270715Y-144041138D01*
X177304485Y-144003634D01*
X177311527Y-143991435D01*
X177322544Y-143975405D01*
X177331406Y-143964463D01*
X177363026Y-143902403D01*
X177364559Y-143899581D01*
X177371304Y-143887899D01*
X177399383Y-143839265D01*
X177403733Y-143825875D01*
X177411181Y-143807892D01*
X177417572Y-143795352D01*
X177435601Y-143728061D01*
X177436507Y-143725006D01*
X177458034Y-143658757D01*
X177459505Y-143644752D01*
X177463050Y-143625626D01*
X177466696Y-143612023D01*
X177470341Y-143542458D01*
X177470592Y-143539267D01*
X177472900Y-143517315D01*
X177472899Y-143495263D01*
X177472984Y-143492018D01*
X177473164Y-143488583D01*
X177476629Y-143422486D01*
X177474427Y-143408583D01*
X177472900Y-143389184D01*
X177472900Y-141862383D01*
X177492585Y-141795344D01*
X177496583Y-141789496D01*
X177500010Y-141784776D01*
X177500016Y-141784771D01*
X177557957Y-141671055D01*
X177557957Y-141671053D01*
X177557958Y-141671052D01*
X177572900Y-141576713D01*
X177572900Y-140063286D01*
X177557958Y-139968949D01*
X177557957Y-139968947D01*
X177557957Y-139968945D01*
X177500016Y-139855229D01*
X177500014Y-139855227D01*
X177500011Y-139855223D01*
X177409776Y-139764988D01*
X177409772Y-139764985D01*
X177409771Y-139764984D01*
X177296055Y-139707043D01*
X177296053Y-139707042D01*
X177296050Y-139707041D01*
X177201713Y-139692100D01*
X177201708Y-139692100D01*
X175938292Y-139692100D01*
X175938287Y-139692100D01*
X175843949Y-139707041D01*
X175730227Y-139764985D01*
X175730223Y-139764988D01*
X175639988Y-139855223D01*
X175639985Y-139855227D01*
X175582041Y-139968949D01*
X175567100Y-140063286D01*
X175567100Y-141576713D01*
X175582041Y-141671050D01*
X175582042Y-141671053D01*
X175582043Y-141671055D01*
X175632011Y-141769123D01*
X175639985Y-141784772D01*
X175643420Y-141789500D01*
X175666898Y-141855307D01*
X175667100Y-141862383D01*
X175667100Y-143044644D01*
X175647415Y-143111683D01*
X175630781Y-143132325D01*
X174922326Y-143840781D01*
X174861003Y-143874266D01*
X174834645Y-143877100D01*
X168726900Y-143877100D01*
X168659861Y-143857415D01*
X168614106Y-143804611D01*
X168602900Y-143753100D01*
X168602900Y-141862383D01*
X168622585Y-141795344D01*
X168626580Y-141789500D01*
X168630011Y-141784775D01*
X168630016Y-141784771D01*
X168687957Y-141671055D01*
X168687958Y-141671050D01*
X168702900Y-141576713D01*
X168702900Y-140063286D01*
X168687958Y-139968949D01*
X168687957Y-139968947D01*
X168687957Y-139968945D01*
X168630016Y-139855229D01*
X168630014Y-139855227D01*
X168630011Y-139855223D01*
X168539776Y-139764988D01*
X168539772Y-139764985D01*
X168539771Y-139764984D01*
X168426055Y-139707043D01*
X168426053Y-139707042D01*
X168426050Y-139707041D01*
X168331713Y-139692100D01*
X168331708Y-139692100D01*
X167068292Y-139692100D01*
X167068287Y-139692100D01*
X166973949Y-139707041D01*
X166860227Y-139764985D01*
X166860223Y-139764988D01*
X166769988Y-139855223D01*
X166769985Y-139855227D01*
X166712041Y-139968949D01*
X166697100Y-140063286D01*
X166697100Y-141576713D01*
X166712041Y-141671050D01*
X166712042Y-141671053D01*
X166712043Y-141671055D01*
X166762011Y-141769123D01*
X166769985Y-141784772D01*
X166773420Y-141789500D01*
X166796898Y-141855307D01*
X166797100Y-141862383D01*
X166797100Y-143753100D01*
X166777415Y-143820139D01*
X166724611Y-143865894D01*
X166673100Y-143877100D01*
X160445356Y-143877100D01*
X160378317Y-143857415D01*
X160357675Y-143840781D01*
X159729219Y-143212325D01*
X159695734Y-143151002D01*
X159692900Y-143124644D01*
X159692900Y-141862383D01*
X159712585Y-141795344D01*
X159716580Y-141789500D01*
X159720011Y-141784775D01*
X159720016Y-141784771D01*
X159777957Y-141671055D01*
X159777958Y-141671050D01*
X159792900Y-141576713D01*
X159792900Y-140995862D01*
X160287100Y-140995862D01*
X160302562Y-141147924D01*
X160363620Y-141342530D01*
X160363623Y-141342536D01*
X160363624Y-141342539D01*
X160414511Y-141434218D01*
X160462612Y-141520880D01*
X160462612Y-141520881D01*
X160591533Y-141671055D01*
X160595472Y-141675643D01*
X160756766Y-141800495D01*
X160939891Y-141890322D01*
X161137350Y-141941447D01*
X161341058Y-141951778D01*
X161542676Y-141920891D01*
X161733949Y-141850052D01*
X161907047Y-141742159D01*
X162054883Y-141601630D01*
X162171404Y-141434219D01*
X162251841Y-141246780D01*
X162292900Y-141046985D01*
X162292900Y-140644139D01*
X162277437Y-140492077D01*
X162277437Y-140492075D01*
X162216379Y-140297469D01*
X162216377Y-140297465D01*
X162216376Y-140297461D01*
X162208481Y-140283236D01*
X162192900Y-140223059D01*
X162192900Y-138855354D01*
X162212585Y-138788315D01*
X162229214Y-138767678D01*
X162897674Y-138099218D01*
X162958997Y-138065734D01*
X162985355Y-138062900D01*
X169173100Y-138062900D01*
X169240139Y-138082585D01*
X169285894Y-138135389D01*
X169297100Y-138186900D01*
X169297100Y-140230388D01*
X169287051Y-140279288D01*
X169238159Y-140393219D01*
X169197100Y-140593014D01*
X169197100Y-140995862D01*
X169212562Y-141147924D01*
X169273620Y-141342530D01*
X169273623Y-141342536D01*
X169273624Y-141342539D01*
X169324511Y-141434218D01*
X169372612Y-141520880D01*
X169372612Y-141520881D01*
X169501533Y-141671055D01*
X169505472Y-141675643D01*
X169666766Y-141800495D01*
X169849891Y-141890322D01*
X170047350Y-141941447D01*
X170251058Y-141951778D01*
X170452676Y-141920891D01*
X170643949Y-141850052D01*
X170817047Y-141742159D01*
X170964883Y-141601630D01*
X171081404Y-141434219D01*
X171161841Y-141246780D01*
X171202900Y-141046985D01*
X171202900Y-140644139D01*
X171187437Y-140492077D01*
X171187437Y-140492075D01*
X171126379Y-140297469D01*
X171126377Y-140297465D01*
X171126376Y-140297461D01*
X171118481Y-140283236D01*
X171102900Y-140223059D01*
X171102900Y-138186900D01*
X171122585Y-138119861D01*
X171175389Y-138074106D01*
X171226900Y-138062900D01*
X177459645Y-138062900D01*
X177526684Y-138082585D01*
X177547326Y-138099219D01*
X178130781Y-138682674D01*
X178164266Y-138743997D01*
X178167100Y-138770355D01*
X178167100Y-140230388D01*
X178157051Y-140279288D01*
X178108159Y-140393219D01*
X178067100Y-140593014D01*
X178067100Y-140995862D01*
X178082562Y-141147924D01*
X178143620Y-141342530D01*
X178143623Y-141342536D01*
X178143624Y-141342539D01*
X178194511Y-141434218D01*
X178242612Y-141520880D01*
X178242612Y-141520881D01*
X178371533Y-141671055D01*
X178375472Y-141675643D01*
X178536766Y-141800495D01*
X178719891Y-141890322D01*
X178917350Y-141941447D01*
X179121058Y-141951778D01*
X179322676Y-141920891D01*
X179513949Y-141850052D01*
X179687047Y-141742159D01*
X179834883Y-141601630D01*
X179951404Y-141434219D01*
X180031841Y-141246780D01*
X180072900Y-141046985D01*
X180072900Y-140644139D01*
X180057437Y-140492077D01*
X180057437Y-140492075D01*
X179996379Y-140297469D01*
X179996377Y-140297465D01*
X179996376Y-140297461D01*
X179988481Y-140283236D01*
X179972900Y-140223059D01*
X179972900Y-138425815D01*
X179974427Y-138406414D01*
X179974693Y-138404735D01*
X179976629Y-138392514D01*
X179972984Y-138322987D01*
X179972900Y-138319742D01*
X179972900Y-138297686D01*
X179972899Y-138297678D01*
X179971879Y-138287977D01*
X179970592Y-138275730D01*
X179970339Y-138272523D01*
X179966695Y-138202977D01*
X179963052Y-138189380D01*
X179959506Y-138170254D01*
X179958034Y-138156243D01*
X179936507Y-138089993D01*
X179935587Y-138086884D01*
X179932170Y-138074132D01*
X179917572Y-138019647D01*
X179911175Y-138007094D01*
X179903734Y-137989127D01*
X179899383Y-137975735D01*
X179876174Y-137935536D01*
X179864563Y-137915424D01*
X179863014Y-137912571D01*
X179831407Y-137850537D01*
X179831405Y-137850535D01*
X179822543Y-137839591D01*
X179811526Y-137823562D01*
X179804485Y-137811366D01*
X179804482Y-137811363D01*
X179804482Y-137811362D01*
X179757875Y-137759600D01*
X179755767Y-137757131D01*
X179754297Y-137755316D01*
X179741903Y-137740010D01*
X179726316Y-137724423D01*
X179724080Y-137722067D01*
X179677486Y-137670319D01*
X179677484Y-137670317D01*
X179666089Y-137662038D01*
X179651296Y-137649403D01*
X178580595Y-136578702D01*
X178567958Y-136563906D01*
X178559681Y-136552514D01*
X178559680Y-136552513D01*
X178559679Y-136552511D01*
X178507931Y-136505918D01*
X178505576Y-136503683D01*
X178489988Y-136488095D01*
X178472848Y-136474216D01*
X178470379Y-136472107D01*
X178418634Y-136425515D01*
X178418631Y-136425513D01*
X178418628Y-136425511D01*
X178406434Y-136418470D01*
X178390409Y-136407456D01*
X178379463Y-136398592D01*
X178317418Y-136366980D01*
X178314565Y-136365431D01*
X178254265Y-136330617D01*
X178240867Y-136326263D01*
X178222899Y-136318820D01*
X178210351Y-136312427D01*
X178210349Y-136312426D01*
X178143085Y-136294402D01*
X178139974Y-136293481D01*
X178073757Y-136271965D01*
X178059750Y-136270493D01*
X178040623Y-136266948D01*
X178027022Y-136263303D01*
X177957479Y-136259658D01*
X177954247Y-136259404D01*
X177941646Y-136258080D01*
X177932315Y-136257100D01*
X177932310Y-136257100D01*
X177910264Y-136257100D01*
X177907019Y-136257015D01*
X177837486Y-136253371D01*
X177837485Y-136253371D01*
X177823583Y-136255573D01*
X177804184Y-136257100D01*
X170205264Y-136257100D01*
X170202019Y-136257015D01*
X170132486Y-136253371D01*
X170132485Y-136253371D01*
X170118583Y-136255573D01*
X170099184Y-136257100D01*
X163586900Y-136257100D01*
X163519861Y-136237415D01*
X163474106Y-136184611D01*
X163462900Y-136133100D01*
X163462900Y-129540000D01*
X178062247Y-129540000D01*
X178081610Y-129736599D01*
X178081610Y-129736601D01*
X178081611Y-129736603D01*
X178138958Y-129925650D01*
X178232084Y-130099878D01*
X178232086Y-130099881D01*
X178357410Y-130252589D01*
X178510118Y-130377913D01*
X178510122Y-130377916D01*
X178684350Y-130471042D01*
X178873397Y-130528389D01*
X179070000Y-130547753D01*
X179266603Y-130528389D01*
X179455650Y-130471042D01*
X179629878Y-130377916D01*
X179782589Y-130252589D01*
X179907916Y-130099878D01*
X180001042Y-129925650D01*
X180058389Y-129736603D01*
X180077753Y-129540000D01*
X180602247Y-129540000D01*
X180621610Y-129736599D01*
X180621610Y-129736601D01*
X180621611Y-129736603D01*
X180678958Y-129925650D01*
X180772084Y-130099878D01*
X180772086Y-130099881D01*
X180897410Y-130252589D01*
X181050118Y-130377913D01*
X181050122Y-130377916D01*
X181224350Y-130471042D01*
X181413397Y-130528389D01*
X181610000Y-130547753D01*
X181806603Y-130528389D01*
X181995650Y-130471042D01*
X182169878Y-130377916D01*
X182322589Y-130252589D01*
X182447916Y-130099878D01*
X182541042Y-129925650D01*
X182598389Y-129736603D01*
X182617753Y-129540000D01*
X182598389Y-129343397D01*
X182541042Y-129154350D01*
X182447916Y-128980122D01*
X182447913Y-128980118D01*
X182322589Y-128827410D01*
X182169881Y-128702086D01*
X182169879Y-128702085D01*
X182169878Y-128702084D01*
X181995650Y-128608958D01*
X181806603Y-128551611D01*
X181806601Y-128551610D01*
X181806599Y-128551610D01*
X181610000Y-128532247D01*
X181413400Y-128551610D01*
X181224350Y-128608958D01*
X181050118Y-128702086D01*
X180897410Y-128827410D01*
X180772086Y-128980118D01*
X180678958Y-129154350D01*
X180621610Y-129343400D01*
X180602247Y-129540000D01*
X180077753Y-129540000D01*
X180058389Y-129343397D01*
X180001042Y-129154350D01*
X179907916Y-128980122D01*
X179907913Y-128980118D01*
X179782589Y-128827410D01*
X179629881Y-128702086D01*
X179629879Y-128702085D01*
X179629878Y-128702084D01*
X179455650Y-128608958D01*
X179266603Y-128551611D01*
X179266601Y-128551610D01*
X179266599Y-128551610D01*
X179097483Y-128534953D01*
X179070000Y-128532247D01*
X179069999Y-128532247D01*
X178873400Y-128551610D01*
X178684350Y-128608958D01*
X178510118Y-128702086D01*
X178357410Y-128827410D01*
X178232086Y-128980118D01*
X178138958Y-129154350D01*
X178081610Y-129343400D01*
X178062247Y-129540000D01*
X163462900Y-129540000D01*
X163462900Y-127000000D01*
X178062247Y-127000000D01*
X178081610Y-127196599D01*
X178081610Y-127196601D01*
X178081611Y-127196603D01*
X178138958Y-127385650D01*
X178232084Y-127559878D01*
X178232086Y-127559881D01*
X178357410Y-127712589D01*
X178510118Y-127837913D01*
X178510122Y-127837916D01*
X178684350Y-127931042D01*
X178873397Y-127988389D01*
X179070000Y-128007753D01*
X179266603Y-127988389D01*
X179455650Y-127931042D01*
X179629878Y-127837916D01*
X179782589Y-127712589D01*
X179907916Y-127559878D01*
X180001042Y-127385650D01*
X180058389Y-127196603D01*
X180077753Y-127000000D01*
X180602247Y-127000000D01*
X180621610Y-127196599D01*
X180621610Y-127196601D01*
X180621611Y-127196603D01*
X180678958Y-127385650D01*
X180772084Y-127559878D01*
X180772086Y-127559881D01*
X180897410Y-127712589D01*
X181050118Y-127837913D01*
X181050122Y-127837916D01*
X181224350Y-127931042D01*
X181413397Y-127988389D01*
X181610000Y-128007753D01*
X181806603Y-127988389D01*
X181995650Y-127931042D01*
X182169878Y-127837916D01*
X182322589Y-127712589D01*
X182447916Y-127559878D01*
X182541042Y-127385650D01*
X182598389Y-127196603D01*
X182617753Y-127000000D01*
X182598389Y-126803397D01*
X182541042Y-126614350D01*
X182447916Y-126440122D01*
X182435992Y-126425592D01*
X182322589Y-126287410D01*
X182169881Y-126162086D01*
X182169879Y-126162085D01*
X182169878Y-126162084D01*
X181995650Y-126068958D01*
X181806603Y-126011611D01*
X181806601Y-126011610D01*
X181806599Y-126011610D01*
X181610000Y-125992247D01*
X181413400Y-126011610D01*
X181224350Y-126068958D01*
X181050118Y-126162086D01*
X180897410Y-126287410D01*
X180772086Y-126440118D01*
X180678958Y-126614350D01*
X180621610Y-126803400D01*
X180602247Y-127000000D01*
X180077753Y-127000000D01*
X180058389Y-126803397D01*
X180001042Y-126614350D01*
X179907916Y-126440122D01*
X179895992Y-126425592D01*
X179782589Y-126287410D01*
X179629881Y-126162086D01*
X179629879Y-126162085D01*
X179629878Y-126162084D01*
X179455650Y-126068958D01*
X179266603Y-126011611D01*
X179266601Y-126011610D01*
X179266599Y-126011610D01*
X179097483Y-125994953D01*
X179070000Y-125992247D01*
X179069999Y-125992247D01*
X178873400Y-126011610D01*
X178684350Y-126068958D01*
X178510118Y-126162086D01*
X178357410Y-126287410D01*
X178232086Y-126440118D01*
X178138958Y-126614350D01*
X178081610Y-126803400D01*
X178062247Y-127000000D01*
X163462900Y-127000000D01*
X163462900Y-124460000D01*
X178062247Y-124460000D01*
X178081610Y-124656599D01*
X178081610Y-124656601D01*
X178081611Y-124656603D01*
X178138958Y-124845650D01*
X178232084Y-125019878D01*
X178232086Y-125019881D01*
X178357410Y-125172589D01*
X178510118Y-125297913D01*
X178510122Y-125297916D01*
X178684350Y-125391042D01*
X178873397Y-125448389D01*
X179070000Y-125467753D01*
X179266603Y-125448389D01*
X179455650Y-125391042D01*
X179629878Y-125297916D01*
X179782589Y-125172589D01*
X179907916Y-125019878D01*
X180001042Y-124845650D01*
X180058389Y-124656603D01*
X180077753Y-124460000D01*
X180602247Y-124460000D01*
X180621610Y-124656599D01*
X180621610Y-124656601D01*
X180621611Y-124656603D01*
X180678958Y-124845650D01*
X180772084Y-125019878D01*
X180772086Y-125019881D01*
X180897410Y-125172589D01*
X181050118Y-125297913D01*
X181050122Y-125297916D01*
X181224350Y-125391042D01*
X181413397Y-125448389D01*
X181610000Y-125467753D01*
X181806603Y-125448389D01*
X181995650Y-125391042D01*
X182169878Y-125297916D01*
X182322589Y-125172589D01*
X182447916Y-125019878D01*
X182541042Y-124845650D01*
X182598389Y-124656603D01*
X182617753Y-124460000D01*
X182598389Y-124263397D01*
X182541042Y-124074350D01*
X182447916Y-123900122D01*
X182447913Y-123900118D01*
X182322589Y-123747410D01*
X182169881Y-123622086D01*
X182169879Y-123622085D01*
X182169878Y-123622084D01*
X181995650Y-123528958D01*
X181806603Y-123471611D01*
X181806601Y-123471610D01*
X181806599Y-123471610D01*
X181610000Y-123452247D01*
X181413400Y-123471610D01*
X181224350Y-123528958D01*
X181050118Y-123622086D01*
X180897410Y-123747410D01*
X180772086Y-123900118D01*
X180678958Y-124074350D01*
X180621610Y-124263400D01*
X180602247Y-124460000D01*
X180077753Y-124460000D01*
X180058389Y-124263397D01*
X180001042Y-124074350D01*
X179907916Y-123900122D01*
X179907913Y-123900118D01*
X179782589Y-123747410D01*
X179629881Y-123622086D01*
X179629879Y-123622085D01*
X179629878Y-123622084D01*
X179455650Y-123528958D01*
X179266603Y-123471611D01*
X179266601Y-123471610D01*
X179266599Y-123471610D01*
X179070000Y-123452247D01*
X178873400Y-123471610D01*
X178684350Y-123528958D01*
X178510118Y-123622086D01*
X178357410Y-123747410D01*
X178232086Y-123900118D01*
X178138958Y-124074350D01*
X178081610Y-124263400D01*
X178062247Y-124460000D01*
X163462900Y-124460000D01*
X163462900Y-122085377D01*
X163463240Y-122078892D01*
X163467714Y-122036315D01*
X163479940Y-121920000D01*
X164180060Y-121920000D01*
X164200163Y-122111268D01*
X164200164Y-122111270D01*
X164259590Y-122294167D01*
X164259593Y-122294173D01*
X164355752Y-122460726D01*
X164408695Y-122519526D01*
X164484440Y-122603649D01*
X164524273Y-122632589D01*
X164640025Y-122716688D01*
X164640030Y-122716691D01*
X164815717Y-122794913D01*
X164815723Y-122794915D01*
X165003840Y-122834900D01*
X165003841Y-122834900D01*
X165196159Y-122834900D01*
X165196160Y-122834900D01*
X165384277Y-122794915D01*
X165384279Y-122794913D01*
X165384282Y-122794913D01*
X165443461Y-122768564D01*
X165559970Y-122716691D01*
X165715560Y-122603649D01*
X165844247Y-122460727D01*
X165940407Y-122294173D01*
X165999837Y-122111266D01*
X166019940Y-121920000D01*
X166720060Y-121920000D01*
X166740163Y-122111268D01*
X166740164Y-122111270D01*
X166799590Y-122294167D01*
X166799593Y-122294173D01*
X166895752Y-122460726D01*
X166948695Y-122519526D01*
X167024440Y-122603649D01*
X167064273Y-122632589D01*
X167180025Y-122716688D01*
X167180030Y-122716691D01*
X167355717Y-122794913D01*
X167355723Y-122794915D01*
X167543840Y-122834900D01*
X167543841Y-122834900D01*
X167736159Y-122834900D01*
X167736160Y-122834900D01*
X167924277Y-122794915D01*
X167924279Y-122794913D01*
X167924282Y-122794913D01*
X167983461Y-122768564D01*
X168099970Y-122716691D01*
X168255560Y-122603649D01*
X168384247Y-122460727D01*
X168480407Y-122294173D01*
X168539837Y-122111266D01*
X168559940Y-121920000D01*
X178062247Y-121920000D01*
X178081610Y-122116599D01*
X178081610Y-122116601D01*
X178081611Y-122116603D01*
X178138958Y-122305650D01*
X178221848Y-122460727D01*
X178232086Y-122479881D01*
X178357410Y-122632589D01*
X178510118Y-122757913D01*
X178510122Y-122757916D01*
X178684350Y-122851042D01*
X178873397Y-122908389D01*
X179070000Y-122927753D01*
X179266603Y-122908389D01*
X179455650Y-122851042D01*
X179629878Y-122757916D01*
X179782589Y-122632589D01*
X179907916Y-122479878D01*
X180001042Y-122305650D01*
X180058389Y-122116603D01*
X180077753Y-121920000D01*
X180755317Y-121920000D01*
X180773994Y-122097700D01*
X180773995Y-122097702D01*
X180829205Y-122267625D01*
X180829208Y-122267631D01*
X180918546Y-122422368D01*
X181038103Y-122555151D01*
X181182658Y-122660177D01*
X181345883Y-122732850D01*
X181345888Y-122732852D01*
X181520662Y-122770001D01*
X181699337Y-122770001D01*
X181874111Y-122732852D01*
X181874116Y-122732850D01*
X182037341Y-122660177D01*
X182181896Y-122555151D01*
X182301453Y-122422368D01*
X182390791Y-122267631D01*
X182390794Y-122267625D01*
X182446004Y-122097702D01*
X182446005Y-122097700D01*
X182464682Y-121920000D01*
X182446005Y-121742299D01*
X182446004Y-121742297D01*
X182390794Y-121572374D01*
X182390791Y-121572368D01*
X182301453Y-121417631D01*
X182181896Y-121284848D01*
X182037341Y-121179822D01*
X181874116Y-121107149D01*
X181874111Y-121107147D01*
X181699338Y-121069999D01*
X181520662Y-121069999D01*
X181345888Y-121107147D01*
X181345883Y-121107149D01*
X181182659Y-121179822D01*
X181182654Y-121179825D01*
X181038106Y-121284846D01*
X181038099Y-121284851D01*
X180918546Y-121417631D01*
X180829208Y-121572368D01*
X180829205Y-121572374D01*
X180773995Y-121742297D01*
X180773994Y-121742299D01*
X180755317Y-121920000D01*
X180077753Y-121920000D01*
X180058389Y-121723397D01*
X180001042Y-121534350D01*
X179907916Y-121360122D01*
X179846143Y-121284851D01*
X179782589Y-121207410D01*
X179629881Y-121082086D01*
X179629879Y-121082085D01*
X179629878Y-121082084D01*
X179455650Y-120988958D01*
X179266603Y-120931611D01*
X179266601Y-120931610D01*
X179266599Y-120931610D01*
X179070000Y-120912247D01*
X178873400Y-120931610D01*
X178684350Y-120988958D01*
X178510118Y-121082086D01*
X178357410Y-121207410D01*
X178232086Y-121360118D01*
X178138958Y-121534350D01*
X178081610Y-121723400D01*
X178062247Y-121920000D01*
X168559940Y-121920000D01*
X168539837Y-121728734D01*
X168480407Y-121545827D01*
X168384247Y-121379273D01*
X168367000Y-121360118D01*
X168255564Y-121236355D01*
X168255562Y-121236353D01*
X168255560Y-121236351D01*
X168177754Y-121179822D01*
X168099974Y-121123311D01*
X168099969Y-121123308D01*
X167924282Y-121045086D01*
X167924276Y-121045084D01*
X167776144Y-121013598D01*
X167736160Y-121005100D01*
X167543840Y-121005100D01*
X167510864Y-121012108D01*
X167355723Y-121045084D01*
X167355717Y-121045086D01*
X167180030Y-121123308D01*
X167180025Y-121123311D01*
X167024441Y-121236350D01*
X167024435Y-121236355D01*
X166895752Y-121379273D01*
X166799593Y-121545826D01*
X166799590Y-121545832D01*
X166740164Y-121728729D01*
X166740163Y-121728731D01*
X166720060Y-121920000D01*
X166019940Y-121920000D01*
X165999837Y-121728734D01*
X165940407Y-121545827D01*
X165844247Y-121379273D01*
X165827000Y-121360118D01*
X165715564Y-121236355D01*
X165715562Y-121236353D01*
X165715560Y-121236351D01*
X165637754Y-121179822D01*
X165559974Y-121123311D01*
X165559969Y-121123308D01*
X165384282Y-121045086D01*
X165384276Y-121045084D01*
X165236144Y-121013598D01*
X165196160Y-121005100D01*
X165003840Y-121005100D01*
X164970864Y-121012108D01*
X164815723Y-121045084D01*
X164815717Y-121045086D01*
X164640030Y-121123308D01*
X164640025Y-121123311D01*
X164484441Y-121236350D01*
X164484435Y-121236355D01*
X164355752Y-121379273D01*
X164259593Y-121545826D01*
X164259590Y-121545832D01*
X164200164Y-121728729D01*
X164200163Y-121728731D01*
X164180060Y-121920000D01*
X163479940Y-121920000D01*
X163469314Y-121818909D01*
X163463240Y-121761106D01*
X163462900Y-121754621D01*
X163462900Y-119380000D01*
X178062247Y-119380000D01*
X178081610Y-119576599D01*
X178081610Y-119576601D01*
X178081611Y-119576603D01*
X178138958Y-119765650D01*
X178232084Y-119939878D01*
X178232086Y-119939881D01*
X178357410Y-120092589D01*
X178510118Y-120217913D01*
X178510122Y-120217916D01*
X178684350Y-120311042D01*
X178873397Y-120368389D01*
X179070000Y-120387753D01*
X179266603Y-120368389D01*
X179455650Y-120311042D01*
X179629878Y-120217916D01*
X179782589Y-120092589D01*
X179907916Y-119939878D01*
X180001042Y-119765650D01*
X180058389Y-119576603D01*
X180077753Y-119380000D01*
X180602247Y-119380000D01*
X180621610Y-119576599D01*
X180621610Y-119576601D01*
X180621611Y-119576603D01*
X180678958Y-119765650D01*
X180772084Y-119939878D01*
X180772086Y-119939881D01*
X180897410Y-120092589D01*
X181050118Y-120217913D01*
X181050122Y-120217916D01*
X181224350Y-120311042D01*
X181413397Y-120368389D01*
X181610000Y-120387753D01*
X181806603Y-120368389D01*
X181995650Y-120311042D01*
X182169878Y-120217916D01*
X182322589Y-120092589D01*
X182447916Y-119939878D01*
X182541042Y-119765650D01*
X182598389Y-119576603D01*
X182617753Y-119380000D01*
X182598389Y-119183397D01*
X182541042Y-118994350D01*
X182447916Y-118820122D01*
X182447913Y-118820118D01*
X182322589Y-118667410D01*
X182169881Y-118542086D01*
X182169879Y-118542085D01*
X182169878Y-118542084D01*
X181995650Y-118448958D01*
X181806603Y-118391611D01*
X181806601Y-118391610D01*
X181806599Y-118391610D01*
X181610000Y-118372247D01*
X181413400Y-118391610D01*
X181224350Y-118448958D01*
X181050118Y-118542086D01*
X180897410Y-118667410D01*
X180772086Y-118820118D01*
X180678958Y-118994350D01*
X180621610Y-119183400D01*
X180602247Y-119380000D01*
X180077753Y-119380000D01*
X180058389Y-119183397D01*
X180001042Y-118994350D01*
X179907916Y-118820122D01*
X179907913Y-118820118D01*
X179782589Y-118667410D01*
X179629881Y-118542086D01*
X179629879Y-118542085D01*
X179629878Y-118542084D01*
X179455650Y-118448958D01*
X179266603Y-118391611D01*
X179266601Y-118391610D01*
X179266599Y-118391610D01*
X179070000Y-118372247D01*
X178873400Y-118391610D01*
X178684350Y-118448958D01*
X178510118Y-118542086D01*
X178357410Y-118667410D01*
X178232086Y-118820118D01*
X178138958Y-118994350D01*
X178081610Y-119183400D01*
X178062247Y-119380000D01*
X163462900Y-119380000D01*
X163462900Y-117265355D01*
X163482585Y-117198316D01*
X163499219Y-117177674D01*
X163836893Y-116840000D01*
X178062247Y-116840000D01*
X178081610Y-117036599D01*
X178081610Y-117036601D01*
X178081611Y-117036603D01*
X178138958Y-117225650D01*
X178160181Y-117265355D01*
X178232086Y-117399881D01*
X178357410Y-117552589D01*
X178510118Y-117677913D01*
X178510122Y-117677916D01*
X178684350Y-117771042D01*
X178873397Y-117828389D01*
X179070000Y-117847753D01*
X179266603Y-117828389D01*
X179455650Y-117771042D01*
X179629878Y-117677916D01*
X179782589Y-117552589D01*
X179907916Y-117399878D01*
X180001042Y-117225650D01*
X180058389Y-117036603D01*
X180077753Y-116840000D01*
X180602247Y-116840000D01*
X180621610Y-117036599D01*
X180621610Y-117036601D01*
X180621611Y-117036603D01*
X180678958Y-117225650D01*
X180700181Y-117265355D01*
X180772086Y-117399881D01*
X180897410Y-117552589D01*
X181050118Y-117677913D01*
X181050122Y-117677916D01*
X181224350Y-117771042D01*
X181413397Y-117828389D01*
X181610000Y-117847753D01*
X181806603Y-117828389D01*
X181995650Y-117771042D01*
X182169878Y-117677916D01*
X182322589Y-117552589D01*
X182447916Y-117399878D01*
X182541042Y-117225650D01*
X182598389Y-117036603D01*
X182617753Y-116840000D01*
X182598389Y-116643397D01*
X182541042Y-116454350D01*
X182447916Y-116280122D01*
X182447913Y-116280118D01*
X182322589Y-116127410D01*
X182169881Y-116002086D01*
X182169879Y-116002085D01*
X182169878Y-116002084D01*
X181995650Y-115908958D01*
X181806603Y-115851611D01*
X181806601Y-115851610D01*
X181806599Y-115851610D01*
X181610000Y-115832247D01*
X181413400Y-115851610D01*
X181224350Y-115908958D01*
X181050118Y-116002086D01*
X180897410Y-116127410D01*
X180772086Y-116280118D01*
X180678958Y-116454350D01*
X180621610Y-116643400D01*
X180602247Y-116840000D01*
X180077753Y-116840000D01*
X180058389Y-116643397D01*
X180001042Y-116454350D01*
X179907916Y-116280122D01*
X179907913Y-116280118D01*
X179782589Y-116127410D01*
X179629881Y-116002086D01*
X179629879Y-116002085D01*
X179629878Y-116002084D01*
X179455650Y-115908958D01*
X179266603Y-115851611D01*
X179266601Y-115851610D01*
X179266599Y-115851610D01*
X179070000Y-115832247D01*
X178873400Y-115851610D01*
X178684350Y-115908958D01*
X178510118Y-116002086D01*
X178357410Y-116127410D01*
X178232086Y-116280118D01*
X178138958Y-116454350D01*
X178081610Y-116643400D01*
X178062247Y-116840000D01*
X163836893Y-116840000D01*
X164167674Y-116509219D01*
X164228997Y-116475734D01*
X164255355Y-116472900D01*
X167315426Y-116472900D01*
X167351421Y-116478239D01*
X167453199Y-116509113D01*
X167640000Y-116527511D01*
X167826801Y-116509113D01*
X168006424Y-116454625D01*
X168006428Y-116454623D01*
X168171959Y-116366145D01*
X168171961Y-116366142D01*
X168171965Y-116366141D01*
X168317063Y-116247063D01*
X168436141Y-116101965D01*
X168436142Y-116101961D01*
X168436145Y-116101959D01*
X168524623Y-115936428D01*
X168524623Y-115936427D01*
X168524625Y-115936424D01*
X168579113Y-115756801D01*
X168597511Y-115570000D01*
X168579113Y-115383199D01*
X168524625Y-115203576D01*
X168524623Y-115203573D01*
X168524623Y-115203571D01*
X168436145Y-115038040D01*
X168436140Y-115038034D01*
X168317063Y-114892936D01*
X168171965Y-114773859D01*
X168171959Y-114773854D01*
X168006428Y-114685376D01*
X167826799Y-114630886D01*
X167640000Y-114612489D01*
X167453200Y-114630886D01*
X167351421Y-114661761D01*
X167315426Y-114667100D01*
X163910816Y-114667100D01*
X163891416Y-114665573D01*
X163877515Y-114663371D01*
X163877514Y-114663371D01*
X163807986Y-114667015D01*
X163804743Y-114667100D01*
X163782685Y-114667100D01*
X163765599Y-114668895D01*
X163760745Y-114669405D01*
X163757514Y-114669659D01*
X163687980Y-114673304D01*
X163687975Y-114673305D01*
X163674369Y-114676950D01*
X163655256Y-114680492D01*
X163641244Y-114681965D01*
X163641238Y-114681966D01*
X163575018Y-114703483D01*
X163571907Y-114704404D01*
X163504648Y-114722427D01*
X163492094Y-114728823D01*
X163474132Y-114736263D01*
X163460737Y-114740616D01*
X163400432Y-114775431D01*
X163397581Y-114776979D01*
X163335540Y-114808591D01*
X163335539Y-114808591D01*
X163324588Y-114817459D01*
X163308560Y-114828474D01*
X163296367Y-114835513D01*
X163244623Y-114882104D01*
X163242157Y-114884210D01*
X163225003Y-114898102D01*
X163209409Y-114913696D01*
X163207057Y-114915927D01*
X163155316Y-114962516D01*
X163147039Y-114973909D01*
X163134405Y-114988700D01*
X161978700Y-116144405D01*
X161963909Y-116157039D01*
X161952516Y-116165316D01*
X161905927Y-116217057D01*
X161903696Y-116219409D01*
X161888102Y-116235003D01*
X161874210Y-116252157D01*
X161872104Y-116254623D01*
X161825513Y-116306367D01*
X161818474Y-116318560D01*
X161807459Y-116334588D01*
X161798591Y-116345539D01*
X161798591Y-116345540D01*
X161766979Y-116407581D01*
X161765431Y-116410432D01*
X161730616Y-116470737D01*
X161726263Y-116484132D01*
X161718823Y-116502094D01*
X161712427Y-116514648D01*
X161694401Y-116581918D01*
X161693480Y-116585029D01*
X161671967Y-116651238D01*
X161671966Y-116651240D01*
X161671966Y-116651243D01*
X161670494Y-116665246D01*
X161666949Y-116684372D01*
X161663303Y-116697976D01*
X161659658Y-116767519D01*
X161659404Y-116770750D01*
X161657100Y-116792687D01*
X161657100Y-116814735D01*
X161657015Y-116817980D01*
X161653371Y-116887513D01*
X161655573Y-116901414D01*
X161657100Y-116920815D01*
X161657100Y-121754621D01*
X161656760Y-121761106D01*
X161640060Y-121919999D01*
X161656760Y-122078892D01*
X161657100Y-122085377D01*
X161657100Y-136734644D01*
X161637415Y-136801683D01*
X161620781Y-136822325D01*
X160708700Y-137734405D01*
X160693909Y-137747039D01*
X160682516Y-137755316D01*
X160635927Y-137807057D01*
X160633696Y-137809409D01*
X160618102Y-137825003D01*
X160604210Y-137842157D01*
X160602104Y-137844623D01*
X160555513Y-137896367D01*
X160548474Y-137908560D01*
X160537459Y-137924588D01*
X160528591Y-137935539D01*
X160528591Y-137935540D01*
X160496979Y-137997581D01*
X160495431Y-138000432D01*
X160460616Y-138060737D01*
X160456263Y-138074132D01*
X160448823Y-138092094D01*
X160442427Y-138104648D01*
X160424401Y-138171918D01*
X160423480Y-138175029D01*
X160401967Y-138241238D01*
X160401966Y-138241240D01*
X160401966Y-138241243D01*
X160400493Y-138255251D01*
X160396949Y-138274372D01*
X160393303Y-138287976D01*
X160389658Y-138357519D01*
X160389404Y-138360750D01*
X160387100Y-138382687D01*
X160387100Y-138404735D01*
X160387015Y-138407980D01*
X160383371Y-138477513D01*
X160385573Y-138491414D01*
X160387100Y-138510815D01*
X160387100Y-140230388D01*
X160377051Y-140279288D01*
X160328159Y-140393219D01*
X160287100Y-140593014D01*
X160287100Y-140995862D01*
X159792900Y-140995862D01*
X159792900Y-140063286D01*
X159777958Y-139968949D01*
X159777957Y-139968947D01*
X159777957Y-139968945D01*
X159720016Y-139855229D01*
X159720014Y-139855227D01*
X159720011Y-139855221D01*
X159716578Y-139850495D01*
X159693102Y-139784688D01*
X159692900Y-139777616D01*
X159692900Y-127385355D01*
X159712585Y-127318316D01*
X159729219Y-127297674D01*
X160139374Y-126887519D01*
X160601306Y-126425586D01*
X160616096Y-126412955D01*
X160627486Y-126404681D01*
X160627489Y-126404676D01*
X160627492Y-126404675D01*
X160646921Y-126383095D01*
X160674078Y-126352933D01*
X160676280Y-126350612D01*
X160691904Y-126334990D01*
X160705803Y-126317823D01*
X160707882Y-126315390D01*
X160754485Y-126263634D01*
X160761527Y-126251435D01*
X160772544Y-126235405D01*
X160781406Y-126224463D01*
X160813026Y-126162403D01*
X160814559Y-126159581D01*
X160849382Y-126099266D01*
X160849383Y-126099265D01*
X160853733Y-126085875D01*
X160861181Y-126067892D01*
X160867572Y-126055352D01*
X160885601Y-125988061D01*
X160886507Y-125985006D01*
X160908034Y-125918757D01*
X160909505Y-125904752D01*
X160913050Y-125885626D01*
X160916696Y-125872023D01*
X160920340Y-125802461D01*
X160920592Y-125799264D01*
X160922900Y-125777315D01*
X160922900Y-125755264D01*
X160922985Y-125752019D01*
X160926629Y-125682486D01*
X160924427Y-125668583D01*
X160922900Y-125649184D01*
X160922900Y-122085377D01*
X160923240Y-122078892D01*
X160927714Y-122036315D01*
X160939940Y-121920000D01*
X160929314Y-121818909D01*
X160923240Y-121761106D01*
X160922900Y-121754621D01*
X160922900Y-116920815D01*
X160924427Y-116901414D01*
X160926629Y-116887514D01*
X160922985Y-116817980D01*
X160922900Y-116814742D01*
X160922900Y-116792686D01*
X160922899Y-116792678D01*
X160920593Y-116770739D01*
X160920339Y-116767523D01*
X160916695Y-116697977D01*
X160913052Y-116684380D01*
X160909506Y-116665254D01*
X160908034Y-116651243D01*
X160886507Y-116584993D01*
X160885587Y-116581884D01*
X160867573Y-116514651D01*
X160867572Y-116514647D01*
X160861175Y-116502094D01*
X160853734Y-116484127D01*
X160849383Y-116470735D01*
X160828146Y-116433951D01*
X160814563Y-116410424D01*
X160813014Y-116407571D01*
X160781407Y-116345537D01*
X160781405Y-116345535D01*
X160772545Y-116334594D01*
X160761525Y-116318560D01*
X160754485Y-116306366D01*
X160754482Y-116306363D01*
X160754482Y-116306362D01*
X160707875Y-116254600D01*
X160705767Y-116252131D01*
X160701663Y-116247063D01*
X160691903Y-116235010D01*
X160676316Y-116219423D01*
X160674080Y-116217067D01*
X160627486Y-116165319D01*
X160627484Y-116165317D01*
X160616089Y-116157038D01*
X160601296Y-116144403D01*
X159445595Y-114988702D01*
X159432958Y-114973907D01*
X159426761Y-114965377D01*
X159424679Y-114962511D01*
X159372931Y-114915918D01*
X159370576Y-114913683D01*
X159354988Y-114898095D01*
X159337848Y-114884216D01*
X159335379Y-114882107D01*
X159314461Y-114863272D01*
X159283634Y-114835515D01*
X159283631Y-114835513D01*
X159283628Y-114835511D01*
X159271434Y-114828470D01*
X159255409Y-114817456D01*
X159244463Y-114808592D01*
X159182418Y-114776980D01*
X159179565Y-114775431D01*
X159119265Y-114740617D01*
X159105867Y-114736263D01*
X159087899Y-114728820D01*
X159075351Y-114722427D01*
X159075349Y-114722426D01*
X159008085Y-114704402D01*
X159004974Y-114703481D01*
X158938757Y-114681965D01*
X158924750Y-114680493D01*
X158905623Y-114676948D01*
X158892022Y-114673303D01*
X158822479Y-114669658D01*
X158819247Y-114669404D01*
X158806646Y-114668080D01*
X158797315Y-114667100D01*
X158797310Y-114667100D01*
X158775264Y-114667100D01*
X158772019Y-114667015D01*
X158702486Y-114663371D01*
X158702485Y-114663371D01*
X158688583Y-114665573D01*
X158669184Y-114667100D01*
X157804574Y-114667100D01*
X157768579Y-114661761D01*
X157666799Y-114630886D01*
X157480000Y-114612489D01*
X157293200Y-114630886D01*
X157113571Y-114685376D01*
X156948040Y-114773854D01*
X156948034Y-114773859D01*
X156802936Y-114892936D01*
X156683859Y-115038034D01*
X156683854Y-115038040D01*
X156595376Y-115203571D01*
X156540886Y-115383200D01*
X156522489Y-115569999D01*
X150262900Y-115569999D01*
X150262900Y-115129478D01*
X150262900Y-115129476D01*
X150255992Y-115108216D01*
X150251452Y-115089304D01*
X150247957Y-115067234D01*
X150237813Y-115047327D01*
X150230365Y-115029345D01*
X150224921Y-115012589D01*
X150223462Y-115008097D01*
X150210325Y-114990015D01*
X150200162Y-114973432D01*
X150190016Y-114953518D01*
X150099771Y-114863273D01*
X150099770Y-114863272D01*
X149536498Y-114300000D01*
X178062247Y-114300000D01*
X178081610Y-114496599D01*
X178081610Y-114496601D01*
X178081611Y-114496603D01*
X178138958Y-114685650D01*
X178219060Y-114835511D01*
X178232086Y-114859881D01*
X178357410Y-115012589D01*
X178499840Y-115129478D01*
X178510122Y-115137916D01*
X178684350Y-115231042D01*
X178873397Y-115288389D01*
X179070000Y-115307753D01*
X179266603Y-115288389D01*
X179455650Y-115231042D01*
X179629878Y-115137916D01*
X179782589Y-115012589D01*
X179907916Y-114859878D01*
X180001042Y-114685650D01*
X180058389Y-114496603D01*
X180077753Y-114300000D01*
X180602247Y-114300000D01*
X180621610Y-114496599D01*
X180621610Y-114496601D01*
X180621611Y-114496603D01*
X180678958Y-114685650D01*
X180759060Y-114835511D01*
X180772086Y-114859881D01*
X180897410Y-115012589D01*
X181039840Y-115129478D01*
X181050122Y-115137916D01*
X181224350Y-115231042D01*
X181413397Y-115288389D01*
X181610000Y-115307753D01*
X181806603Y-115288389D01*
X181995650Y-115231042D01*
X182169878Y-115137916D01*
X182322589Y-115012589D01*
X182447916Y-114859878D01*
X182541042Y-114685650D01*
X182598389Y-114496603D01*
X182617753Y-114300000D01*
X182598389Y-114103397D01*
X182541042Y-113914350D01*
X182447916Y-113740122D01*
X182447913Y-113740118D01*
X182322589Y-113587410D01*
X182169881Y-113462086D01*
X182169879Y-113462085D01*
X182169878Y-113462084D01*
X181995650Y-113368958D01*
X181806603Y-113311611D01*
X181806601Y-113311610D01*
X181806599Y-113311610D01*
X181610000Y-113292247D01*
X181413400Y-113311610D01*
X181224350Y-113368958D01*
X181050118Y-113462086D01*
X180897410Y-113587410D01*
X180772086Y-113740118D01*
X180678958Y-113914350D01*
X180621610Y-114103400D01*
X180602247Y-114300000D01*
X180077753Y-114300000D01*
X180058389Y-114103397D01*
X180001042Y-113914350D01*
X179907916Y-113740122D01*
X179907913Y-113740118D01*
X179782589Y-113587410D01*
X179629881Y-113462086D01*
X179629879Y-113462085D01*
X179629878Y-113462084D01*
X179455650Y-113368958D01*
X179266603Y-113311611D01*
X179266601Y-113311610D01*
X179266599Y-113311610D01*
X179070000Y-113292247D01*
X178873400Y-113311610D01*
X178684350Y-113368958D01*
X178510118Y-113462086D01*
X178357410Y-113587410D01*
X178232086Y-113740118D01*
X178138958Y-113914350D01*
X178081610Y-114103400D01*
X178062247Y-114300000D01*
X149536498Y-114300000D01*
X146996497Y-111760000D01*
X178062247Y-111760000D01*
X178081610Y-111956599D01*
X178081610Y-111956601D01*
X178081611Y-111956603D01*
X178138958Y-112145650D01*
X178232084Y-112319878D01*
X178232086Y-112319881D01*
X178357410Y-112472589D01*
X178510118Y-112597913D01*
X178510122Y-112597916D01*
X178684350Y-112691042D01*
X178873397Y-112748389D01*
X179070000Y-112767753D01*
X179266603Y-112748389D01*
X179455650Y-112691042D01*
X179629878Y-112597916D01*
X179782589Y-112472589D01*
X179907916Y-112319878D01*
X180001042Y-112145650D01*
X180058389Y-111956603D01*
X180077753Y-111760000D01*
X180602247Y-111760000D01*
X180621610Y-111956599D01*
X180621610Y-111956601D01*
X180621611Y-111956603D01*
X180678958Y-112145650D01*
X180772084Y-112319878D01*
X180772086Y-112319881D01*
X180897410Y-112472589D01*
X181050118Y-112597913D01*
X181050122Y-112597916D01*
X181224350Y-112691042D01*
X181413397Y-112748389D01*
X181610000Y-112767753D01*
X181806603Y-112748389D01*
X181995650Y-112691042D01*
X182169878Y-112597916D01*
X182322589Y-112472589D01*
X182447916Y-112319878D01*
X182541042Y-112145650D01*
X182598389Y-111956603D01*
X182617753Y-111760000D01*
X182598389Y-111563397D01*
X182541042Y-111374350D01*
X182447916Y-111200122D01*
X182447913Y-111200118D01*
X182322589Y-111047410D01*
X182169881Y-110922086D01*
X182169879Y-110922085D01*
X182169878Y-110922084D01*
X181995650Y-110828958D01*
X181806603Y-110771611D01*
X181806601Y-110771610D01*
X181806599Y-110771610D01*
X181610000Y-110752247D01*
X181413400Y-110771610D01*
X181224350Y-110828958D01*
X181050118Y-110922086D01*
X180897410Y-111047410D01*
X180772086Y-111200118D01*
X180678958Y-111374350D01*
X180621610Y-111563400D01*
X180602247Y-111760000D01*
X180077753Y-111760000D01*
X180058389Y-111563397D01*
X180001042Y-111374350D01*
X179907916Y-111200122D01*
X179907913Y-111200118D01*
X179782589Y-111047410D01*
X179629881Y-110922086D01*
X179629879Y-110922085D01*
X179629878Y-110922084D01*
X179455650Y-110828958D01*
X179266603Y-110771611D01*
X179266601Y-110771610D01*
X179266599Y-110771610D01*
X179070000Y-110752247D01*
X178873400Y-110771610D01*
X178684350Y-110828958D01*
X178510118Y-110922086D01*
X178357410Y-111047410D01*
X178232086Y-111200118D01*
X178138958Y-111374350D01*
X178081610Y-111563400D01*
X178062247Y-111760000D01*
X146996497Y-111760000D01*
X144456497Y-109220000D01*
X178062247Y-109220000D01*
X178081610Y-109416599D01*
X178081610Y-109416601D01*
X178081611Y-109416603D01*
X178138958Y-109605650D01*
X178201345Y-109722368D01*
X178232086Y-109779881D01*
X178357410Y-109932589D01*
X178510118Y-110057913D01*
X178510122Y-110057916D01*
X178684350Y-110151042D01*
X178873397Y-110208389D01*
X179070000Y-110227753D01*
X179266603Y-110208389D01*
X179455650Y-110151042D01*
X179629878Y-110057916D01*
X179782589Y-109932589D01*
X179907916Y-109779878D01*
X180001042Y-109605650D01*
X180058389Y-109416603D01*
X180077753Y-109220000D01*
X180602247Y-109220000D01*
X180621610Y-109416599D01*
X180621610Y-109416601D01*
X180621611Y-109416603D01*
X180678958Y-109605650D01*
X180741345Y-109722368D01*
X180772086Y-109779881D01*
X180897410Y-109932589D01*
X181050118Y-110057913D01*
X181050122Y-110057916D01*
X181224350Y-110151042D01*
X181413397Y-110208389D01*
X181610000Y-110227753D01*
X181806603Y-110208389D01*
X181995650Y-110151042D01*
X182169878Y-110057916D01*
X182322589Y-109932589D01*
X182447916Y-109779878D01*
X182541042Y-109605650D01*
X182598389Y-109416603D01*
X182617753Y-109220000D01*
X182598389Y-109023397D01*
X182541042Y-108834350D01*
X182447916Y-108660122D01*
X182386143Y-108584851D01*
X182322589Y-108507410D01*
X182169881Y-108382086D01*
X182169879Y-108382085D01*
X182169878Y-108382084D01*
X181995650Y-108288958D01*
X181806603Y-108231611D01*
X181806601Y-108231610D01*
X181806599Y-108231610D01*
X181610000Y-108212247D01*
X181413400Y-108231610D01*
X181224350Y-108288958D01*
X181050118Y-108382086D01*
X180897410Y-108507410D01*
X180772086Y-108660118D01*
X180678958Y-108834350D01*
X180621610Y-109023400D01*
X180602247Y-109220000D01*
X180077753Y-109220000D01*
X180058389Y-109023397D01*
X180001042Y-108834350D01*
X179907916Y-108660122D01*
X179846143Y-108584851D01*
X179782589Y-108507410D01*
X179629881Y-108382086D01*
X179629879Y-108382085D01*
X179629878Y-108382084D01*
X179455650Y-108288958D01*
X179266603Y-108231611D01*
X179266601Y-108231610D01*
X179266599Y-108231610D01*
X179070000Y-108212247D01*
X178873400Y-108231610D01*
X178684350Y-108288958D01*
X178510118Y-108382086D01*
X178357410Y-108507410D01*
X178232086Y-108660118D01*
X178138958Y-108834350D01*
X178081610Y-109023400D01*
X178062247Y-109220000D01*
X144456497Y-109220000D01*
X141916497Y-106680000D01*
X178062247Y-106680000D01*
X178081610Y-106876599D01*
X178081610Y-106876601D01*
X178081611Y-106876603D01*
X178138958Y-107065650D01*
X178201345Y-107182368D01*
X178232086Y-107239881D01*
X178357410Y-107392589D01*
X178510118Y-107517913D01*
X178510122Y-107517916D01*
X178684350Y-107611042D01*
X178873397Y-107668389D01*
X179070000Y-107687753D01*
X179266603Y-107668389D01*
X179455650Y-107611042D01*
X179629878Y-107517916D01*
X179782589Y-107392589D01*
X179907916Y-107239878D01*
X180001042Y-107065650D01*
X180058389Y-106876603D01*
X180077753Y-106680000D01*
X180755317Y-106680000D01*
X180773994Y-106857700D01*
X180773995Y-106857702D01*
X180829205Y-107027625D01*
X180829208Y-107027631D01*
X180918546Y-107182368D01*
X181038103Y-107315151D01*
X181182658Y-107420177D01*
X181345883Y-107492850D01*
X181345888Y-107492852D01*
X181520662Y-107530001D01*
X181699337Y-107530001D01*
X181874111Y-107492852D01*
X181874116Y-107492850D01*
X182037341Y-107420177D01*
X182181896Y-107315151D01*
X182301453Y-107182368D01*
X182390791Y-107027631D01*
X182390794Y-107027625D01*
X182446004Y-106857702D01*
X182446005Y-106857700D01*
X182464682Y-106680000D01*
X182446005Y-106502299D01*
X182446004Y-106502297D01*
X182390794Y-106332374D01*
X182390791Y-106332368D01*
X182301453Y-106177631D01*
X182181896Y-106044848D01*
X182037341Y-105939822D01*
X181874116Y-105867149D01*
X181874111Y-105867147D01*
X181699338Y-105829999D01*
X181520662Y-105829999D01*
X181345888Y-105867147D01*
X181345883Y-105867149D01*
X181182659Y-105939822D01*
X181182654Y-105939825D01*
X181038106Y-106044846D01*
X181038099Y-106044851D01*
X180918546Y-106177631D01*
X180829208Y-106332368D01*
X180829205Y-106332374D01*
X180773995Y-106502297D01*
X180773994Y-106502299D01*
X180755317Y-106680000D01*
X180077753Y-106680000D01*
X180058389Y-106483397D01*
X180001042Y-106294350D01*
X179907916Y-106120122D01*
X179846143Y-106044851D01*
X179782589Y-105967410D01*
X179629881Y-105842086D01*
X179629879Y-105842085D01*
X179629878Y-105842084D01*
X179455650Y-105748958D01*
X179266603Y-105691611D01*
X179266601Y-105691610D01*
X179266599Y-105691610D01*
X179070000Y-105672247D01*
X178873400Y-105691610D01*
X178684350Y-105748958D01*
X178510118Y-105842086D01*
X178357410Y-105967410D01*
X178232086Y-106120118D01*
X178138958Y-106294350D01*
X178081610Y-106483400D01*
X178062247Y-106680000D01*
X141916497Y-106680000D01*
X139376497Y-104140000D01*
X178062247Y-104140000D01*
X178081610Y-104336599D01*
X178081610Y-104336601D01*
X178081611Y-104336603D01*
X178138958Y-104525650D01*
X178232084Y-104699878D01*
X178232086Y-104699881D01*
X178357410Y-104852589D01*
X178510118Y-104977913D01*
X178510122Y-104977916D01*
X178684350Y-105071042D01*
X178873397Y-105128389D01*
X179070000Y-105147753D01*
X179266603Y-105128389D01*
X179455650Y-105071042D01*
X179629878Y-104977916D01*
X179782589Y-104852589D01*
X179907916Y-104699878D01*
X180001042Y-104525650D01*
X180058389Y-104336603D01*
X180077753Y-104140000D01*
X180602247Y-104140000D01*
X180621610Y-104336599D01*
X180621610Y-104336601D01*
X180621611Y-104336603D01*
X180678958Y-104525650D01*
X180772084Y-104699878D01*
X180772086Y-104699881D01*
X180897410Y-104852589D01*
X181050118Y-104977913D01*
X181050122Y-104977916D01*
X181224350Y-105071042D01*
X181413397Y-105128389D01*
X181610000Y-105147753D01*
X181806603Y-105128389D01*
X181995650Y-105071042D01*
X182169878Y-104977916D01*
X182322589Y-104852589D01*
X182447916Y-104699878D01*
X182541042Y-104525650D01*
X182598389Y-104336603D01*
X182617753Y-104140000D01*
X182598389Y-103943397D01*
X182541042Y-103754350D01*
X182447916Y-103580122D01*
X182447913Y-103580118D01*
X182322589Y-103427410D01*
X182169881Y-103302086D01*
X182169879Y-103302085D01*
X182169878Y-103302084D01*
X181995650Y-103208958D01*
X181806603Y-103151611D01*
X181806601Y-103151610D01*
X181806599Y-103151610D01*
X181610000Y-103132247D01*
X181413400Y-103151610D01*
X181224350Y-103208958D01*
X181050118Y-103302086D01*
X180897410Y-103427410D01*
X180772086Y-103580118D01*
X180678958Y-103754350D01*
X180621610Y-103943400D01*
X180602247Y-104140000D01*
X180077753Y-104140000D01*
X180058389Y-103943397D01*
X180001042Y-103754350D01*
X179907916Y-103580122D01*
X179907913Y-103580118D01*
X179782589Y-103427410D01*
X179629881Y-103302086D01*
X179629879Y-103302085D01*
X179629878Y-103302084D01*
X179455650Y-103208958D01*
X179266603Y-103151611D01*
X179266601Y-103151610D01*
X179266599Y-103151610D01*
X179070000Y-103132247D01*
X178873400Y-103151610D01*
X178684350Y-103208958D01*
X178510118Y-103302086D01*
X178357410Y-103427410D01*
X178232086Y-103580118D01*
X178138958Y-103754350D01*
X178081610Y-103943400D01*
X178062247Y-104140000D01*
X139376497Y-104140000D01*
X136836497Y-101600000D01*
X178062247Y-101600000D01*
X178081610Y-101796599D01*
X178081610Y-101796601D01*
X178081611Y-101796603D01*
X178138958Y-101985650D01*
X178214457Y-102126900D01*
X178232086Y-102159881D01*
X178357410Y-102312589D01*
X178510118Y-102437913D01*
X178510122Y-102437916D01*
X178684350Y-102531042D01*
X178873397Y-102588389D01*
X179070000Y-102607753D01*
X179266603Y-102588389D01*
X179455650Y-102531042D01*
X179629878Y-102437916D01*
X179782589Y-102312589D01*
X179907916Y-102159878D01*
X180001042Y-101985650D01*
X180058389Y-101796603D01*
X180077753Y-101600000D01*
X180602247Y-101600000D01*
X180621610Y-101796599D01*
X180621610Y-101796601D01*
X180621611Y-101796603D01*
X180678958Y-101985650D01*
X180754457Y-102126900D01*
X180772086Y-102159881D01*
X180897410Y-102312589D01*
X181050118Y-102437913D01*
X181050122Y-102437916D01*
X181224350Y-102531042D01*
X181413397Y-102588389D01*
X181610000Y-102607753D01*
X181806603Y-102588389D01*
X181995650Y-102531042D01*
X182169878Y-102437916D01*
X182322589Y-102312589D01*
X182447916Y-102159878D01*
X182541042Y-101985650D01*
X182598389Y-101796603D01*
X182617753Y-101600000D01*
X182598389Y-101403397D01*
X182541042Y-101214350D01*
X182447916Y-101040122D01*
X182447913Y-101040118D01*
X182322589Y-100887410D01*
X182169881Y-100762086D01*
X182169879Y-100762085D01*
X182169878Y-100762084D01*
X181995650Y-100668958D01*
X181806603Y-100611611D01*
X181806601Y-100611610D01*
X181806599Y-100611610D01*
X181610000Y-100592247D01*
X181413400Y-100611610D01*
X181224350Y-100668958D01*
X181050118Y-100762086D01*
X180897410Y-100887410D01*
X180772086Y-101040118D01*
X180678958Y-101214350D01*
X180621610Y-101403400D01*
X180602247Y-101600000D01*
X180077753Y-101600000D01*
X180058389Y-101403397D01*
X180001042Y-101214350D01*
X179907916Y-101040122D01*
X179907913Y-101040118D01*
X179782589Y-100887410D01*
X179629881Y-100762086D01*
X179629879Y-100762085D01*
X179629878Y-100762084D01*
X179455650Y-100668958D01*
X179266603Y-100611611D01*
X179266601Y-100611610D01*
X179266599Y-100611610D01*
X179070000Y-100592247D01*
X178873400Y-100611610D01*
X178684350Y-100668958D01*
X178510118Y-100762086D01*
X178357410Y-100887410D01*
X178232086Y-101040118D01*
X178138958Y-101214350D01*
X178081610Y-101403400D01*
X178062247Y-101600000D01*
X136836497Y-101600000D01*
X136735821Y-101499324D01*
X136702337Y-101438002D01*
X136707321Y-101368310D01*
X136735822Y-101323963D01*
X136845435Y-101214350D01*
X137467314Y-100592473D01*
X137467314Y-100592472D01*
X137490016Y-100569771D01*
X137500160Y-100549859D01*
X137510322Y-100533276D01*
X137523461Y-100515193D01*
X137530366Y-100493941D01*
X137537812Y-100475963D01*
X137547957Y-100456055D01*
X137551453Y-100433975D01*
X137555994Y-100415065D01*
X137562900Y-100393813D01*
X137562900Y-100266187D01*
X137562900Y-99060000D01*
X178062247Y-99060000D01*
X178081610Y-99256599D01*
X178081610Y-99256601D01*
X178081611Y-99256603D01*
X178138958Y-99445650D01*
X178232084Y-99619878D01*
X178232086Y-99619881D01*
X178357410Y-99772589D01*
X178510118Y-99897913D01*
X178510122Y-99897916D01*
X178684350Y-99991042D01*
X178873397Y-100048389D01*
X179070000Y-100067753D01*
X179266603Y-100048389D01*
X179455650Y-99991042D01*
X179629878Y-99897916D01*
X179782589Y-99772589D01*
X179907916Y-99619878D01*
X180001042Y-99445650D01*
X180058389Y-99256603D01*
X180077753Y-99060000D01*
X180602247Y-99060000D01*
X180621610Y-99256599D01*
X180621610Y-99256601D01*
X180621611Y-99256603D01*
X180678958Y-99445650D01*
X180772084Y-99619878D01*
X180772086Y-99619881D01*
X180897410Y-99772589D01*
X181050118Y-99897913D01*
X181050122Y-99897916D01*
X181224350Y-99991042D01*
X181413397Y-100048389D01*
X181610000Y-100067753D01*
X181806603Y-100048389D01*
X181995650Y-99991042D01*
X182169878Y-99897916D01*
X182322589Y-99772589D01*
X182447916Y-99619878D01*
X182541042Y-99445650D01*
X182598389Y-99256603D01*
X182617753Y-99060000D01*
X182598389Y-98863397D01*
X182541042Y-98674350D01*
X182447916Y-98500122D01*
X182447913Y-98500118D01*
X182322589Y-98347410D01*
X182169881Y-98222086D01*
X182169879Y-98222085D01*
X182169878Y-98222084D01*
X181995650Y-98128958D01*
X181806603Y-98071611D01*
X181806601Y-98071610D01*
X181806599Y-98071610D01*
X181610000Y-98052247D01*
X181413400Y-98071610D01*
X181224350Y-98128958D01*
X181050118Y-98222086D01*
X180897410Y-98347410D01*
X180772086Y-98500118D01*
X180678958Y-98674350D01*
X180621610Y-98863400D01*
X180602247Y-99060000D01*
X180077753Y-99060000D01*
X180058389Y-98863397D01*
X180001042Y-98674350D01*
X179907916Y-98500122D01*
X179907913Y-98500118D01*
X179782589Y-98347410D01*
X179629881Y-98222086D01*
X179629879Y-98222085D01*
X179629878Y-98222084D01*
X179455650Y-98128958D01*
X179266603Y-98071611D01*
X179266601Y-98071610D01*
X179266599Y-98071610D01*
X179070000Y-98052247D01*
X178873400Y-98071610D01*
X178684350Y-98128958D01*
X178510118Y-98222086D01*
X178357410Y-98347410D01*
X178232086Y-98500118D01*
X178138958Y-98674350D01*
X178081610Y-98863400D01*
X178062247Y-99060000D01*
X137562900Y-99060000D01*
X137562900Y-96520000D01*
X178062247Y-96520000D01*
X178081610Y-96716599D01*
X178081610Y-96716601D01*
X178081611Y-96716603D01*
X178138958Y-96905650D01*
X178232084Y-97079878D01*
X178232086Y-97079881D01*
X178357410Y-97232589D01*
X178510118Y-97357913D01*
X178510122Y-97357916D01*
X178684350Y-97451042D01*
X178873397Y-97508389D01*
X179070000Y-97527753D01*
X179266603Y-97508389D01*
X179455650Y-97451042D01*
X179629878Y-97357916D01*
X179782589Y-97232589D01*
X179907916Y-97079878D01*
X180001042Y-96905650D01*
X180058389Y-96716603D01*
X180077753Y-96520000D01*
X180602247Y-96520000D01*
X180621610Y-96716599D01*
X180621610Y-96716601D01*
X180621611Y-96716603D01*
X180678958Y-96905650D01*
X180772084Y-97079878D01*
X180772086Y-97079881D01*
X180897410Y-97232589D01*
X181050118Y-97357913D01*
X181050122Y-97357916D01*
X181224350Y-97451042D01*
X181413397Y-97508389D01*
X181610000Y-97527753D01*
X181806603Y-97508389D01*
X181995650Y-97451042D01*
X182169878Y-97357916D01*
X182322589Y-97232589D01*
X182447916Y-97079878D01*
X182541042Y-96905650D01*
X182598389Y-96716603D01*
X182617753Y-96520000D01*
X182598389Y-96323397D01*
X182541042Y-96134350D01*
X182447916Y-95960122D01*
X182447913Y-95960118D01*
X182322589Y-95807410D01*
X182169881Y-95682086D01*
X182169879Y-95682085D01*
X182169878Y-95682084D01*
X181995650Y-95588958D01*
X181806603Y-95531611D01*
X181806601Y-95531610D01*
X181806599Y-95531610D01*
X181610000Y-95512247D01*
X181413400Y-95531610D01*
X181224350Y-95588958D01*
X181050118Y-95682086D01*
X180897410Y-95807410D01*
X180772086Y-95960118D01*
X180678958Y-96134350D01*
X180621610Y-96323400D01*
X180602247Y-96520000D01*
X180077753Y-96520000D01*
X180058389Y-96323397D01*
X180001042Y-96134350D01*
X179907916Y-95960122D01*
X179907913Y-95960118D01*
X179782589Y-95807410D01*
X179629881Y-95682086D01*
X179629879Y-95682085D01*
X179629878Y-95682084D01*
X179455650Y-95588958D01*
X179266603Y-95531611D01*
X179266601Y-95531610D01*
X179266599Y-95531610D01*
X179070000Y-95512247D01*
X178873400Y-95531610D01*
X178684350Y-95588958D01*
X178510118Y-95682086D01*
X178357410Y-95807410D01*
X178232086Y-95960118D01*
X178138958Y-96134350D01*
X178081610Y-96323400D01*
X178062247Y-96520000D01*
X137562900Y-96520000D01*
X137562900Y-93980000D01*
X178215317Y-93980000D01*
X178233994Y-94157700D01*
X178233995Y-94157702D01*
X178289205Y-94327625D01*
X178289208Y-94327631D01*
X178378546Y-94482368D01*
X178498103Y-94615151D01*
X178642658Y-94720177D01*
X178805883Y-94792850D01*
X178805888Y-94792852D01*
X178980662Y-94830001D01*
X179159337Y-94830001D01*
X179334111Y-94792852D01*
X179334116Y-94792850D01*
X179497341Y-94720177D01*
X179641896Y-94615151D01*
X179761453Y-94482368D01*
X179850791Y-94327631D01*
X179850794Y-94327625D01*
X179906004Y-94157702D01*
X179906005Y-94157700D01*
X179924682Y-93980000D01*
X180602247Y-93980000D01*
X180621610Y-94176599D01*
X180621610Y-94176601D01*
X180621611Y-94176603D01*
X180678958Y-94365650D01*
X180741345Y-94482368D01*
X180772086Y-94539881D01*
X180897410Y-94692589D01*
X181050118Y-94817913D01*
X181050122Y-94817916D01*
X181224350Y-94911042D01*
X181413397Y-94968389D01*
X181610000Y-94987753D01*
X181806603Y-94968389D01*
X181995650Y-94911042D01*
X182169878Y-94817916D01*
X182322589Y-94692589D01*
X182447916Y-94539878D01*
X182541042Y-94365650D01*
X182598389Y-94176603D01*
X182617753Y-93980000D01*
X182598389Y-93783397D01*
X182541042Y-93594350D01*
X182447916Y-93420122D01*
X182386143Y-93344851D01*
X182322589Y-93267410D01*
X182169881Y-93142086D01*
X182169879Y-93142085D01*
X182169878Y-93142084D01*
X181995650Y-93048958D01*
X181806603Y-92991611D01*
X181806601Y-92991610D01*
X181806599Y-92991610D01*
X181610000Y-92972247D01*
X181413400Y-92991610D01*
X181224350Y-93048958D01*
X181050118Y-93142086D01*
X180897410Y-93267410D01*
X180772086Y-93420118D01*
X180678958Y-93594350D01*
X180621610Y-93783400D01*
X180602247Y-93980000D01*
X179924682Y-93980000D01*
X179906005Y-93802299D01*
X179906004Y-93802297D01*
X179850794Y-93632374D01*
X179850791Y-93632368D01*
X179761453Y-93477631D01*
X179641896Y-93344848D01*
X179497341Y-93239822D01*
X179334116Y-93167149D01*
X179334111Y-93167147D01*
X179159338Y-93129999D01*
X178980662Y-93129999D01*
X178805888Y-93167147D01*
X178805883Y-93167149D01*
X178642659Y-93239822D01*
X178642654Y-93239825D01*
X178498106Y-93344846D01*
X178498099Y-93344851D01*
X178378546Y-93477631D01*
X178289208Y-93632368D01*
X178289205Y-93632374D01*
X178233995Y-93802297D01*
X178233994Y-93802299D01*
X178215317Y-93980000D01*
X137562900Y-93980000D01*
X137562900Y-91440000D01*
X178062247Y-91440000D01*
X178081610Y-91636599D01*
X178081610Y-91636601D01*
X178081611Y-91636603D01*
X178138958Y-91825650D01*
X178201345Y-91942368D01*
X178232086Y-91999881D01*
X178357410Y-92152589D01*
X178510118Y-92277913D01*
X178510122Y-92277916D01*
X178684350Y-92371042D01*
X178873397Y-92428389D01*
X179070000Y-92447753D01*
X179266603Y-92428389D01*
X179455650Y-92371042D01*
X179629878Y-92277916D01*
X179782589Y-92152589D01*
X179907916Y-91999878D01*
X180001042Y-91825650D01*
X180058389Y-91636603D01*
X180077753Y-91440000D01*
X180602247Y-91440000D01*
X180621610Y-91636599D01*
X180621610Y-91636601D01*
X180621611Y-91636603D01*
X180678958Y-91825650D01*
X180741345Y-91942368D01*
X180772086Y-91999881D01*
X180897410Y-92152589D01*
X181050118Y-92277913D01*
X181050122Y-92277916D01*
X181224350Y-92371042D01*
X181413397Y-92428389D01*
X181610000Y-92447753D01*
X181806603Y-92428389D01*
X181995650Y-92371042D01*
X182169878Y-92277916D01*
X182322589Y-92152589D01*
X182447916Y-91999878D01*
X182541042Y-91825650D01*
X182598389Y-91636603D01*
X182617753Y-91440000D01*
X182598389Y-91243397D01*
X182541042Y-91054350D01*
X182447916Y-90880122D01*
X182386143Y-90804851D01*
X182322589Y-90727410D01*
X182169881Y-90602086D01*
X182169879Y-90602085D01*
X182169878Y-90602084D01*
X181995650Y-90508958D01*
X181806603Y-90451611D01*
X181806601Y-90451610D01*
X181806599Y-90451610D01*
X181610000Y-90432247D01*
X181413400Y-90451610D01*
X181224350Y-90508958D01*
X181050118Y-90602086D01*
X180897410Y-90727410D01*
X180772086Y-90880118D01*
X180678958Y-91054350D01*
X180621610Y-91243400D01*
X180602247Y-91440000D01*
X180077753Y-91440000D01*
X180058389Y-91243397D01*
X180001042Y-91054350D01*
X179907916Y-90880122D01*
X179846143Y-90804851D01*
X179782589Y-90727410D01*
X179629881Y-90602086D01*
X179629879Y-90602085D01*
X179629878Y-90602084D01*
X179455650Y-90508958D01*
X179266603Y-90451611D01*
X179266601Y-90451610D01*
X179266599Y-90451610D01*
X179070000Y-90432247D01*
X178873400Y-90451610D01*
X178684350Y-90508958D01*
X178510118Y-90602086D01*
X178357410Y-90727410D01*
X178232086Y-90880118D01*
X178138958Y-91054350D01*
X178081610Y-91243400D01*
X178062247Y-91440000D01*
X137562900Y-91440000D01*
X137562900Y-71088292D01*
X137562900Y-71056187D01*
X137555993Y-71034930D01*
X137551452Y-71016017D01*
X137547957Y-70993945D01*
X137537806Y-70974023D01*
X137530368Y-70956065D01*
X137523461Y-70934807D01*
X137510326Y-70916728D01*
X137500159Y-70900137D01*
X137490016Y-70880229D01*
X137399771Y-70789984D01*
X137399770Y-70789983D01*
X135569185Y-68959398D01*
X135535700Y-68898075D01*
X135538206Y-68835720D01*
X135559113Y-68766801D01*
X135559113Y-68766799D01*
X135577511Y-68580000D01*
X135559113Y-68393199D01*
X135504625Y-68213576D01*
X135504623Y-68213573D01*
X135504623Y-68213571D01*
X135416145Y-68048040D01*
X135416140Y-68048034D01*
X135297063Y-67902936D01*
X135151965Y-67783859D01*
X135151959Y-67783854D01*
X134986428Y-67695376D01*
X134806799Y-67640886D01*
X134620000Y-67622489D01*
X134433200Y-67640886D01*
X134253571Y-67695376D01*
X134088040Y-67783854D01*
X134088034Y-67783859D01*
X133942936Y-67902936D01*
X133823859Y-68048034D01*
X133823854Y-68048040D01*
X133735376Y-68213571D01*
X133680886Y-68393200D01*
X133662489Y-68579999D01*
X133680886Y-68766799D01*
X133735376Y-68946428D01*
X133823854Y-69111959D01*
X133823859Y-69111965D01*
X133942936Y-69257063D01*
X134088034Y-69376140D01*
X134088040Y-69376145D01*
X134253571Y-69464623D01*
X134253573Y-69464623D01*
X134253576Y-69464625D01*
X134433199Y-69519113D01*
X134620000Y-69537511D01*
X134806801Y-69519113D01*
X134875721Y-69498205D01*
X134945587Y-69497581D01*
X134999398Y-69529185D01*
X136720781Y-71250567D01*
X136754266Y-71311890D01*
X136757100Y-71338248D01*
X136757100Y-100111751D01*
X136737415Y-100178790D01*
X136720781Y-100199432D01*
X135759433Y-101160781D01*
X135698110Y-101194266D01*
X135671752Y-101197100D01*
X128311465Y-101197100D01*
X128292067Y-101195573D01*
X128282272Y-101194021D01*
X128270001Y-101192078D01*
X128269999Y-101192078D01*
X128257727Y-101194021D01*
X128247932Y-101195573D01*
X128228535Y-101197100D01*
X121646145Y-101197100D01*
X121579106Y-101177415D01*
X121536787Y-101131553D01*
X121487917Y-101040123D01*
X121487915Y-101040120D01*
X121362589Y-100887410D01*
X121209881Y-100762086D01*
X121209879Y-100762085D01*
X121209878Y-100762084D01*
X121035650Y-100668958D01*
X120846603Y-100611611D01*
X120846601Y-100611610D01*
X120846599Y-100611610D01*
X120650000Y-100592247D01*
X120453400Y-100611610D01*
X120264350Y-100668958D01*
X120090118Y-100762086D01*
X119937410Y-100887410D01*
X119812086Y-101040118D01*
X119718958Y-101214350D01*
X119661610Y-101403400D01*
X119642247Y-101600000D01*
X119117753Y-101600000D01*
X119098389Y-101403397D01*
X119041042Y-101214350D01*
X118947916Y-101040122D01*
X118947913Y-101040118D01*
X118822589Y-100887410D01*
X118669881Y-100762086D01*
X118669879Y-100762085D01*
X118669878Y-100762084D01*
X118495650Y-100668958D01*
X118306603Y-100611611D01*
X118306601Y-100611610D01*
X118306599Y-100611610D01*
X118110000Y-100592247D01*
X117913400Y-100611610D01*
X117724350Y-100668958D01*
X117550118Y-100762086D01*
X117397410Y-100887410D01*
X117272086Y-101040118D01*
X117178958Y-101214350D01*
X117121610Y-101403400D01*
X117102247Y-101600000D01*
X114325500Y-101600000D01*
X114325500Y-99060000D01*
X117102247Y-99060000D01*
X117121610Y-99256599D01*
X117121610Y-99256601D01*
X117121611Y-99256603D01*
X117178958Y-99445650D01*
X117272084Y-99619878D01*
X117272086Y-99619881D01*
X117397410Y-99772589D01*
X117550118Y-99897913D01*
X117550122Y-99897916D01*
X117724350Y-99991042D01*
X117913397Y-100048389D01*
X118110000Y-100067753D01*
X118306603Y-100048389D01*
X118495650Y-99991042D01*
X118669878Y-99897916D01*
X118822589Y-99772589D01*
X118947916Y-99619878D01*
X119041042Y-99445650D01*
X119098389Y-99256603D01*
X119117753Y-99060000D01*
X119642247Y-99060000D01*
X119661610Y-99256599D01*
X119661610Y-99256601D01*
X119661611Y-99256603D01*
X119718958Y-99445650D01*
X119812084Y-99619878D01*
X119812086Y-99619881D01*
X119937410Y-99772589D01*
X120090118Y-99897913D01*
X120090122Y-99897916D01*
X120264350Y-99991042D01*
X120453397Y-100048389D01*
X120650000Y-100067753D01*
X120846603Y-100048389D01*
X121035650Y-99991042D01*
X121209878Y-99897916D01*
X121362589Y-99772589D01*
X121487916Y-99619878D01*
X121581042Y-99445650D01*
X121638389Y-99256603D01*
X121657753Y-99060000D01*
X121638389Y-98863397D01*
X121581042Y-98674350D01*
X121487916Y-98500122D01*
X121487913Y-98500118D01*
X121362589Y-98347410D01*
X121209881Y-98222086D01*
X121209879Y-98222085D01*
X121209878Y-98222084D01*
X121035650Y-98128958D01*
X120846603Y-98071611D01*
X120846601Y-98071610D01*
X120846599Y-98071610D01*
X120650000Y-98052247D01*
X120453400Y-98071610D01*
X120264350Y-98128958D01*
X120090118Y-98222086D01*
X119937410Y-98347410D01*
X119812086Y-98500118D01*
X119718958Y-98674350D01*
X119661610Y-98863400D01*
X119642247Y-99060000D01*
X119117753Y-99060000D01*
X119098389Y-98863397D01*
X119041042Y-98674350D01*
X118947916Y-98500122D01*
X118947913Y-98500118D01*
X118822589Y-98347410D01*
X118669881Y-98222086D01*
X118669879Y-98222085D01*
X118669878Y-98222084D01*
X118495650Y-98128958D01*
X118306603Y-98071611D01*
X118306601Y-98071610D01*
X118306599Y-98071610D01*
X118110000Y-98052247D01*
X117913400Y-98071610D01*
X117724350Y-98128958D01*
X117550118Y-98222086D01*
X117397410Y-98347410D01*
X117272086Y-98500118D01*
X117178958Y-98674350D01*
X117121610Y-98863400D01*
X117102247Y-99060000D01*
X114325500Y-99060000D01*
X114325500Y-96520000D01*
X117102247Y-96520000D01*
X117121610Y-96716599D01*
X117121610Y-96716601D01*
X117121611Y-96716603D01*
X117178958Y-96905650D01*
X117272084Y-97079878D01*
X117272086Y-97079881D01*
X117397410Y-97232589D01*
X117550118Y-97357913D01*
X117550122Y-97357916D01*
X117724350Y-97451042D01*
X117913397Y-97508389D01*
X118110000Y-97527753D01*
X118306603Y-97508389D01*
X118495650Y-97451042D01*
X118669878Y-97357916D01*
X118822589Y-97232589D01*
X118947916Y-97079878D01*
X119041042Y-96905650D01*
X119098389Y-96716603D01*
X119117753Y-96520000D01*
X119642247Y-96520000D01*
X119661610Y-96716599D01*
X119661610Y-96716601D01*
X119661611Y-96716603D01*
X119718958Y-96905650D01*
X119812084Y-97079878D01*
X119812086Y-97079881D01*
X119937410Y-97232589D01*
X120090118Y-97357913D01*
X120090122Y-97357916D01*
X120264350Y-97451042D01*
X120453397Y-97508389D01*
X120650000Y-97527753D01*
X120846603Y-97508389D01*
X121035650Y-97451042D01*
X121209878Y-97357916D01*
X121362589Y-97232589D01*
X121487916Y-97079878D01*
X121581042Y-96905650D01*
X121638389Y-96716603D01*
X121657753Y-96520000D01*
X121638389Y-96323397D01*
X121581042Y-96134350D01*
X121487916Y-95960122D01*
X121487913Y-95960118D01*
X121362589Y-95807410D01*
X121209881Y-95682086D01*
X121209879Y-95682085D01*
X121209878Y-95682084D01*
X121035650Y-95588958D01*
X120846603Y-95531611D01*
X120846601Y-95531610D01*
X120846599Y-95531610D01*
X120650000Y-95512247D01*
X120453400Y-95531610D01*
X120264350Y-95588958D01*
X120090118Y-95682086D01*
X119937410Y-95807410D01*
X119812086Y-95960118D01*
X119718958Y-96134350D01*
X119661610Y-96323400D01*
X119642247Y-96520000D01*
X119117753Y-96520000D01*
X119098389Y-96323397D01*
X119041042Y-96134350D01*
X118947916Y-95960122D01*
X118947913Y-95960118D01*
X118822589Y-95807410D01*
X118669881Y-95682086D01*
X118669879Y-95682085D01*
X118669878Y-95682084D01*
X118495650Y-95588958D01*
X118306603Y-95531611D01*
X118306601Y-95531610D01*
X118306599Y-95531610D01*
X118110000Y-95512247D01*
X117913400Y-95531610D01*
X117724350Y-95588958D01*
X117550118Y-95682086D01*
X117397410Y-95807410D01*
X117272086Y-95960118D01*
X117178958Y-96134350D01*
X117121610Y-96323400D01*
X117102247Y-96520000D01*
X114325500Y-96520000D01*
X114325500Y-93980000D01*
X117102247Y-93980000D01*
X117121610Y-94176599D01*
X117121610Y-94176601D01*
X117121611Y-94176603D01*
X117178958Y-94365650D01*
X117241345Y-94482368D01*
X117272086Y-94539881D01*
X117397410Y-94692589D01*
X117550118Y-94817913D01*
X117550122Y-94817916D01*
X117724350Y-94911042D01*
X117913397Y-94968389D01*
X118110000Y-94987753D01*
X118306603Y-94968389D01*
X118495650Y-94911042D01*
X118669878Y-94817916D01*
X118822589Y-94692589D01*
X118947916Y-94539878D01*
X119041042Y-94365650D01*
X119098389Y-94176603D01*
X119117753Y-93980000D01*
X119642247Y-93980000D01*
X119661610Y-94176599D01*
X119661610Y-94176601D01*
X119661611Y-94176603D01*
X119718958Y-94365650D01*
X119781345Y-94482368D01*
X119812086Y-94539881D01*
X119937410Y-94692589D01*
X120090118Y-94817913D01*
X120090122Y-94817916D01*
X120264350Y-94911042D01*
X120453397Y-94968389D01*
X120650000Y-94987753D01*
X120846603Y-94968389D01*
X121035650Y-94911042D01*
X121209878Y-94817916D01*
X121362589Y-94692589D01*
X121487916Y-94539878D01*
X121581042Y-94365650D01*
X121638389Y-94176603D01*
X121657753Y-93980000D01*
X121638389Y-93783397D01*
X121581042Y-93594350D01*
X121487916Y-93420122D01*
X121426143Y-93344851D01*
X121362589Y-93267410D01*
X121209881Y-93142086D01*
X121209879Y-93142085D01*
X121209878Y-93142084D01*
X121035650Y-93048958D01*
X120846603Y-92991611D01*
X120846601Y-92991610D01*
X120846599Y-92991610D01*
X120650000Y-92972247D01*
X120453400Y-92991610D01*
X120264350Y-93048958D01*
X120090118Y-93142086D01*
X119937410Y-93267410D01*
X119812086Y-93420118D01*
X119718958Y-93594350D01*
X119661610Y-93783400D01*
X119642247Y-93980000D01*
X119117753Y-93980000D01*
X119098389Y-93783397D01*
X119041042Y-93594350D01*
X118947916Y-93420122D01*
X118886143Y-93344851D01*
X118822589Y-93267410D01*
X118669881Y-93142086D01*
X118669879Y-93142085D01*
X118669878Y-93142084D01*
X118495650Y-93048958D01*
X118306603Y-92991611D01*
X118306601Y-92991610D01*
X118306599Y-92991610D01*
X118110000Y-92972247D01*
X117913400Y-92991610D01*
X117724350Y-93048958D01*
X117550118Y-93142086D01*
X117397410Y-93267410D01*
X117272086Y-93420118D01*
X117178958Y-93594350D01*
X117121610Y-93783400D01*
X117102247Y-93980000D01*
X114325500Y-93980000D01*
X114325500Y-91440000D01*
X117102247Y-91440000D01*
X117121610Y-91636599D01*
X117121610Y-91636601D01*
X117121611Y-91636603D01*
X117178958Y-91825650D01*
X117241345Y-91942368D01*
X117272086Y-91999881D01*
X117397410Y-92152589D01*
X117550118Y-92277913D01*
X117550122Y-92277916D01*
X117724350Y-92371042D01*
X117913397Y-92428389D01*
X118110000Y-92447753D01*
X118306603Y-92428389D01*
X118495650Y-92371042D01*
X118669878Y-92277916D01*
X118822589Y-92152589D01*
X118947916Y-91999878D01*
X119041042Y-91825650D01*
X119098389Y-91636603D01*
X119117753Y-91440000D01*
X119117753Y-91439999D01*
X119795317Y-91439999D01*
X119813994Y-91617700D01*
X119813995Y-91617702D01*
X119869205Y-91787625D01*
X119869208Y-91787631D01*
X119958546Y-91942368D01*
X120078103Y-92075151D01*
X120222658Y-92180177D01*
X120385883Y-92252850D01*
X120385888Y-92252852D01*
X120560662Y-92290001D01*
X120739337Y-92290001D01*
X120914111Y-92252852D01*
X120914116Y-92252850D01*
X121077341Y-92180177D01*
X121221896Y-92075151D01*
X121341453Y-91942368D01*
X121430791Y-91787631D01*
X121430794Y-91787625D01*
X121486004Y-91617702D01*
X121486005Y-91617700D01*
X121504682Y-91440000D01*
X121486005Y-91262299D01*
X121486004Y-91262297D01*
X121430794Y-91092374D01*
X121430791Y-91092368D01*
X121341453Y-90937631D01*
X121221896Y-90804848D01*
X121077341Y-90699822D01*
X120914116Y-90627149D01*
X120914111Y-90627147D01*
X120739338Y-90589999D01*
X120560662Y-90589999D01*
X120385888Y-90627147D01*
X120385883Y-90627149D01*
X120222659Y-90699822D01*
X120222654Y-90699825D01*
X120078106Y-90804846D01*
X120078099Y-90804851D01*
X119958546Y-90937631D01*
X119869208Y-91092368D01*
X119869205Y-91092374D01*
X119813995Y-91262297D01*
X119813994Y-91262299D01*
X119795317Y-91439999D01*
X119117753Y-91439999D01*
X119098389Y-91243397D01*
X119041042Y-91054350D01*
X118947916Y-90880122D01*
X118886143Y-90804851D01*
X118822589Y-90727410D01*
X118669881Y-90602086D01*
X118669879Y-90602085D01*
X118669878Y-90602084D01*
X118495650Y-90508958D01*
X118306603Y-90451611D01*
X118306601Y-90451610D01*
X118306599Y-90451610D01*
X118110000Y-90432247D01*
X117913400Y-90451610D01*
X117724350Y-90508958D01*
X117550118Y-90602086D01*
X117397410Y-90727410D01*
X117272086Y-90880118D01*
X117178958Y-91054350D01*
X117121610Y-91243400D01*
X117102247Y-91440000D01*
X114325500Y-91440000D01*
X114325500Y-88900000D01*
X117102247Y-88900000D01*
X117121610Y-89096599D01*
X117121610Y-89096601D01*
X117121611Y-89096603D01*
X117178958Y-89285650D01*
X117196572Y-89318603D01*
X117272086Y-89459881D01*
X117397410Y-89612589D01*
X117550118Y-89737913D01*
X117550122Y-89737916D01*
X117724350Y-89831042D01*
X117913397Y-89888389D01*
X118110000Y-89907753D01*
X118306603Y-89888389D01*
X118495650Y-89831042D01*
X118669878Y-89737916D01*
X118822589Y-89612589D01*
X118947916Y-89459878D01*
X119041042Y-89285650D01*
X119098389Y-89096603D01*
X119117753Y-88900000D01*
X119642247Y-88900000D01*
X119661610Y-89096599D01*
X119661610Y-89096601D01*
X119661611Y-89096603D01*
X119718958Y-89285650D01*
X119736572Y-89318603D01*
X119812086Y-89459881D01*
X119937410Y-89612589D01*
X120090118Y-89737913D01*
X120090122Y-89737916D01*
X120264350Y-89831042D01*
X120453397Y-89888389D01*
X120650000Y-89907753D01*
X120846603Y-89888389D01*
X121035650Y-89831042D01*
X121209878Y-89737916D01*
X121362589Y-89612589D01*
X121487916Y-89459878D01*
X121536786Y-89368447D01*
X121585749Y-89318603D01*
X121646145Y-89302900D01*
X133413810Y-89302900D01*
X133413813Y-89302900D01*
X133435065Y-89295994D01*
X133453975Y-89291453D01*
X133476055Y-89287957D01*
X133495963Y-89277812D01*
X133513941Y-89270366D01*
X133517219Y-89269300D01*
X133535193Y-89263461D01*
X133553272Y-89250324D01*
X133569854Y-89240163D01*
X133589771Y-89230016D01*
X133680016Y-89139771D01*
X133680016Y-89139770D01*
X133697454Y-89122332D01*
X133697455Y-89122329D01*
X134927314Y-87892473D01*
X134927314Y-87892472D01*
X134950016Y-87869771D01*
X134960160Y-87849859D01*
X134970322Y-87833276D01*
X134983461Y-87815193D01*
X134990366Y-87793941D01*
X134997812Y-87775963D01*
X135007957Y-87756055D01*
X135011453Y-87733975D01*
X135015994Y-87715065D01*
X135022900Y-87693813D01*
X135022900Y-87566187D01*
X135022900Y-77139450D01*
X135042585Y-77072411D01*
X135088446Y-77030092D01*
X135151965Y-76996141D01*
X135297063Y-76877063D01*
X135416141Y-76731965D01*
X135416142Y-76731961D01*
X135416145Y-76731959D01*
X135504623Y-76566428D01*
X135504623Y-76566427D01*
X135504625Y-76566424D01*
X135559113Y-76386801D01*
X135577511Y-76200000D01*
X135559113Y-76013199D01*
X135504625Y-75833576D01*
X135504623Y-75833573D01*
X135504623Y-75833571D01*
X135416145Y-75668040D01*
X135416140Y-75668034D01*
X135297063Y-75522936D01*
X135151965Y-75403859D01*
X135151959Y-75403854D01*
X134986428Y-75315376D01*
X134806799Y-75260886D01*
X134620000Y-75242489D01*
X134433200Y-75260886D01*
X134253571Y-75315376D01*
X134088040Y-75403854D01*
X134088034Y-75403859D01*
X133942936Y-75522936D01*
X133823859Y-75668034D01*
X133823854Y-75668040D01*
X133735376Y-75833571D01*
X133680886Y-76013200D01*
X133662489Y-76200000D01*
X133680886Y-76386799D01*
X133735376Y-76566428D01*
X133823854Y-76731959D01*
X133823859Y-76731965D01*
X133942936Y-76877063D01*
X134088034Y-76996140D01*
X134088036Y-76996142D01*
X134088042Y-76996145D01*
X134151553Y-77030092D01*
X134201397Y-77079053D01*
X134217100Y-77139450D01*
X134217100Y-87411751D01*
X134197415Y-87478790D01*
X134180781Y-87499432D01*
X133219433Y-88460781D01*
X133158110Y-88494266D01*
X133131752Y-88497100D01*
X121646145Y-88497100D01*
X121579106Y-88477415D01*
X121536787Y-88431553D01*
X121487917Y-88340123D01*
X121487915Y-88340120D01*
X121362589Y-88187410D01*
X121209881Y-88062086D01*
X121209879Y-88062085D01*
X121209878Y-88062084D01*
X121035650Y-87968958D01*
X120846603Y-87911611D01*
X120846601Y-87911610D01*
X120846599Y-87911610D01*
X120650000Y-87892247D01*
X120453400Y-87911610D01*
X120264350Y-87968958D01*
X120090118Y-88062086D01*
X119937410Y-88187410D01*
X119812086Y-88340118D01*
X119718958Y-88514350D01*
X119661610Y-88703400D01*
X119642247Y-88900000D01*
X119117753Y-88900000D01*
X119098389Y-88703397D01*
X119041042Y-88514350D01*
X118947916Y-88340122D01*
X118947913Y-88340118D01*
X118822589Y-88187410D01*
X118669881Y-88062086D01*
X118669879Y-88062085D01*
X118669878Y-88062084D01*
X118495650Y-87968958D01*
X118306603Y-87911611D01*
X118306601Y-87911610D01*
X118306599Y-87911610D01*
X118110000Y-87892247D01*
X117913400Y-87911610D01*
X117724350Y-87968958D01*
X117550118Y-88062086D01*
X117397410Y-88187410D01*
X117272086Y-88340118D01*
X117178958Y-88514350D01*
X117121610Y-88703400D01*
X117102247Y-88900000D01*
X114325500Y-88900000D01*
X114325500Y-86360000D01*
X117102247Y-86360000D01*
X117121610Y-86556599D01*
X117121610Y-86556601D01*
X117121611Y-86556603D01*
X117178958Y-86745650D01*
X117272084Y-86919878D01*
X117272086Y-86919881D01*
X117397410Y-87072589D01*
X117550118Y-87197913D01*
X117550122Y-87197916D01*
X117724350Y-87291042D01*
X117913397Y-87348389D01*
X118110000Y-87367753D01*
X118306603Y-87348389D01*
X118495650Y-87291042D01*
X118669878Y-87197916D01*
X118822589Y-87072589D01*
X118947916Y-86919878D01*
X119041042Y-86745650D01*
X119098389Y-86556603D01*
X119117753Y-86360000D01*
X119642247Y-86360000D01*
X119661610Y-86556599D01*
X119661610Y-86556601D01*
X119661611Y-86556603D01*
X119718958Y-86745650D01*
X119812084Y-86919878D01*
X119812086Y-86919881D01*
X119937410Y-87072589D01*
X120090118Y-87197913D01*
X120090122Y-87197916D01*
X120264350Y-87291042D01*
X120453397Y-87348389D01*
X120650000Y-87367753D01*
X120846603Y-87348389D01*
X121035650Y-87291042D01*
X121209878Y-87197916D01*
X121362589Y-87072589D01*
X121487916Y-86919878D01*
X121581042Y-86745650D01*
X121638389Y-86556603D01*
X121657753Y-86360000D01*
X121638389Y-86163397D01*
X121581042Y-85974350D01*
X121487916Y-85800122D01*
X121487913Y-85800118D01*
X121362589Y-85647410D01*
X121209881Y-85522086D01*
X121209879Y-85522085D01*
X121209878Y-85522084D01*
X121035650Y-85428958D01*
X120846603Y-85371611D01*
X120846601Y-85371610D01*
X120846599Y-85371610D01*
X120650000Y-85352247D01*
X120453400Y-85371610D01*
X120264350Y-85428958D01*
X120090118Y-85522086D01*
X119937410Y-85647410D01*
X119812086Y-85800118D01*
X119718958Y-85974350D01*
X119661610Y-86163400D01*
X119642247Y-86360000D01*
X119117753Y-86360000D01*
X119098389Y-86163397D01*
X119041042Y-85974350D01*
X118947916Y-85800122D01*
X118947913Y-85800118D01*
X118822589Y-85647410D01*
X118669881Y-85522086D01*
X118669879Y-85522085D01*
X118669878Y-85522084D01*
X118495650Y-85428958D01*
X118306603Y-85371611D01*
X118306601Y-85371610D01*
X118306599Y-85371610D01*
X118110000Y-85352247D01*
X117913400Y-85371610D01*
X117724350Y-85428958D01*
X117550118Y-85522086D01*
X117397410Y-85647410D01*
X117272086Y-85800118D01*
X117178958Y-85974350D01*
X117121610Y-86163400D01*
X117102247Y-86360000D01*
X114325500Y-86360000D01*
X114325500Y-83820000D01*
X117102247Y-83820000D01*
X117121610Y-84016599D01*
X117121610Y-84016601D01*
X117121611Y-84016603D01*
X117178958Y-84205650D01*
X117272084Y-84379878D01*
X117272086Y-84379881D01*
X117397410Y-84532589D01*
X117550118Y-84657913D01*
X117550122Y-84657916D01*
X117724350Y-84751042D01*
X117913397Y-84808389D01*
X118110000Y-84827753D01*
X118306603Y-84808389D01*
X118495650Y-84751042D01*
X118669878Y-84657916D01*
X118822589Y-84532589D01*
X118947916Y-84379878D01*
X119041042Y-84205650D01*
X119098389Y-84016603D01*
X119117753Y-83820000D01*
X119642247Y-83820000D01*
X119661610Y-84016599D01*
X119661610Y-84016601D01*
X119661611Y-84016603D01*
X119718958Y-84205650D01*
X119812084Y-84379878D01*
X119812086Y-84379881D01*
X119937410Y-84532589D01*
X120090118Y-84657913D01*
X120090122Y-84657916D01*
X120264350Y-84751042D01*
X120453397Y-84808389D01*
X120650000Y-84827753D01*
X120846603Y-84808389D01*
X121035650Y-84751042D01*
X121209878Y-84657916D01*
X121362589Y-84532589D01*
X121487916Y-84379878D01*
X121581042Y-84205650D01*
X121638389Y-84016603D01*
X121657753Y-83820000D01*
X121638389Y-83623397D01*
X121581042Y-83434350D01*
X121487916Y-83260122D01*
X121487913Y-83260118D01*
X121362589Y-83107410D01*
X121209881Y-82982086D01*
X121209879Y-82982085D01*
X121209878Y-82982084D01*
X121035650Y-82888958D01*
X120846603Y-82831611D01*
X120846601Y-82831610D01*
X120846599Y-82831610D01*
X120650000Y-82812247D01*
X120453400Y-82831610D01*
X120264350Y-82888958D01*
X120090118Y-82982086D01*
X119937410Y-83107410D01*
X119812086Y-83260118D01*
X119718958Y-83434350D01*
X119661610Y-83623400D01*
X119642247Y-83820000D01*
X119117753Y-83820000D01*
X119098389Y-83623397D01*
X119041042Y-83434350D01*
X118947916Y-83260122D01*
X118947913Y-83260118D01*
X118822589Y-83107410D01*
X118669881Y-82982086D01*
X118669879Y-82982085D01*
X118669878Y-82982084D01*
X118495650Y-82888958D01*
X118306603Y-82831611D01*
X118306601Y-82831610D01*
X118306599Y-82831610D01*
X118110000Y-82812247D01*
X117913400Y-82831610D01*
X117724350Y-82888958D01*
X117550118Y-82982086D01*
X117397410Y-83107410D01*
X117272086Y-83260118D01*
X117178958Y-83434350D01*
X117121610Y-83623400D01*
X117102247Y-83820000D01*
X114325500Y-83820000D01*
X114325500Y-75299999D01*
X117209999Y-75299999D01*
X117209999Y-77100001D01*
X119010001Y-77100001D01*
X119010001Y-76199999D01*
X119592005Y-76199999D01*
X119612333Y-76406402D01*
X119612334Y-76406405D01*
X119660875Y-76566424D01*
X119672542Y-76604883D01*
X119770305Y-76787785D01*
X119770306Y-76787786D01*
X119770309Y-76787791D01*
X119901885Y-76948115D01*
X120062209Y-77079691D01*
X120062213Y-77079693D01*
X120062214Y-77079694D01*
X120245116Y-77177457D01*
X120245119Y-77177457D01*
X120245123Y-77177460D01*
X120443595Y-77237666D01*
X120650000Y-77257995D01*
X120856405Y-77237666D01*
X121054877Y-77177460D01*
X121054883Y-77177457D01*
X121166977Y-77117542D01*
X121225430Y-77102900D01*
X124135426Y-77102900D01*
X124171421Y-77108239D01*
X124273199Y-77139113D01*
X124460000Y-77157511D01*
X124646801Y-77139113D01*
X124826424Y-77084625D01*
X124826428Y-77084623D01*
X124991959Y-76996145D01*
X124991961Y-76996142D01*
X124991965Y-76996141D01*
X125137063Y-76877063D01*
X125256141Y-76731965D01*
X125256142Y-76731961D01*
X125256145Y-76731959D01*
X125344623Y-76566428D01*
X125344623Y-76566427D01*
X125344625Y-76566424D01*
X125399113Y-76386801D01*
X125417511Y-76200000D01*
X125399113Y-76013199D01*
X125344625Y-75833576D01*
X125344623Y-75833573D01*
X125344623Y-75833571D01*
X125256145Y-75668040D01*
X125256140Y-75668034D01*
X125137063Y-75522936D01*
X124991965Y-75403859D01*
X124991959Y-75403854D01*
X124826428Y-75315376D01*
X124646799Y-75260886D01*
X124460000Y-75242489D01*
X124273200Y-75260886D01*
X124171421Y-75291761D01*
X124135426Y-75297100D01*
X121225430Y-75297100D01*
X121166977Y-75282458D01*
X121054883Y-75222542D01*
X121054877Y-75222540D01*
X120856405Y-75162334D01*
X120856402Y-75162333D01*
X120650000Y-75142005D01*
X120443597Y-75162333D01*
X120245116Y-75222542D01*
X120062214Y-75320305D01*
X120062213Y-75320306D01*
X120062209Y-75320308D01*
X120062209Y-75320309D01*
X119901885Y-75451885D01*
X119843574Y-75522937D01*
X119770306Y-75612213D01*
X119770305Y-75612214D01*
X119672542Y-75795116D01*
X119612333Y-75993597D01*
X119592005Y-76199999D01*
X119010001Y-76199999D01*
X119010001Y-75299999D01*
X117209999Y-75299999D01*
X114325500Y-75299999D01*
X114325500Y-67679999D01*
X117209999Y-67679999D01*
X117209999Y-69480001D01*
X119010001Y-69480001D01*
X119010001Y-68579999D01*
X119592005Y-68579999D01*
X119612333Y-68786402D01*
X119612334Y-68786405D01*
X119660875Y-68946424D01*
X119672542Y-68984883D01*
X119770305Y-69167785D01*
X119770306Y-69167786D01*
X119770309Y-69167791D01*
X119901885Y-69328115D01*
X120062209Y-69459691D01*
X120062213Y-69459693D01*
X120062214Y-69459694D01*
X120245116Y-69557457D01*
X120245119Y-69557457D01*
X120245123Y-69557460D01*
X120443595Y-69617666D01*
X120650000Y-69637995D01*
X120856405Y-69617666D01*
X121054877Y-69557460D01*
X121054883Y-69557457D01*
X121166977Y-69497542D01*
X121225430Y-69482900D01*
X124135426Y-69482900D01*
X124171421Y-69488239D01*
X124273199Y-69519113D01*
X124460000Y-69537511D01*
X124646801Y-69519113D01*
X124826424Y-69464625D01*
X124826428Y-69464623D01*
X124991959Y-69376145D01*
X124991961Y-69376142D01*
X124991965Y-69376141D01*
X125137063Y-69257063D01*
X125256141Y-69111965D01*
X125256142Y-69111961D01*
X125256145Y-69111959D01*
X125344623Y-68946428D01*
X125344623Y-68946427D01*
X125344625Y-68946424D01*
X125399113Y-68766801D01*
X125417511Y-68580000D01*
X125399113Y-68393199D01*
X125344625Y-68213576D01*
X125344623Y-68213573D01*
X125344623Y-68213571D01*
X125256145Y-68048040D01*
X125256140Y-68048034D01*
X125137063Y-67902936D01*
X124991965Y-67783859D01*
X124991959Y-67783854D01*
X124826428Y-67695376D01*
X124646799Y-67640886D01*
X124460000Y-67622489D01*
X124273200Y-67640886D01*
X124171421Y-67671761D01*
X124135426Y-67677100D01*
X121225430Y-67677100D01*
X121166977Y-67662458D01*
X121054883Y-67602542D01*
X121054877Y-67602540D01*
X120856405Y-67542334D01*
X120856402Y-67542333D01*
X120650000Y-67522005D01*
X120443597Y-67542333D01*
X120245116Y-67602542D01*
X120062214Y-67700305D01*
X120062213Y-67700306D01*
X120062209Y-67700308D01*
X120062209Y-67700309D01*
X119901885Y-67831885D01*
X119843574Y-67902937D01*
X119770306Y-67992213D01*
X119770305Y-67992214D01*
X119672542Y-68175116D01*
X119612333Y-68373597D01*
X119592005Y-68579999D01*
X119010001Y-68579999D01*
X119010001Y-67679999D01*
X117209999Y-67679999D01*
X114325500Y-67679999D01*
X114325500Y-64919500D01*
X114345185Y-64852461D01*
X114397989Y-64806706D01*
X114449500Y-64795500D01*
X138280500Y-64795500D01*
X138347539Y-64815185D01*
G37*
%TD.AperFunction*%
%TD*%
M02*
