%TF.GenerationSoftware,KiCad,Pcbnew,7.0.7*%
%TF.CreationDate,2024-06-19T04:07:58+09:00*%
%TF.ProjectId,ALTAIR_CAN_SHIELD _V1,414c5441-4952-45f4-9341-4e5f53484945,rev?*%
%TF.SameCoordinates,Original*%
%TF.FileFunction,Legend,Bot*%
%TF.FilePolarity,Positive*%
%FSLAX46Y46*%
G04 Gerber Fmt 4.6, Leading zero omitted, Abs format (unit mm)*
G04 Created by KiCad (PCBNEW 7.0.7) date 2024-06-19 04:07:58*
%MOMM*%
%LPD*%
G01*
G04 APERTURE LIST*
G04 Aperture macros list*
%AMRoundRect*
0 Rectangle with rounded corners*
0 $1 Rounding radius*
0 $2 $3 $4 $5 $6 $7 $8 $9 X,Y pos of 4 corners*
0 Add a 4 corners polygon primitive as box body*
4,1,4,$2,$3,$4,$5,$6,$7,$8,$9,$2,$3,0*
0 Add four circle primitives for the rounded corners*
1,1,$1+$1,$2,$3*
1,1,$1+$1,$4,$5*
1,1,$1+$1,$6,$7*
1,1,$1+$1,$8,$9*
0 Add four rect primitives between the rounded corners*
20,1,$1+$1,$2,$3,$4,$5,0*
20,1,$1+$1,$4,$5,$6,$7,0*
20,1,$1+$1,$6,$7,$8,$9,0*
20,1,$1+$1,$8,$9,$2,$3,0*%
G04 Aperture macros list end*
%ADD10C,0.200000*%
%ADD11O,2.800000X2.000000*%
%ADD12RoundRect,0.250000X-0.600000X-0.725000X0.600000X-0.725000X0.600000X0.725000X-0.600000X0.725000X0*%
%ADD13O,1.700000X1.950000*%
%ADD14C,1.524000*%
%ADD15C,1.600000*%
%ADD16O,1.600000X1.600000*%
%ADD17R,1.800000X1.800000*%
%ADD18C,1.800000*%
%ADD19C,1.700000*%
G04 APERTURE END LIST*
D10*
G36*
X141351183Y-152002076D02*
G01*
X137960707Y-152002076D01*
X137960707Y-151759219D01*
X138103564Y-151759219D01*
X138122662Y-151817998D01*
X138172662Y-151854325D01*
X138234466Y-151854325D01*
X138284466Y-151817998D01*
X138303564Y-151759219D01*
X138303564Y-151335409D01*
X138674992Y-151335409D01*
X138674992Y-151759219D01*
X138694090Y-151817998D01*
X138744090Y-151854325D01*
X138805894Y-151854325D01*
X138855894Y-151817998D01*
X138864952Y-151790121D01*
X140537030Y-151790121D01*
X140573357Y-151840121D01*
X140632136Y-151859219D01*
X141108326Y-151859219D01*
X141123389Y-151854325D01*
X141139228Y-151854325D01*
X141152041Y-151845015D01*
X141167105Y-151840121D01*
X141176414Y-151827307D01*
X141189228Y-151817998D01*
X141194122Y-151802934D01*
X141203432Y-151790121D01*
X141203432Y-151774281D01*
X141208326Y-151759219D01*
X141208326Y-150759219D01*
X141189228Y-150700440D01*
X141139228Y-150664113D01*
X141077424Y-150664113D01*
X141027424Y-150700440D01*
X141008326Y-150759219D01*
X141008326Y-151659219D01*
X140632136Y-151659219D01*
X140573357Y-151678317D01*
X140537030Y-151728317D01*
X140537030Y-151790121D01*
X138864952Y-151790121D01*
X138874992Y-151759219D01*
X138874992Y-150759219D01*
X138855894Y-150700440D01*
X138805894Y-150664113D01*
X138744090Y-150664113D01*
X138694090Y-150700440D01*
X138674992Y-150759219D01*
X138674992Y-151135409D01*
X138303564Y-151135409D01*
X138303564Y-150759219D01*
X138284466Y-150700440D01*
X138234466Y-150664113D01*
X138172662Y-150664113D01*
X138122662Y-150700440D01*
X138103564Y-150759219D01*
X138103564Y-151759219D01*
X137960707Y-151759219D01*
X137960707Y-150521256D01*
X141351183Y-150521256D01*
X141351183Y-152002076D01*
G37*
G36*
X161671183Y-152002076D02*
G01*
X158280707Y-152002076D01*
X158280707Y-151759219D01*
X158423564Y-151759219D01*
X158442662Y-151817998D01*
X158492662Y-151854325D01*
X158554466Y-151854325D01*
X158604466Y-151817998D01*
X158623564Y-151759219D01*
X158623564Y-151335409D01*
X158994992Y-151335409D01*
X158994992Y-151759219D01*
X159014090Y-151817998D01*
X159064090Y-151854325D01*
X159125894Y-151854325D01*
X159175894Y-151817998D01*
X159184952Y-151790121D01*
X160857030Y-151790121D01*
X160893357Y-151840121D01*
X160952136Y-151859219D01*
X161428326Y-151859219D01*
X161443389Y-151854325D01*
X161459228Y-151854325D01*
X161472041Y-151845015D01*
X161487105Y-151840121D01*
X161496414Y-151827307D01*
X161509228Y-151817998D01*
X161514122Y-151802934D01*
X161523432Y-151790121D01*
X161523432Y-151774281D01*
X161528326Y-151759219D01*
X161528326Y-150759219D01*
X161509228Y-150700440D01*
X161459228Y-150664113D01*
X161397424Y-150664113D01*
X161347424Y-150700440D01*
X161328326Y-150759219D01*
X161328326Y-151659219D01*
X160952136Y-151659219D01*
X160893357Y-151678317D01*
X160857030Y-151728317D01*
X160857030Y-151790121D01*
X159184952Y-151790121D01*
X159194992Y-151759219D01*
X159194992Y-150759219D01*
X159175894Y-150700440D01*
X159125894Y-150664113D01*
X159064090Y-150664113D01*
X159014090Y-150700440D01*
X158994992Y-150759219D01*
X158994992Y-151135409D01*
X158623564Y-151135409D01*
X158623564Y-150759219D01*
X158604466Y-150700440D01*
X158554466Y-150664113D01*
X158492662Y-150664113D01*
X158442662Y-150700440D01*
X158423564Y-150759219D01*
X158423564Y-151759219D01*
X158280707Y-151759219D01*
X158280707Y-150521256D01*
X161671183Y-150521256D01*
X161671183Y-152002076D01*
G37*
G36*
X150241183Y-152002076D02*
G01*
X146850707Y-152002076D01*
X146850707Y-151759219D01*
X146993564Y-151759219D01*
X147012662Y-151817998D01*
X147062662Y-151854325D01*
X147124466Y-151854325D01*
X147174466Y-151817998D01*
X147193564Y-151759219D01*
X147193564Y-151335409D01*
X147564992Y-151335409D01*
X147564992Y-151759219D01*
X147584090Y-151817998D01*
X147634090Y-151854325D01*
X147695894Y-151854325D01*
X147745894Y-151817998D01*
X147754952Y-151790121D01*
X149427030Y-151790121D01*
X149463357Y-151840121D01*
X149522136Y-151859219D01*
X149998326Y-151859219D01*
X150013389Y-151854325D01*
X150029228Y-151854325D01*
X150042041Y-151845015D01*
X150057105Y-151840121D01*
X150066414Y-151827307D01*
X150079228Y-151817998D01*
X150084122Y-151802934D01*
X150093432Y-151790121D01*
X150093432Y-151774281D01*
X150098326Y-151759219D01*
X150098326Y-150759219D01*
X150079228Y-150700440D01*
X150029228Y-150664113D01*
X149967424Y-150664113D01*
X149917424Y-150700440D01*
X149898326Y-150759219D01*
X149898326Y-151659219D01*
X149522136Y-151659219D01*
X149463357Y-151678317D01*
X149427030Y-151728317D01*
X149427030Y-151790121D01*
X147754952Y-151790121D01*
X147764992Y-151759219D01*
X147764992Y-150759219D01*
X147745894Y-150700440D01*
X147695894Y-150664113D01*
X147634090Y-150664113D01*
X147584090Y-150700440D01*
X147564992Y-150759219D01*
X147564992Y-151135409D01*
X147193564Y-151135409D01*
X147193564Y-150759219D01*
X147174466Y-150700440D01*
X147124466Y-150664113D01*
X147062662Y-150664113D01*
X147012662Y-150700440D01*
X146993564Y-150759219D01*
X146993564Y-151759219D01*
X146850707Y-151759219D01*
X146850707Y-150521256D01*
X150241183Y-150521256D01*
X150241183Y-152002076D01*
G37*
G36*
X179422135Y-152002076D02*
G01*
X176031659Y-152002076D01*
X176031659Y-151759219D01*
X176174516Y-151759219D01*
X176193614Y-151817998D01*
X176243614Y-151854325D01*
X176305418Y-151854325D01*
X176355418Y-151817998D01*
X176374516Y-151759219D01*
X176374516Y-151335409D01*
X176745944Y-151335409D01*
X176745944Y-151759219D01*
X176765042Y-151817998D01*
X176815042Y-151854325D01*
X176876846Y-151854325D01*
X176926846Y-151817998D01*
X176935904Y-151790121D01*
X178607982Y-151790121D01*
X178644309Y-151840121D01*
X178703088Y-151859219D01*
X179179278Y-151859219D01*
X179194341Y-151854325D01*
X179210180Y-151854325D01*
X179222993Y-151845015D01*
X179238057Y-151840121D01*
X179247366Y-151827307D01*
X179260180Y-151817998D01*
X179265074Y-151802934D01*
X179274384Y-151790121D01*
X179274384Y-151774281D01*
X179279278Y-151759219D01*
X179279278Y-150759219D01*
X179260180Y-150700440D01*
X179210180Y-150664113D01*
X179148376Y-150664113D01*
X179098376Y-150700440D01*
X179079278Y-150759219D01*
X179079278Y-151659219D01*
X178703088Y-151659219D01*
X178644309Y-151678317D01*
X178607982Y-151728317D01*
X178607982Y-151790121D01*
X176935904Y-151790121D01*
X176945944Y-151759219D01*
X176945944Y-150759219D01*
X176926846Y-150700440D01*
X176876846Y-150664113D01*
X176815042Y-150664113D01*
X176765042Y-150700440D01*
X176745944Y-150759219D01*
X176745944Y-151135409D01*
X176374516Y-151135409D01*
X176374516Y-150759219D01*
X176355418Y-150700440D01*
X176305418Y-150664113D01*
X176243614Y-150664113D01*
X176193614Y-150700440D01*
X176174516Y-150759219D01*
X176174516Y-151759219D01*
X176031659Y-151759219D01*
X176031659Y-150521256D01*
X179422135Y-150521256D01*
X179422135Y-152002076D01*
G37*
G36*
X132461183Y-152002076D02*
G01*
X129070707Y-152002076D01*
X129070707Y-151759219D01*
X129213564Y-151759219D01*
X129232662Y-151817998D01*
X129282662Y-151854325D01*
X129344466Y-151854325D01*
X129394466Y-151817998D01*
X129413564Y-151759219D01*
X129413564Y-151335409D01*
X129784992Y-151335409D01*
X129784992Y-151759219D01*
X129804090Y-151817998D01*
X129854090Y-151854325D01*
X129915894Y-151854325D01*
X129965894Y-151817998D01*
X129974952Y-151790121D01*
X131647030Y-151790121D01*
X131683357Y-151840121D01*
X131742136Y-151859219D01*
X132218326Y-151859219D01*
X132233389Y-151854325D01*
X132249228Y-151854325D01*
X132262041Y-151845015D01*
X132277105Y-151840121D01*
X132286414Y-151827307D01*
X132299228Y-151817998D01*
X132304122Y-151802934D01*
X132313432Y-151790121D01*
X132313432Y-151774281D01*
X132318326Y-151759219D01*
X132318326Y-150759219D01*
X132299228Y-150700440D01*
X132249228Y-150664113D01*
X132187424Y-150664113D01*
X132137424Y-150700440D01*
X132118326Y-150759219D01*
X132118326Y-151659219D01*
X131742136Y-151659219D01*
X131683357Y-151678317D01*
X131647030Y-151728317D01*
X131647030Y-151790121D01*
X129974952Y-151790121D01*
X129984992Y-151759219D01*
X129984992Y-150759219D01*
X129965894Y-150700440D01*
X129915894Y-150664113D01*
X129854090Y-150664113D01*
X129804090Y-150700440D01*
X129784992Y-150759219D01*
X129784992Y-151135409D01*
X129413564Y-151135409D01*
X129413564Y-150759219D01*
X129394466Y-150700440D01*
X129344466Y-150664113D01*
X129282662Y-150664113D01*
X129232662Y-150700440D01*
X129213564Y-150759219D01*
X129213564Y-151759219D01*
X129070707Y-151759219D01*
X129070707Y-150521256D01*
X132461183Y-150521256D01*
X132461183Y-152002076D01*
G37*
G36*
X170561183Y-152002076D02*
G01*
X167170707Y-152002076D01*
X167170707Y-151759219D01*
X167313564Y-151759219D01*
X167332662Y-151817998D01*
X167382662Y-151854325D01*
X167444466Y-151854325D01*
X167494466Y-151817998D01*
X167513564Y-151759219D01*
X167513564Y-151335409D01*
X167884992Y-151335409D01*
X167884992Y-151759219D01*
X167904090Y-151817998D01*
X167954090Y-151854325D01*
X168015894Y-151854325D01*
X168065894Y-151817998D01*
X168074952Y-151790121D01*
X169747030Y-151790121D01*
X169783357Y-151840121D01*
X169842136Y-151859219D01*
X170318326Y-151859219D01*
X170333389Y-151854325D01*
X170349228Y-151854325D01*
X170362041Y-151845015D01*
X170377105Y-151840121D01*
X170386414Y-151827307D01*
X170399228Y-151817998D01*
X170404122Y-151802934D01*
X170413432Y-151790121D01*
X170413432Y-151774281D01*
X170418326Y-151759219D01*
X170418326Y-150759219D01*
X170399228Y-150700440D01*
X170349228Y-150664113D01*
X170287424Y-150664113D01*
X170237424Y-150700440D01*
X170218326Y-150759219D01*
X170218326Y-151659219D01*
X169842136Y-151659219D01*
X169783357Y-151678317D01*
X169747030Y-151728317D01*
X169747030Y-151790121D01*
X168074952Y-151790121D01*
X168084992Y-151759219D01*
X168084992Y-150759219D01*
X168065894Y-150700440D01*
X168015894Y-150664113D01*
X167954090Y-150664113D01*
X167904090Y-150700440D01*
X167884992Y-150759219D01*
X167884992Y-151135409D01*
X167513564Y-151135409D01*
X167513564Y-150759219D01*
X167494466Y-150700440D01*
X167444466Y-150664113D01*
X167382662Y-150664113D01*
X167332662Y-150700440D01*
X167313564Y-150759219D01*
X167313564Y-151759219D01*
X167170707Y-151759219D01*
X167170707Y-150521256D01*
X170561183Y-150521256D01*
X170561183Y-152002076D01*
G37*
%TO.C,G\u002A\u002A\u002A*%
G36*
X129178930Y-65417467D02*
G01*
X129165946Y-65576804D01*
X129150940Y-65651118D01*
X129114435Y-65895837D01*
X129073042Y-66233394D01*
X129033142Y-66613970D01*
X129021777Y-66730369D01*
X128969095Y-67241112D01*
X128908834Y-67792415D01*
X128851913Y-68283667D01*
X128836402Y-68435556D01*
X128808003Y-68840169D01*
X128783067Y-69358317D01*
X128762960Y-69953155D01*
X128749050Y-70587843D01*
X128742706Y-71225538D01*
X128740003Y-71678756D01*
X128733539Y-72209135D01*
X128724278Y-72661343D01*
X128712840Y-73012590D01*
X128699840Y-73240085D01*
X128685898Y-73321038D01*
X128642299Y-73273554D01*
X128558698Y-73082035D01*
X128449629Y-72764314D01*
X128320688Y-72342619D01*
X128177471Y-71839175D01*
X128025572Y-71276210D01*
X127870588Y-70675950D01*
X127718114Y-70060622D01*
X127573746Y-69452453D01*
X127443079Y-68873669D01*
X127331709Y-68346498D01*
X127245231Y-67893165D01*
X127189240Y-67535897D01*
X127169333Y-67296922D01*
X127171654Y-67283728D01*
X127252140Y-67155431D01*
X127428238Y-66945713D01*
X127673739Y-66680345D01*
X127962432Y-66385100D01*
X128268111Y-66085746D01*
X128564565Y-65808055D01*
X128825585Y-65577797D01*
X129024962Y-65420744D01*
X129136487Y-65362666D01*
X129178930Y-65417467D01*
G37*
G36*
X134977439Y-81434542D02*
G01*
X135085889Y-81509365D01*
X135288527Y-81573082D01*
X135622124Y-81642872D01*
X135651683Y-81648680D01*
X135731786Y-81667581D01*
X135769224Y-81684377D01*
X135755554Y-81699191D01*
X135682331Y-81712148D01*
X135541110Y-81723370D01*
X135323447Y-81732981D01*
X135020897Y-81741104D01*
X134625015Y-81747862D01*
X134127357Y-81753380D01*
X133519477Y-81757780D01*
X132792933Y-81761186D01*
X131939278Y-81763721D01*
X130950069Y-81765508D01*
X129816860Y-81766672D01*
X128531208Y-81767334D01*
X127084667Y-81767620D01*
X125793159Y-81767708D01*
X124492964Y-81767635D01*
X123346151Y-81767232D01*
X122344276Y-81766344D01*
X121478894Y-81764818D01*
X120741562Y-81762501D01*
X120123834Y-81759239D01*
X119617267Y-81754878D01*
X119213417Y-81749265D01*
X118903839Y-81742246D01*
X118680088Y-81733667D01*
X118533722Y-81723375D01*
X118456295Y-81711216D01*
X118439362Y-81697037D01*
X118474481Y-81680683D01*
X118553207Y-81662002D01*
X118667094Y-81640840D01*
X118807700Y-81617043D01*
X119064246Y-81571720D01*
X119746484Y-81433810D01*
X120520007Y-81258451D01*
X121336786Y-81057690D01*
X122148795Y-80843573D01*
X122908007Y-80628146D01*
X123566394Y-80423456D01*
X123609902Y-80409087D01*
X123989605Y-80282328D01*
X124302495Y-80175538D01*
X124517183Y-80099569D01*
X124602281Y-80065274D01*
X124600520Y-80058151D01*
X124516498Y-79977787D01*
X124334295Y-79830943D01*
X124084784Y-79642823D01*
X123319193Y-78991812D01*
X122636496Y-78204751D01*
X122093651Y-77327474D01*
X121697479Y-76369333D01*
X121683047Y-76321359D01*
X121622669Y-76048374D01*
X121572176Y-75711793D01*
X121534251Y-75350101D01*
X121511574Y-75001789D01*
X121506826Y-74705342D01*
X121522687Y-74499250D01*
X121561838Y-74422000D01*
X121582866Y-74423638D01*
X121680111Y-74485500D01*
X121688030Y-74500046D01*
X121805520Y-74633253D01*
X122023591Y-74834109D01*
X122310565Y-75076542D01*
X122634766Y-75334479D01*
X122964518Y-75581848D01*
X123268145Y-75792577D01*
X123488863Y-75933623D01*
X123739329Y-76074774D01*
X123891165Y-76126062D01*
X123965348Y-76096635D01*
X123969104Y-76090658D01*
X124019415Y-75972995D01*
X123999895Y-75858691D01*
X123892126Y-75724435D01*
X123677690Y-75546915D01*
X123338167Y-75302817D01*
X123224383Y-75221688D01*
X122826774Y-74919204D01*
X122428917Y-74593035D01*
X122102070Y-74300936D01*
X122068358Y-74268700D01*
X121823807Y-74030325D01*
X121677873Y-73864632D01*
X121608941Y-73731856D01*
X121595397Y-73592234D01*
X121615628Y-73406000D01*
X121632796Y-73297487D01*
X121692908Y-73008757D01*
X121774553Y-72681209D01*
X121865932Y-72355637D01*
X121955248Y-72072831D01*
X122030704Y-71873581D01*
X122080501Y-71798679D01*
X122099837Y-71812584D01*
X122197614Y-71932800D01*
X122351276Y-72149657D01*
X122537318Y-72430639D01*
X122548909Y-72448496D01*
X122774231Y-72762264D01*
X123079083Y-73144840D01*
X123424934Y-73549496D01*
X123773250Y-73929500D01*
X123916469Y-74079126D01*
X124202274Y-74374228D01*
X124399729Y-74566723D01*
X124529016Y-74671046D01*
X124610320Y-74701636D01*
X124663821Y-74672928D01*
X124709704Y-74599361D01*
X124713817Y-74591603D01*
X124751205Y-74493592D01*
X124738860Y-74394621D01*
X124659016Y-74265260D01*
X124493912Y-74076080D01*
X124225782Y-73797654D01*
X124007350Y-73570400D01*
X123454887Y-72946440D01*
X123006526Y-72351313D01*
X122630296Y-71743863D01*
X122565070Y-71626417D01*
X122437899Y-71379609D01*
X122381848Y-71212815D01*
X122385556Y-71077825D01*
X122437663Y-70926434D01*
X122479053Y-70834462D01*
X122592960Y-70605442D01*
X122745199Y-70314778D01*
X122916355Y-69997780D01*
X123087015Y-69689759D01*
X123237765Y-69426026D01*
X123349192Y-69241892D01*
X123401881Y-69172667D01*
X123412005Y-69186448D01*
X123466952Y-69317757D01*
X123554390Y-69558217D01*
X123660732Y-69871167D01*
X123812555Y-70293442D01*
X124188775Y-71156016D01*
X124636626Y-71999912D01*
X125117989Y-72749833D01*
X125332332Y-73040089D01*
X125526030Y-73268111D01*
X125668833Y-73377758D01*
X125780830Y-73383487D01*
X125882108Y-73299756D01*
X125898338Y-73224328D01*
X125844371Y-73062379D01*
X125702722Y-72804334D01*
X125464601Y-72431922D01*
X125350102Y-72255146D01*
X125084110Y-71818187D01*
X124831815Y-71372901D01*
X124635384Y-70992488D01*
X124586350Y-70887087D01*
X124428440Y-70517826D01*
X124267481Y-70104227D01*
X124114739Y-69679772D01*
X123981477Y-69277942D01*
X123878962Y-68932219D01*
X123818458Y-68676083D01*
X123811232Y-68543016D01*
X123831292Y-68505474D01*
X123947922Y-68338657D01*
X124145332Y-68081226D01*
X124402243Y-67759052D01*
X124697377Y-67398011D01*
X125009457Y-67023975D01*
X125317205Y-66662818D01*
X125599343Y-66340414D01*
X125834593Y-66082637D01*
X125986200Y-65926666D01*
X126209534Y-65715488D01*
X126375185Y-65582603D01*
X126455347Y-65551791D01*
X126473666Y-65595787D01*
X126510841Y-65781984D01*
X126550211Y-66073615D01*
X126585822Y-66430587D01*
X126595780Y-66541444D01*
X126648985Y-67022774D01*
X126716308Y-67517775D01*
X126785618Y-67935099D01*
X126788070Y-67947975D01*
X126872611Y-68391018D01*
X126968274Y-68890948D01*
X127054821Y-69342000D01*
X127237211Y-70188646D01*
X127478578Y-71149320D01*
X127765879Y-72176204D01*
X128086805Y-73225315D01*
X128429045Y-74252667D01*
X128768042Y-75226333D01*
X128406766Y-75565000D01*
X128231421Y-75735658D01*
X127923977Y-76093531D01*
X127700232Y-76472193D01*
X127514884Y-76941564D01*
X127424276Y-77268727D01*
X127352001Y-77962765D01*
X127430656Y-78647045D01*
X127650088Y-79296212D01*
X128000148Y-79884914D01*
X128470685Y-80387799D01*
X129051546Y-80779511D01*
X129518083Y-80972065D01*
X130181138Y-81140700D01*
X130922150Y-81241253D01*
X131697893Y-81270358D01*
X132246289Y-81237690D01*
X134218272Y-81237690D01*
X134219884Y-81330906D01*
X134360434Y-81446354D01*
X134516460Y-81518361D01*
X134603991Y-81508651D01*
X134604177Y-81385833D01*
X134547592Y-81290061D01*
X134386302Y-81210611D01*
X134351193Y-81206844D01*
X134218272Y-81237690D01*
X132246289Y-81237690D01*
X132465141Y-81224653D01*
X133180667Y-81100775D01*
X133286251Y-81075355D01*
X133649267Y-80991206D01*
X133965459Y-80922435D01*
X134176115Y-80881948D01*
X134227099Y-80875742D01*
X134532938Y-80916749D01*
X134781815Y-81073435D01*
X134922280Y-81315881D01*
X134926407Y-81331432D01*
X134953332Y-81385833D01*
X134977439Y-81434542D01*
G37*
%TD*%
%LPC*%
D11*
%TO.C,J3*%
X177820000Y-147320000D03*
D12*
X176570000Y-140820000D03*
D13*
X179070000Y-140820000D03*
%TD*%
D14*
%TO.C,U2*%
X149860000Y-121920000D03*
X152400000Y-121920000D03*
X154940000Y-121920000D03*
X157480000Y-121920000D03*
X160020000Y-121920000D03*
X162560000Y-121920000D03*
X165100000Y-121920000D03*
X167640000Y-121920000D03*
%TD*%
D11*
%TO.C,J2*%
X168950000Y-147320000D03*
D12*
X167700000Y-140820000D03*
D13*
X170200000Y-140820000D03*
%TD*%
D15*
%TO.C,R3*%
X157480000Y-115570000D03*
D16*
X167640000Y-115570000D03*
%TD*%
D14*
%TO.C,U3*%
X128270000Y-121920000D03*
X130810000Y-121920000D03*
X133350000Y-121920000D03*
X135890000Y-121920000D03*
X138430000Y-121920000D03*
X140970000Y-121920000D03*
X143510000Y-121920000D03*
X146050000Y-121920000D03*
%TD*%
D11*
%TO.C,J4*%
X148610000Y-147320000D03*
D12*
X147360000Y-140820000D03*
D13*
X149860000Y-140820000D03*
%TD*%
D15*
%TO.C,R4*%
X135890000Y-115570000D03*
D16*
X146050000Y-115570000D03*
%TD*%
D17*
%TO.C,LED2*%
X118110000Y-68580000D03*
D18*
X120650000Y-68580000D03*
%TD*%
D11*
%TO.C,J5*%
X139740000Y-147320000D03*
D12*
X138490000Y-140820000D03*
D13*
X140990000Y-140820000D03*
%TD*%
D11*
%TO.C,J1*%
X160040000Y-147320000D03*
D12*
X158790000Y-140820000D03*
D13*
X161290000Y-140820000D03*
%TD*%
D17*
%TO.C,LED1*%
X118110000Y-76200000D03*
D18*
X120650000Y-76200000D03*
%TD*%
D19*
%TO.C,U1*%
X120650000Y-99060000D03*
X118110000Y-91440000D03*
X120650000Y-96520000D03*
X179070000Y-91440000D03*
X118110000Y-88900000D03*
X118110000Y-124460000D03*
X120650000Y-111760000D03*
X181610000Y-91440000D03*
X120650000Y-88900000D03*
X120650000Y-104140000D03*
X120650000Y-101600000D03*
X120650000Y-116840000D03*
X120650000Y-119380000D03*
X179070000Y-127000000D03*
X179070000Y-129540000D03*
X120650000Y-121920000D03*
X179070000Y-96520000D03*
X179070000Y-99060000D03*
X179070000Y-101600000D03*
X179070000Y-111760000D03*
X179070000Y-109220000D03*
X179070000Y-124460000D03*
X181610000Y-99060000D03*
X181610000Y-96520000D03*
X118110000Y-99060000D03*
X118110000Y-101600000D03*
X118110000Y-104140000D03*
X120650000Y-86360000D03*
X118110000Y-119380000D03*
X118110000Y-121920000D03*
X120650000Y-124460000D03*
X181610000Y-111760000D03*
X181610000Y-109220000D03*
X179070000Y-121920000D03*
X179070000Y-116840000D03*
X179070000Y-119380000D03*
X179070000Y-104140000D03*
X118110000Y-109220000D03*
X179070000Y-86360000D03*
X179070000Y-88900000D03*
X179070000Y-114300000D03*
X181610000Y-101600000D03*
X181610000Y-119380000D03*
X181610000Y-116840000D03*
X181610000Y-114300000D03*
X120650000Y-129540000D03*
X120650000Y-127000000D03*
X118110000Y-127000000D03*
X118110000Y-129540000D03*
X181610000Y-124460000D03*
X181610000Y-88900000D03*
X181610000Y-86360000D03*
X179070000Y-106680000D03*
X181610000Y-83820000D03*
X179070000Y-83820000D03*
X118110000Y-83820000D03*
X120650000Y-83820000D03*
X118110000Y-86360000D03*
X118110000Y-111760000D03*
X118110000Y-114300000D03*
X118110000Y-116840000D03*
X118110000Y-106680000D03*
X120650000Y-91440000D03*
X120650000Y-106680000D03*
X120650000Y-109220000D03*
X179070000Y-93980000D03*
X181610000Y-106680000D03*
X181610000Y-121920000D03*
X118110000Y-96520000D03*
X120650000Y-93980000D03*
X118110000Y-93980000D03*
X120650000Y-114300000D03*
X181610000Y-93980000D03*
X181610000Y-104140000D03*
X181610000Y-127000000D03*
X181610000Y-129540000D03*
%TD*%
D15*
%TO.C,R2*%
X124460000Y-68580000D03*
D16*
X134620000Y-68580000D03*
%TD*%
D15*
%TO.C,R1*%
X124460000Y-76200000D03*
D16*
X134620000Y-76200000D03*
%TD*%
D11*
%TO.C,J6*%
X130870000Y-147320000D03*
D12*
X129620000Y-140820000D03*
D13*
X132120000Y-140820000D03*
%TD*%
%LPD*%
M02*
